<svg width="33" height="40" viewBox="0 0 33 40" fill="none" xmlns="http://www.w3.org/2000/svg">
<path d="M0 36.25C0 38.3203 1.58371 40 3.53571 40H29.4643C31.4163 40 33 38.3203 33 36.25V15H0V36.25ZM23.5714 20.9375C23.5714 20.4219 23.9692 20 24.4554 20H27.4018C27.8879 20 28.2857 20.4219 28.2857 20.9375V24.0625C28.2857 24.5781 27.8879 25 27.4018 25H24.4554C23.9692 25 23.5714 24.5781 23.5714 24.0625V20.9375ZM23.5714 30.9375C23.5714 30.4219 23.9692 30 24.4554 30H27.4018C27.8879 30 28.2857 30.4219 28.2857 30.9375V34.0625C28.2857 34.5781 27.8879 35 27.4018 35H24.4554C23.9692 35 23.5714 34.5781 23.5714 34.0625V30.9375ZM14.1429 20.9375C14.1429 20.4219 14.5406 20 15.0268 20H17.9732C18.4594 20 18.8571 20.4219 18.8571 20.9375V24.0625C18.8571 24.5781 18.4594 25 17.9732 25H15.0268C14.5406 25 14.1429 24.5781 14.1429 24.0625V20.9375ZM14.1429 30.9375C14.1429 30.4219 14.5406 30 15.0268 30H17.9732C18.4594 30 18.8571 30.4219 18.8571 30.9375V34.0625C18.8571 34.5781 18.4594 35 17.9732 35H15.0268C14.5406 35 14.1429 34.5781 14.1429 34.0625V30.9375ZM4.71429 20.9375C4.71429 20.4219 5.11205 20 5.59821 20H8.54464C9.0308 20 9.42857 20.4219 9.42857 20.9375V24.0625C9.42857 24.5781 9.0308 25 8.54464 25H5.59821C5.11205 25 4.71429 24.5781 4.71429 24.0625V20.9375ZM4.71429 30.9375C4.71429 30.4219 5.11205 30 5.59821 30H8.54464C9.0308 30 9.42857 30.4219 9.42857 30.9375V34.0625C9.42857 34.5781 9.0308 35 8.54464 35H5.59821C5.11205 35 4.71429 34.5781 4.71429 34.0625V30.9375ZM29.4643 5H25.9286V1.25C25.9286 0.5625 25.3982 0 24.75 0H22.3929C21.7446 0 21.2143 0.5625 21.2143 1.25V5H11.7857V1.25C11.7857 0.5625 11.2554 0 10.6071 0H8.25C7.60179 0 7.07143 0.5625 7.07143 1.25V5H3.53571C1.58371 5 0 6.67969 0 8.75V12.5H33V8.75C33 6.67969 31.4163 5 29.4643 5Z" fill="#353755" fill-opacity="0.55"/>
</svg>
