<svg width="169" height="467" viewBox="0 0 169 467" fill="none" xmlns="http://www.w3.org/2000/svg">
<path d="M148.001 35.4996L173.501 43.4996C189.168 91.4997 220.801 190.7 222.001 203.5C223.501 219.5 237.501 385 202.001 417C166.702 448.819 156.615 384.73 148.145 330.915L148.001 330C139.501 276 49.5014 277.5 52.5014 230.5C55.5014 183.5 76.5014 208.5 102.501 116C123.301 41.9996 141.501 31.4996 148.001 35.4996Z" fill="url(#paint0_linear_2_2)"/>
<path d="M117.001 5.00033C134.201 -8.99967 178.834 16.167 199.001 30.5003L208.501 465.5L156.001 444L127.501 364.5C89.5009 330.833 11.6006 258.9 4.00062 240.5C-5.49938 217.5 10.5006 162.5 35.0006 121C59.5006 79.5 95.5006 22.5003 117.001 5.00033Z" stroke="#5438CD"/>
<defs>
<linearGradient id="paint0_linear_2_2" x1="255.001" y1="230.286" x2="5.37844" y2="230.286" gradientUnits="userSpaceOnUse">
<stop stop-color="#5438CD"/>
<stop offset="0.648958" stop-color="#2D3A96"/>
</linearGradient>
</defs>
</svg>