<svg width="1728" height="1951" viewBox="0 0 1728 1951" fill="none" xmlns="http://www.w3.org/2000/svg">
<path opacity="0.35" d="M1728 51.6993C1736.34 36.3059 1745.61 18.4081 1743.81 17.6432C1737.65 15.0025 1653.39 236.367 1471.2 366.064C1280.36 501.922 1026.54 505.83 813.4 508.576C437.288 513.427 326.713 418.039 125.236 496.001C-12.5995 549.338 -168.12 674.183 -145.476 779.977C-98.8351 997.873 687.354 1059.18 842.495 1071.29C1470.2 1120.25 1769.33 1003.71 1873.48 1135.21C1977.38 1266.39 1803.34 1538.49 1598.97 1691.63C1122.24 2048.87 167.753 1988.73 -13.9151 1651.81C-38.899 1605.48 -115.356 1431.35 137.253 1106.39" stroke="#FE9261" stroke-width="35" stroke-miterlimit="10"/>
</svg>
