<svg width="926" height="528" viewBox="0 0 926 528" fill="none" xmlns="http://www.w3.org/2000/svg">
<path d="M62 21.9818C10.8 -16.0182 -50.6667 6.14843 -75 21.9818L-2 571.982L484.5 740.482C631.333 701.482 925 606.682 925 539.482C925 455.482 824.5 454.982 780.5 436.982C736.5 418.982 702 460.482 656.5 454.982C611 449.482 638 422.482 526.5 392.982C415 363.482 470 303.482 387.5 266.982C305 230.482 261.5 248.482 166.5 211.982C71.5 175.482 126 69.4818 62 21.9818Z" stroke="url(#paint0_linear_192_6068)"/>
<defs>
<linearGradient id="paint0_linear_192_6068" x1="925" y1="370.747" x2="-81.2057" y2="370.747" gradientUnits="userSpaceOnUse">
<stop stop-color="#5438CD"/>
<stop offset="0.648958" stop-color="#2D3A96"/>
</linearGradient>
</defs>
</svg>
