<svg width="901" height="496" viewBox="0 0 901 496" fill="none" xmlns="http://www.w3.org/2000/svg">
<path d="M37.5 21C-13.7 -17 -75.1667 5.16662 -99.5 21L-26.5 571L460 739.5C606.833 700.5 900.5 605.7 900.5 538.5C900.5 454.5 800 454 756 436C712 418 677.5 459.5 632 454C586.5 448.5 613.5 421.5 502 392C390.5 362.5 445.5 302.5 363 266C280.5 229.5 237 247.5 142 211C47 174.5 101.5 68.5 37.5 21Z" fill="url(#paint0_linear_192_6067)"/>
<defs>
<linearGradient id="paint0_linear_192_6067" x1="900.5" y1="369.765" x2="-105.706" y2="369.765" gradientUnits="userSpaceOnUse">
<stop stop-color="#5438CD"/>
<stop offset="0.648958" stop-color="#2D3A96"/>
</linearGradient>
</defs>
</svg>
