<svg width="948" height="559" viewBox="0 0 948 559" fill="none" xmlns="http://www.w3.org/2000/svg">
<path d="M84 21.9818C32.8 -16.0182 -28.6667 6.14843 -53 21.9818L20 571.982L506.5 740.482C653.333 701.482 947 606.682 947 539.482C947 455.482 846.5 454.982 802.5 436.982C758.5 418.982 724 460.482 678.5 454.982C633 449.482 660 422.482 548.5 392.982C437 363.482 492 303.482 409.5 266.982C327 230.482 283.5 248.482 188.5 211.982C93.5 175.482 148 69.4818 84 21.9818Z" stroke="url(#paint0_linear_192_6070)"/>
<defs>
<linearGradient id="paint0_linear_192_6070" x1="947" y1="370.747" x2="-59.2057" y2="370.747" gradientUnits="userSpaceOnUse">
<stop stop-color="#5438CD"/>
<stop offset="0.648958" stop-color="#2D3A96"/>
</linearGradient>
</defs>
</svg>
