<svg width="937" height="544" viewBox="0 0 937 544" fill="none" xmlns="http://www.w3.org/2000/svg">
<path d="M73 21.9818C21.8 -16.0182 -39.6667 6.14843 -64 21.9818L9 571.982L495.5 740.482C642.333 701.482 936 606.682 936 539.482C936 455.482 835.5 454.982 791.5 436.982C747.5 418.982 713 460.482 667.5 454.982C622 449.482 649 422.482 537.5 392.982C426 363.482 481 303.482 398.5 266.982C316 230.482 272.5 248.482 177.5 211.982C82.5 175.482 137 69.4818 73 21.9818Z" stroke="url(#paint0_linear_192_6069)"/>
<defs>
<linearGradient id="paint0_linear_192_6069" x1="936" y1="370.747" x2="-70.2057" y2="370.747" gradientUnits="userSpaceOnUse">
<stop stop-color="#5438CD"/>
<stop offset="0.648958" stop-color="#2D3A96"/>
</linearGradient>
</defs>
</svg>
