<svg width="276" height="230" viewBox="0 0 276 230" fill="none" xmlns="http://www.w3.org/2000/svg">
<path d="M29.4427 47.1389C29.7463 47.3904 57.5385 23.6246 57.6903 23.7399C58.0318 24.0228 14.7686 68.9454 15.1228 69.2283C15.515 69.5531 84.4705 10.4527 85.2675 11.1233C86.0897 11.8044 5.66055 85.8792 6.77375 86.8013C7.72251 87.5872 106.355 3.48411 106.861 3.89279C108.038 4.86732 4.58529 97.6575 5.2178 98.1814C5.98945 98.8206 119.752 1.83918 120.637 2.5727C121.94 3.65202 2.83958 108.251 4.05399 109.268C5.06599 110.106 131.529 0.937996 133.186 2.30024C134.375 3.28525 1.57457 119.191 2.91548 120.313C4.00339 121.214 142.787 2.15349 144.179 3.29568C145.355 4.27021 3.26968 128.685 4.39554 129.607C5.91355 130.865 154.375 1.73433 156.563 3.55765C158.182 4.89894 4.02869 138.797 4.93949 139.552C6.93821 141.207 164.495 3.51578 166.835 5.44389C168.619 6.9214 5.7238 146.845 7.14061 148.018C9.29112 149.8 176.184 5.11885 177.917 6.55445C180.333 8.5559 11.176 150.984 13.6427 153.027C15.2493 154.358 186.038 8.44079 187.113 9.33149C188.188 10.2222 12.4663 159.975 15.0975 162.154C17.3492 164.02 194.804 9.89725 196.854 11.5948C199.51 13.7954 18.4751 166.713 20.2587 168.19C21.6249 169.322 201.256 14.9585 203.255 16.6037C205.317 18.3118 23.067 173.891 24.5977 175.148C26.4193 176.657 209.301 18.4061 211.553 20.2818C214.096 22.388 29.0758 178.491 31.1251 180.189C33.4148 182.085 218.017 22.3251 219.852 23.855C221.256 25.0181 34.4901 184.349 36.5394 186.046C38.3104 187.513 223.027 28.3505 224.962 29.9642C227.315 31.9133 38.1459 190.196 40.9922 192.564C43.459 194.607 231.009 32.7831 232.438 33.9777C233.868 35.1618 47.1781 194.523 49.2527 196.242C50.9984 197.688 236.512 36.7441 239.156 38.9341C240.193 39.7934 52.1243 201.272 53.87 202.718C54.882 203.556 242.963 41.9624 245.443 44.0267C247.315 45.5776 61.5233 205.107 62.6744 206.071C64.8755 207.895 249.035 49.633 250.275 50.6704C252.742 52.7137 68.8097 209.246 70.2139 210.399C72.4276 212.233 254.576 55.6268 255.816 56.6537C257.422 57.9845 77.5636 211.552 79.3978 213.071C81.6116 214.905 258.611 61.4007 260.56 63.0039C262.482 64.5967 85.3181 216.298 86.7096 217.451C89.0498 219.39 262.786 69.5217 264.038 70.5591C266.53 72.6235 91.5925 219.924 93.7936 221.737C94.793 222.565 265.936 76.1024 267.77 77.6218C270.174 79.6128 104.103 221.632 105.166 222.502C107.519 224.451 267.77 84.0453 270.034 85.9315C271.388 87.0527 111.478 223.518 113.895 225.52C115.337 226.714 268.491 93.665 270.781 95.5617C272.653 97.1126 124.331 225.845 125.242 226.589C126.557 227.689 271.426 102.205 273.412 103.85C274.93 105.108 134.489 225.562 136.576 227.291C137.651 228.182 271.135 114.696 271.818 115.262C272.995 116.236 150.618 223.927 151.895 224.986C153.274 226.128 271.084 124.504 272.147 125.374C273.791 126.736 164.862 222.313 166.38 223.571C167.885 224.818 268.719 137.142 269.718 137.969C271.046 139.07 183.533 218.593 184.102 219.054C184.773 219.61 264.911 150.774 265.721 151.445C266.454 152.053 206.05 210.409 206.493 210.776C207.075 211.258 253.779 171.177 254.032 171.397" stroke="#FE9261" stroke-width="4" stroke-linecap="round" stroke-linejoin="round"/>
</svg>
