<svg width="948" height="559" viewBox="0 0 948 559" fill="none" xmlns="http://www.w3.org/2000/svg">
<path d="M37.5 84C-13.7 46 -75.1667 68.1666 -99.5 84L-26.5 634L460 802.5C606.833 763.5 900.5 668.7 900.5 601.5C900.5 517.5 800 517 756 499C712 481 677.5 522.5 632 517C586.5 511.5 613.5 484.5 502 455C390.5 425.5 445.5 365.5 363 329C280.5 292.5 237 310.5 142 274C47 237.5 101.5 131.5 37.5 84Z" fill="url(#paint0_linear_1877_30118)"/>
<path d="M62 52.9818C10.8 14.9818 -50.6667 37.1484 -75 52.9818L-2 602.982L484.5 771.482C631.333 732.482 925 637.682 925 570.482C925 486.482 824.5 485.982 780.5 467.982C736.5 449.982 702 491.482 656.5 485.982C611 480.482 638 453.482 526.5 423.982C415 394.482 470 334.482 387.5 297.982C305 261.482 261.5 279.482 166.5 242.982C71.5 206.482 126 100.482 62 52.9818Z" stroke="url(#paint1_linear_1877_30118)"/>
<path d="M73 36.9818C21.8 -1.01824 -39.6667 21.1484 -64 36.9818L9 586.982L495.5 755.482C642.333 716.482 936 621.682 936 554.482C936 470.482 835.5 469.982 791.5 451.982C747.5 433.982 713 475.482 667.5 469.982C622 464.482 649 437.482 537.5 407.982C426 378.482 481 318.482 398.5 281.982C316 245.482 272.5 263.482 177.5 226.982C82.5 190.482 137 84.4818 73 36.9818Z" stroke="url(#paint2_linear_1877_30118)"/>
<path d="M84 21.9818C32.8 -16.0182 -28.6667 6.14843 -53 21.9818L20 571.982L506.5 740.482C653.333 701.482 947 606.682 947 539.482C947 455.482 846.5 454.982 802.5 436.982C758.5 418.982 724 460.482 678.5 454.982C633 449.482 660 422.482 548.5 392.982C437 363.482 492 303.482 409.5 266.982C327 230.482 283.5 248.482 188.5 211.982C93.5 175.482 148 69.4818 84 21.9818Z" stroke="url(#paint3_linear_1877_30118)"/>
<defs>
<linearGradient id="paint0_linear_1877_30118" x1="900.5" y1="432.765" x2="-105.706" y2="432.765" gradientUnits="userSpaceOnUse">
<stop stop-color="#5438CD"/>
<stop offset="0.648958" stop-color="#2D3A96"/>
</linearGradient>
<linearGradient id="paint1_linear_1877_30118" x1="925" y1="401.747" x2="-81.2057" y2="401.747" gradientUnits="userSpaceOnUse">
<stop stop-color="#5438CD"/>
<stop offset="0.648958" stop-color="#2D3A96"/>
</linearGradient>
<linearGradient id="paint2_linear_1877_30118" x1="936" y1="385.747" x2="-70.2057" y2="385.747" gradientUnits="userSpaceOnUse">
<stop stop-color="#5438CD"/>
<stop offset="0.648958" stop-color="#2D3A96"/>
</linearGradient>
<linearGradient id="paint3_linear_1877_30118" x1="947" y1="370.747" x2="-59.2057" y2="370.747" gradientUnits="userSpaceOnUse">
<stop stop-color="#5438CD"/>
<stop offset="0.648958" stop-color="#2D3A96"/>
</linearGradient>
</defs>
</svg>
