<svg id="Groupe_247" data-name="Groupe 247" xmlns="http://www.w3.org/2000/svg" xmlns:xlink="http://www.w3.org/1999/xlink" width="748" height="534.198" viewBox="0 0 748 534.198">
  <defs>
    <clipPath id="clip-path">
      <path id="path14" d="M0-480H748V52.973H0Z" transform="translate(0 480)"/>
    </clipPath>
    <filter id="squircle_1_" x="212" y="115.822" width="96.753" height="96.753" filterUnits="userSpaceOnUse">
      <feOffset dy="10" input="SourceAlpha"/>
      <feGaussianBlur stdDeviation="10" result="blur"/>
      <feFlood flood-color="#ff7d48" flood-opacity="0.4"/>
      <feComposite operator="in" in2="blur"/>
      <feComposite in="SourceGraphic"/>
    </filter>
    <clipPath id="clip-path-6">
      <path id="path238" d="M117.361-183.247H670.7V-96.47H117.361Z" transform="translate(-117.361 183.247)"/>
    </clipPath>
    <clipPath id="clip-path-7">
      <path id="path296" d="M91.744-141.447h15.7v26.012h-15.7Z" transform="translate(-91.744 141.447)"/>
    </clipPath>
    <clipPath id="clip-path-9">
      <path id="path444" d="M130.891-281.892h29.543v45.223H130.891Z" transform="translate(-130.891 281.892)"/>
    </clipPath>
    <clipPath id="clip-path-10">
      <path id="path528" d="M76.657-127.748H91.3v3.5H76.657Z" transform="translate(-76.657 127.748)"/>
    </clipPath>
  </defs>
  <g id="g8">
    <g id="g10">
      <g id="g12" clip-path="url(#clip-path)">
        <g id="g18" transform="translate(667.164 189.816)">
          <path id="path20" d="M.654.064A15.1,15.1,0,0,1,4.123,10.771,26.819,26.819,0,0,1,.891,21.792C-2.5,28.377-8.849,33.736-14.924,37.518c-3.49-7.466-1.337-16.87.035-21.567C-12.719,8.525-4.581-3.485.654.064" transform="translate(16.815 0.577)" fill="#ebebeb"/>
        </g>
        <g id="g22" transform="translate(670.996 231.952)">
          <path id="path24" d="M0,1.007A12.123,12.123,0,0,1,7.626-8.331a14.452,14.452,0,0,1,11.807,1.1c1.677.9,3.34,2.263,3.745,4.222a5.467,5.467,0,0,1-1.832,4.98,9.672,9.672,0,0,1-4.815,2.1C10.6,5.168,4.674,5.059,0,1.007" transform="translate(0 9.129)" fill="#ebebeb"/>
        </g>
        <g id="g26" transform="translate(655.872 238.776)">
          <path id="path28" d="M0,2.129A8.8,8.8,0,0,1,.739.8L2.871-2.749c1.834-2.94,4.372-7.193,8.415-10.625a24.061,24.061,0,0,1,11.82-5.731,15.808,15.808,0,0,1,3.964-.113,9.742,9.742,0,0,1,1.067.162c.241.048.367.082.365.1a24.8,24.8,0,0,0-5.342.231A24.89,24.89,0,0,0,11.605-12.95C7.642-9.589,5.081-5.422,3.171-2.534,2.223-1.072,1.455.113.9.916A8.084,8.084,0,0,1,0,2.129" transform="translate(0.002 19.294)" fill="#e0e0e0"/>
        </g>
        <g id="g30" transform="translate(655.422 200.188)">
          <path id="path32" d="M.89,0A3.253,3.253,0,0,1,.718.648C.568,1.119.372,1.724.133,2.472c-.517,1.581-1.294,3.857-2.274,6.66C-4.1,14.74-6.911,22.447-10.193,30.88s-6.421,16-8.761,21.438c-1.169,2.719-2.132,4.912-2.816,6.418l-.8,1.729a3.018,3.018,0,0,1-.309.586,3.279,3.279,0,0,1,.216-.632l.71-1.772c.656-1.595,1.561-3.8,2.668-6.487,2.255-5.477,5.336-13.059,8.619-21.491S-4.523,14.564-2.477,8.994C-1.471,6.256-.649,4.02-.053,2.4.224,1.665.448,1.071.621.61A3.335,3.335,0,0,1,.89,0" transform="translate(22.879 0)" fill="#e0e0e0"/>
        </g>
        <g id="g34" transform="translate(645.429 213.802)">
          <path id="path36" d="M.544,2.818a30.325,30.325,0,0,0-6.123-25.56c-1.46-1.73-3.6-3.381-5.651-2.592s-2.718,3.537-2.759,5.869C-14.159-9.759-8.244-.255.2,3.329" transform="translate(13.992 25.537)" fill="#ebebeb"/>
        </g>
        <g id="g38" transform="translate(652.201 223.534)">
          <path id="path40" d="M0,0A7.286,7.286,0,0,1,.948,1.046,13.808,13.808,0,0,1,1.967,2.362C2.33,2.9,2.8,3.481,3.2,4.205A25.573,25.573,0,0,1,4.512,6.568,29.524,29.524,0,0,1,5.78,9.421a33.851,33.851,0,0,1,1.813,6.965,33.574,33.574,0,0,1,.18,7.23,29.008,29.008,0,0,1-.453,3.121A24.439,24.439,0,0,1,6.676,29.4a22.415,22.415,0,0,1-.714,2.133,13.3,13.3,0,0,1-.651,1.561,7.579,7.579,0,0,1-.654,1.277c-.106-.051.817-1.887,1.675-5.08A26.414,26.414,0,0,0,6.9,26.65a30.739,30.739,0,0,0,.4-3.078,34.92,34.92,0,0,0-.215-7.1A35.181,35.181,0,0,0,5.344,9.609,30.576,30.576,0,0,0,4.137,6.777C3.748,5.894,3.293,5.126,2.9,4.412,1.247,1.595-.085.077,0,0" transform="translate(0.004 0.001)" fill="#e0e0e0"/>
        </g>
        <g id="g42" transform="translate(60.725 123.404)">
          <path id="path44" d="M.156.061S-9.022,3.223-.121,24.25,15.122,55.785,15.122,55.785s1.529,4.855-2.258,5.406S.871,59.919-1.017,64.747c-1.96,5,1.291,9.984,8.123,14.55S28.564,94.458,29.883,95.42c1.295.946,2.535,3.232.011,4.05s-21.21,1.958-20.173,11.4,22.027,18.825,24.3,19.9,2.785,2.151,2.535,3.5-6.563,1.1-11.865,1.658-11.361,2.2-10.334,7.593,13.182,17.233,43.757,21.994l14.3,1.215,8.364-12.543c16.369-28.009,15.779-45.575,12.59-49.9s-8.275-.446-12.1,3.518-7.73,9.274-8.854,8.6-1.566-1.781-.86-4.331,7.58-25.729,1.509-32.68S54.1,86.947,51.886,88.476s-3.046-.96-2.883-2.628c.166-1.7,2.059-20.473,3.217-29s-.3-14.392-5.135-16.031c-4.667-1.581-8.669,6.29-11.511,9.021s-5.319-1.654-5.319-1.654S26.856,36.222,17.6,15.371-.027.139-.027.139" transform="translate(4.006 0.55)" fill="#ebebeb" opacity="0.49"/>
        </g>
        <g id="g46" transform="translate(72.827 142.861)">
          <path id="path48" d="M2.43,15.054C-4.311-.289-15.863-27.771-25.9-51.311s-19.13-44.829-25.8-60.206c-3.335-7.672-6.037-13.886-7.914-18.2-.927-2.135-1.649-3.8-2.148-4.95l-.549-1.293c-.122-.293-.174-.448-.174-.448s.08.141.214.426l.588,1.273,2.224,4.913c1.928,4.268,4.675,10.467,8.043,18.138,6.741,15.342,15.887,36.618,25.916,60.15S-3.951-.466,2.716,14.911" transform="translate(62.478 136.409)" fill="#e0e0e0"/>
        </g>
        <g id="g50" transform="translate(75.096 191.742)">
          <path id="path52" d="M0,0A4.468,4.468,0,0,1,.986.348C1.611.6,2.5.987,3.6,1.48c2.2.988,5.2,2.437,8.485,4.1l8.4,4.288,2.55,1.281a4.5,4.5,0,0,1,.921.512,4.462,4.462,0,0,1-.988-.34c-.624-.252-1.518-.641-2.613-1.146-2.188-1.013-5.172-2.5-8.457-4.165L3.477,1.787C2.462,1.285,1.606.861.918.518A4.523,4.523,0,0,1,0,0" transform="translate(0 0.004)" fill="#e0e0e0"/>
        </g>
        <g id="g54" transform="translate(100.073 172.524)">
          <path id="path56" d="M0,2.977c-.114-.051,2.409-6.8,5.632-15.067s5.929-14.936,6.044-14.886-2.409,6.8-5.633,15.069S.114,3.027,0,2.977" transform="translate(0.004 26.976)" fill="#e0e0e0"/>
        </g>
        <g id="g58" transform="translate(113.955 216.292)">
          <path id="path60" d="M0,2.293a5.174,5.174,0,0,1,.623-.916C1.107.735,1.711-.068,2.43-1.02,3.951-3.045,6.043-5.852,8.243-9.038s4.113-6.138,5.475-8.288c.642-1.012,1.183-1.864,1.617-2.547a5.227,5.227,0,0,1,.636-.906,5.213,5.213,0,0,1-.49,1.005c-.34.63-.849,1.532-1.5,2.632-1.3,2.2-3.167,5.194-5.382,8.387S4.259-2.778,2.672-.8C1.874.179,1.222.967.755,1.5a5.043,5.043,0,0,1-.755.8" transform="translate(0.002 20.779)" fill="#e0e0e0"/>
        </g>
        <g id="g62" transform="translate(89.363 234.959)">
          <path id="path64" d="M0,0A3.945,3.945,0,0,1,.977.069Q2.056.214,3.618.426c2.228.324,5.3.8,8.689,1.359s6.455,1.089,8.67,1.5l2.619.507a3.9,3.9,0,0,1,.951.252,3.945,3.945,0,0,1-.977-.067l-2.642-.358c-2.227-.323-5.3-.8-8.689-1.359S5.786,1.167,3.571.759L.951.252A3.872,3.872,0,0,1,0,0" transform="translate(0 0.012)" fill="#e0e0e0"/>
        </g>
        <g id="g66" transform="translate(97.746 269.189)">
          <path id="path68" d="M0,0A6.268,6.268,0,0,1,1.251.1L4.637.545c2.856.4,6.8.977,11.148,1.648s8.286,1.3,11.131,1.784l3.366.6a6.351,6.351,0,0,1,1.225.282,6.364,6.364,0,0,1-1.25-.1l-3.386-.446c-2.856-.4-6.8-.976-11.15-1.647S7.437,1.36,4.592.878L1.226.284A6.509,6.509,0,0,1,0,0" transform="translate(0 0.011)" fill="#e0e0e0"/>
        </g>
        <g id="g70" transform="translate(128.529 243.854)">
          <path id="path72" d="M0,2.968A8.222,8.222,0,0,1,.762,1.785L2.95-1.341c1.843-2.642,4.377-6.3,7.067-10.425s5.047-7.919,6.729-10.682c.81-1.326,1.481-2.427,2-3.27a8.27,8.27,0,0,1,.775-1.171,8.576,8.576,0,0,1-.627,1.27c-.429.8-1.066,1.949-1.877,3.352-1.616,2.811-3.927,6.646-6.629,10.775S5.109-3.729,3.2-1.136C2.241.157,1.456,1.2.9,1.9A8.231,8.231,0,0,1,0,2.968" transform="translate(0.001 26.89)" fill="#e0e0e0"/>
        </g>
        <g id="g74" transform="translate(322.444 66.083)">
          <path id="path76" d="M1.462,18.292C-24.09,4.548-33.7-26.8-36.7-55.861c-.5-4.849-1.684-9.861-.11-14.429s6.2-8.233,10.515-6.824c3.582,1.168,5.607,5.112,7.951,8.27A26.8,26.8,0,0,0-6.288-59.668C-3.2-58.518.492-58.093,3.1-60.2c3.584-2.9,3.265-8.72,2.589-13.517Q3.8-87.13,1.906-100.537C1.229-105.332.552-110.231,1.333-115s3.3-9.481,7.394-11.421,9.74-.121,11.277,4.438c.639,1.9.543,3.985.935,5.958s1.562,4.043,3.407,4.325c1.869.287,3.482-1.353,4.635-2.964,3.98-5.563,6.282-12.293,8.382-18.957s4.094-13.46,7.586-19.4,8.742-11.025,15.122-12.408,13.806,1.8,16.344,8.3c2.546,6.515-.219,13.953-3.5,20.052a107.569,107.569,0,0,1-18,24.491c-1.271,1.293-2.649,2.69-2.949,4.552-.543,3.351,2.725,6.091,5.822,6.687,3.51.675,7.092-.259,10.653-.359s7.58.965,9.382,4.3c2.5,4.622-.64,10.358-3.961,14.309a87.923,87.923,0,0,1-23.3,19.608c-3.129,1.8-6.452,3.474-8.781,6.366S38.434-49.672,40.5-46.54s6.346,3.579,9.714,2.358,6.193-3.706,9.311-5.546c5.834-3.443,13.867-4.22,18.591.87,3.106,3.347,4.04,8.53,3.33,13.2s-2.854,8.93-5.205,12.915C68.029-8.81,56.716,3.133,43.116,10.651s-26.673,11-41.654,7.641" transform="translate(37.596 165.748)" fill="#bcbcbc" opacity="0.5"/>
        </g>
        <g id="g78" transform="translate(366.034 69.118)">
          <path id="path80" d="M0,16.082A460.936,460.936,0,0,1,9.711-32.7q1.6-6.4,3.161-12.646C13.918-49.49,14.955-53.6,16.2-57.559a225.879,225.879,0,0,1,8.385-22.3c2.988-6.954,6.061-13.436,8.975-19.475s5.757-11.6,8.536-16.564a172.589,172.589,0,0,1,14.734-22.334c1.927-2.483,3.48-4.355,4.549-5.61.516-.6.92-1.066,1.223-1.419a3.637,3.637,0,0,1,.439-.462,3.429,3.429,0,0,1-.374.524c-.289.367-.674.855-1.162,1.476-1.026,1.293-2.538,3.2-4.425,5.713A182.955,182.955,0,0,0,42.6-115.564c-2.74,4.965-5.531,10.539-8.426,16.58S28.245-86.45,25.284-79.5a228.489,228.489,0,0,0-8.307,22.228c-1.235,3.937-2.259,8.015-3.305,12.174L10.518-32.463A472.275,472.275,0,0,0,.759,16.2" transform="translate(0 145.719)" fill="#e0e0e0"/>
        </g>
        <g id="g82" transform="translate(368.758 105.408)">
          <path id="path84" d="M.513,5.148A10.262,10.262,0,0,1-.2,3.169C-.618,1.878-1.161-.009-1.8-2.351-3.081-7.032-4.644-13.562-6.342-20.767s-3.344-13.7-4.688-18.344c-.666-2.326-1.223-4.2-1.624-5.494a10.263,10.263,0,0,1-.533-2.046,9.909,9.909,0,0,1,.837,1.924c.5,1.259,1.14,3.109,1.879,5.418,1.494,4.614,3.237,11.1,4.937,18.318,1.659,7.115,3.159,13.552,4.3,18.471C-.7-.3-.251,1.569.109,3.069a10.262,10.262,0,0,1,.4,2.08" transform="translate(13.196 46.651)" fill="#e0e0e0"/>
        </g>
        <g id="g86" transform="translate(382.467 136.734)">
          <path id="path88" d="M2.1,0A11.968,11.968,0,0,1-.161.652c-1.462.371-3.58.893-6.178,1.629-5.207,1.427-12.334,3.668-20.1,6.508-7.761,2.856-14.68,5.759-19.628,8.014-2.482,1.11-4.468,2.065-5.844,2.716a12.069,12.069,0,0,1-2.174.939A12.3,12.3,0,0,1-52.047,19.2c1.336-.749,3.29-1.8,5.75-2.985A212.612,212.612,0,0,1-26.7,7.932,195.881,195.881,0,0,1-6.48,1.661C-3.856,1-1.711.572-.223.309A11.515,11.515,0,0,1,2.1,0" transform="translate(54.081 0.015)" fill="#e0e0e0"/>
        </g>
        <g id="g90" transform="translate(326.854 155.342)">
          <path id="path92" d="M1.487,7.388A3.16,3.16,0,0,1,.99,6.7L-.3,4.616C-1.412,2.8-2.958.138-4.827-3.183c-3.742-6.64-8.641-15.985-13.916-26.375s-10.09-19.776-13.7-26.49c-1.763-3.262-3.215-5.945-4.294-7.939-.464-.867-.845-1.581-1.158-2.168a3.321,3.321,0,0,1-.355-.788,3.247,3.247,0,0,1,.5.692c.348.563.774,1.248,1.289,2.08,1.112,1.811,2.658,4.478,4.527,7.8,3.742,6.64,8.641,15.986,13.919,26.38S-7.925-10.22-4.319-3.506C-2.554-.246-1.1,2.439-.025,4.432.438,5.3.819,6.014,1.132,6.6a3.425,3.425,0,0,1,.355.789" transform="translate(38.249 66.943)" fill="#e0e0e0"/>
        </g>
        <g id="g94" transform="translate(366.59 191.382)">
          <path id="path96" d="M2.739,0a3.143,3.143,0,0,1-.717.453L-.1,1.6C-2.061,2.628-4.709,4.02-7.93,5.712c-6.613,3.477-15.694,8.39-25.721,13.835S-52.815,29.822-59.5,33.154c-3.34,1.667-6.056,2.986-7.95,3.857-.876.4-1.6.722-2.186.989a2.888,2.888,0,0,1-.786.288,3.108,3.108,0,0,1,.716-.454l2.12-1.142,7.831-4.115c6.612-3.476,15.7-8.391,25.725-13.837s19.16-10.275,25.841-13.6c3.34-1.667,6.056-2.987,7.952-3.858.875-.4,1.6-.724,2.185-.988A2.929,2.929,0,0,1,2.739,0" transform="translate(70.419 0.004)" fill="#e0e0e0"/>
        </g>
        <g id="g98" transform="translate(520.504 96.267)">
          <path id="path100" d="M1.116,3.765C-10.6,11.047-22.476-2.414-16.054-15.7a10.183,10.183,0,0,1,3.721-4.219C-.613-27.2,11.263-13.737,4.837-.454A10.176,10.176,0,0,1,1.116,3.765M17.494-11.37c0-17.391-17.1-28.409-34.528-19.691a20.452,20.452,0,0,0-9.172,9.4c-4.385,9.08-2.449,19.448,1.529,28.057L-11.113,43.14A5.717,5.717,0,0,0-.22,43.091l13.3-36.939c4.6-11.25,4.412-17.521,4.412-17.521" transform="translate(28.709 34.112)" fill="#f5f5f5"/>
        </g>
      </g>
    </g>
    <g id="g102" transform="translate(0 1.225)">
      <g id="g104" clip-path="url(#clip-path)">
        <g id="g110" transform="translate(134.742 56.505)">
          <path id="path112" d="M18.715,18.663C30.2-27.185,19.649-78.688-8.71-115.211s-73.775-57.1-118.053-53.491-86.248,31.316-109.093,72.017c-7.716,13.748-13.583,29.135-24.579,40.039C-275.309-41.9-297.011-38-317.293-38.508s-40.486-4.72-60.733-3.347c-35.9,2.434-70.613,23.871-89.021,56.9s-19.229,76.907-.584,109.783c15.306,26.99,41.873,45.055,70.006,54.644s58,11.511,87.521,12.326c65.424,1.807,132.368-1.788,193.347-27.188S-1.046,88.911,18.172,22.047" transform="translate(481.238 169.111)" fill="rgba(224,224,224,0.31)"/>
        </g>
        <g id="g114" transform="translate(106.652 25.53)" opacity="0.4">
          <path id="path116" d="M.2,2.838c8.966-18.152,26.92-30.565,47.549-28.289,8.788-.559,24.694,5.694,34.883,17.93S96.993,22.765,93.014,38.585c-4.986,19.822-15.8,33.968-34.389,39.144s-39.768-1.619-52.2-17.264S-8.769,20.99.2,2.838" transform="translate(5.065 25.719)" fill="#e0e0e0"/>
        </g>
      </g>
    </g>
    <g id="g118">
      <g id="g120" clip-path="url(#clip-path)">
        <g id="g126" transform="translate(39.93 473.091)">
          <path id="path128" d="M25.011.028c0,.153-149.58.278-334.054.278C-493.582.306-643.13.181-643.13.028s149.548-.278,334.087-.278c184.474,0,334.054.125,334.054.278" transform="translate(643.13 0.251)" fill="#263238"/>
        </g>
      </g>
    </g>
    <g id="g130">
      <g id="g132" clip-path="url(#clip-path)">
        <g id="g138" transform="translate(161.988 55.776)">
          <path id="path140" d="M6.038,41.505l-132.566-.656c-15.944-.078-28.812-13.953-28.744-30.993l1.405-355.21c.067-17.05,13.057-30.812,29.009-30.733l132.567.655c15.944.079,28.811,13.953,28.744,30.994L35.049,10.772c-.068,17.05-13.057,30.811-29.01,30.733" transform="translate(155.272 376.088)" fill="#455a64"/>
        </g>
        <g id="g142" transform="translate(170.792 68.037)">
          <path id="path144" d="M5.764.065l-25.7-.127c-3.447-.016-6.254,3.092-6.268,6.944l-.021,4.982c-.014,3.851-2.821,6.96-6.267,6.943l-50.1-.247c-3.447-.017-6.228-3.153-6.213-7l.02-4.983c.015-3.85-2.768-6.987-6.214-7l-9.04-.045-22.495-.111c-11.172-.055-20.27,9.582-20.317,21.524l-1.371,346.711c-.048,11.935,8.963,21.653,20.13,21.708l132.3.652c11.171.055,20.269-9.583,20.317-21.524L25.894,21.772C25.941,9.837,16.93.12,5.764.065" transform="translate(148.225 0.588)" fill="#fafafa"/>
        </g>
        <g id="g170" transform="translate(290.205 131.914)">
          <path id="path172" d="M0,8.54S42-24.376,28.421-77.38H54.542L54.225,72.232Z" transform="translate(0 77.38)" fill="#ebebeb"/>
        </g>
        <g id="g174" transform="translate(262.017 226.47)">
          <path id="path176" d="M.76,0-19.553,22.666,42.728,89.231,61.776,67.657Z" transform="translate(19.553)" fill="#ebebeb"/>
        </g>
        <g id="g178" transform="translate(221.612 255.339)">
          <path id="path180" d="M1.195,0-30.727,33.88l63.843,67.758L64.978,68.713Z" transform="translate(30.727)" fill="#ebebeb"/>
        </g>
        <g id="g182" transform="translate(236.801 370.998)">
          <path id="path184" d="M0,5.374,48.8-48.7,95.23,1.886Z" transform="translate(0 48.696)" fill="#ebebeb"/>
        </g>
        <g id="g186" transform="translate(293.219 310.208)">
          <path id="path188" d="M0,5.349,50.822-48.465c0,2.39-.441,111.619-.441,111.619Z" transform="translate(0 48.465)" fill="#ebebeb"/>
        </g>
        <g id="g190" transform="translate(195.304 333.789)">
          <path id="path192" d="M2.036,0,30.867,30.813-26.053,93.6l-26.309-33.72Z" transform="translate(52.361)" fill="#ebebeb"/>
        </g>
        <g id="g198" transform="translate(170.791 398.048)">
          <path id="path200" d="M0,1.581l16.788-15.9L40.032,15.024H0V3.8" transform="translate(0 14.321)" fill="#ebebeb"/>
        </g>
        <g id="g202" transform="translate(187.533 100.376)">
          <path id="path204" d="M.187.961A42.939,42.939,0,0,1-4.794-3.67l0,0c0-.808,0-.225,0-.406l0,0,.008-.009.015-.015.031-.032.062-.062.124-.124.245-.244.48-.476q.467-.457.913-.894l1.566-1.491A7.33,7.33,0,0,1,.187-8.7,7.642,7.642,0,0,1-1.1-7.143L-2.585-5.565l-.893.919-.474.482-.244.246-.123.125-.062.062-.031.031-.016.016-.008.007,0,0c0-.18,0,.405,0-.4l0,0A43.964,43.964,0,0,1,.187.961" transform="translate(4.796 8.704)" fill="#263238"/>
        </g>
        <g id="g206" transform="translate(328.206 100.753)">
          <path id="path208" d="M.081.115A1.12,1.12,0,0,1-1,1.27,1.12,1.12,0,0,1-2.082.115,1.121,1.121,0,0,1-1-1.042,1.121,1.121,0,0,1,.081.115" transform="translate(2.082 1.042)" fill="#263238"/>
        </g>
        <g id="g210" transform="translate(328.206 104.731)">
          <path id="path212" d="M.069.034a1.215,1.215,0,0,1,0,1.635,1.033,1.033,0,0,1-1.53,0,1.212,1.212,0,0,1,0-1.635,1.034,1.034,0,0,1,1.53,0" transform="translate(1.778 0.305)" fill="#263238"/>
        </g>
        <g id="g214" transform="translate(328.206 108.708)">
          <path id="path216" d="M.081.115A1.12,1.12,0,0,1-1,1.27,1.12,1.12,0,0,1-2.082.115,1.121,1.121,0,0,1-1-1.042,1.121,1.121,0,0,1,.081.115" transform="translate(2.082 1.042)" fill="#263238"/>
        </g>
        <path id="path218" d="M274.755-379.813H228.1v-4.154h46.651Z" transform="translate(8.871 490.598)" fill="#263238"/>
        <g id="Groupe_76" data-name="Groupe 76" transform="translate(-528 -1791.178)">
          <g transform="matrix(1, 0, 0, 1, 528, 1791.18)" filter="url(#squircle_1_)">
            <path id="squircle_1_2" data-name="squircle (1)" d="M0,18.377C0,4.594,4.594,0,18.377,0S36.753,4.594,36.753,18.377,32.159,36.753,18.377,36.753,0,32.159,0,18.377" transform="translate(242 135.82)" fill="#ff7d4b"/>
          </g>
          <g id="Groupe_58" data-name="Groupe 58" transform="translate(779.492 1933.53)">
            <g id="geo-alt" transform="translate(0 0)">
              <path id="Tracé_15" data-name="Tracé 15" d="M16.535,13.239a28.564,28.564,0,0,1-2.918,4.546,31.965,31.965,0,0,1-2.732,3.126,31.955,31.955,0,0,1-2.732-3.126A27.722,27.722,0,0,1,5.38,13.239,10.63,10.63,0,0,1,4.015,8.885c0-4.089,2.781-6.74,6.87-6.74s6.87,2.651,6.87,6.74a10.223,10.223,0,0,1-1.219,4.354Zm-5.65,10.455s8.885-8.42,8.885-14.808A8.885,8.885,0,1,0,2,8.885C2,15.273,10.885,23.693,10.885,23.693Z" transform="translate(-2)" fill="rgba(255,255,255,0.8)"/>
            </g>
          </g>
          <text id="GO" transform="translate(784.013 1942.705)" fill="rgba(249,249,252,0.8)" font-size="6" font-family="Poppins-Bold, Poppins" font-weight="700"><tspan x="0" y="0">GO</tspan></text>
          <line id="Ligne_14" data-name="Ligne 14" x2="5.98" transform="translate(778.52 1952.575)" fill="none" stroke="rgba(255,255,255,0.8)" stroke-linecap="round" stroke-width="2"/>
          <line id="Ligne_15" data-name="Ligne 15" x2="5.733" transform="translate(792.5 1952.284)" fill="none" stroke="rgba(255,255,255,0.8)" stroke-linecap="round" stroke-width="2"/>
        </g>
      </g>
    </g>
    <path id="path224" d="M670.7-102.056H117.361v-81.19H670.7Z" transform="translate(4.564 516.875)" fill="#2c4675"/>
    <g id="g226">
      <g id="g228" clip-path="url(#clip-path)">
        <g id="g234" transform="translate(121.925 329.503)">
          <g id="g246">
            <g id="g244" opacity="0.5" clip-path="url(#clip-path-6)">
              <path id="path242" d="M670.7-96.47H117.361v-86.775H670.7Z" transform="translate(-117.361 183.247)"/>
            </g>
          </g>
        </g>
        <g id="g248" transform="translate(142.921 358.675)">
          <path id="path250" d="M0,5.586C-.425,37.077,23.116,62.976,52.581,63.43s53.7-24.706,54.12-56.2S83.585-50.157,54.12-50.612.425-25.905,0,5.586" transform="translate(0.005 50.618)" fill="#263238"/>
        </g>
        <g id="g252" transform="translate(142.922 414.732)">
          <path id="path254" d="M0,0C0,.049-.008.1-.008.147-.434,31.638,23.108,57.537,52.572,57.99s53.7-24.705,54.12-56.2c0-.05,0-.1,0-.148Z" transform="translate(0.014)" fill="#263238"/>
        </g>
        <g id="g256" transform="translate(158.818 375.665)">
          <path id="path258" d="M0,3.922c-.3,22.109,16.229,40.291,36.915,40.61s37.7-17.346,38-39.456S58.682-35.215,38-35.534.3-18.188,0,3.922" transform="translate(0.004 35.538)" fill="#fafafa"/>
        </g>
        <g id="g260" transform="translate(158.822 375.665)">
          <path id="path262" d="M1.422,0c-20.687-.319-37.7,17.345-38,39.456l74.912,1.154C38.636,18.5,22.109.319,1.422,0" transform="translate(36.573 0.004)" fill="#e0e0e0"/>
        </g>
        <g id="g264" transform="translate(173.459 391.313)">
          <path id="path266" d="M0,2.389C-.181,15.858,9.887,26.932,22.486,27.126S45.451,16.561,45.632,3.093,35.746-21.45,23.145-21.645.182-11.079,0,2.389" transform="translate(0.002 21.647)" fill="#263238"/>
        </g>
        <g id="g268" transform="translate(550.931 358.675)">
          <path id="path270" d="M0,5.586C-.425,37.077,23.117,62.976,52.582,63.43s53.7-24.708,54.119-56.2S83.586-50.157,54.121-50.612.426-25.905,0,5.586" transform="translate(0.005 50.618)" fill="#263238"/>
        </g>
        <g id="g272" transform="translate(550.931 414.732)">
          <path id="path274" d="M0,0c0,.049-.009.1-.01.147C-.434,31.638,23.108,57.537,52.572,57.99s53.7-24.706,54.12-56.2c0-.05,0-.1,0-.148Z" transform="translate(0.015)" fill="#263238"/>
        </g>
        <g id="g276" transform="translate(566.829 375.665)">
          <path id="path278" d="M0,3.922c-.3,22.109,16.228,40.291,36.914,40.61s37.7-17.346,38-39.456S58.682-35.215,38-35.534.3-18.188,0,3.922" transform="translate(0.004 35.538)" fill="#fafafa"/>
        </g>
        <g id="g280" transform="translate(566.832 375.665)">
          <path id="path282" d="M1.422,0c-20.687-.319-37.7,17.345-38,39.456l74.912,1.154C38.636,18.5,22.109.319,1.422,0" transform="translate(36.573 0.004)" fill="#e0e0e0"/>
        </g>
        <g id="g284" transform="translate(581.469 391.313)">
          <path id="path286" d="M0,2.389C-.181,15.858,9.887,26.932,22.487,27.126S45.451,16.561,45.633,3.093,35.747-21.45,23.145-21.645.183-11.079,0,2.389" transform="translate(0.002 21.647)" fill="#263238"/>
        </g>
        <g id="g288" transform="translate(87.253 213.035)">
          <path id="path290" d="M6.7,6.724S-71.872,12.917-100.993,19.9c-20.524,4.92-60.1,13.41-59.624,40.022L-157.477,79a28.682,28.682,0,0,0-14.684,25.452c0,18.285-3.585,46.652,30.68,47.786,5.648.187,16.374,0,16.374,0s-6.578-78,60.468-80.283C3.569,69.629-.962,151.521-.962,151.521H283.7s-11.684-79.784,61.741-79.9S407.7,152.041,407.7,152.041s27.01,2.5,39.576-21.764,9.3-41.532,9.3-41.532l-.416-15.334a9.634,9.634,0,0,0-8.928-9.634s4.906-38.614-2.621-45.3-48.792-47-48.792-47l1.966-1.32a5.09,5.09,0,0,0-.955-8.864c-15.666-5.758-46.641-17.15-53.925-19.873a12.527,12.527,0,0,0-3.383-.759c-4.345-.357-16.651-1.191-39.238-1.448-27.517-.313-136.768,0-136.768,0s-37.6,3.3-58.544,13.159C82.942-37.267,6.7,6.724,6.7,6.724" transform="translate(172.268 60.925)" fill="#785b78"/>
        </g>
        <g id="g292" transform="translate(95.311 375.915)">
          <g id="g306">
            <g id="g304" opacity="0.4" clip-path="url(#clip-path-7)">
              <g id="g302" transform="translate(0 0)">
                <path id="path300" d="M.448.038C-2.4-.583-6.771-.642-8.943,1.423c-1.613,1.533-2.041,4.011-2.286,6.305a28.863,28.863,0,0,0,.2,9.453c.7,3.078,2.381,6.025,4.986,7.537A6.623,6.623,0,0,0,2.16,23.67c1.851-2.114,2.063-5.29,2.015-8.186-.069-4.112.24-7.6-.468-11.64A5.927,5.927,0,0,0,2.727,1.5,2.935,2.935,0,0,0,.448.038" transform="translate(11.52 0.341)"/>
              </g>
            </g>
          </g>
        </g>
        <g id="g308" transform="translate(98.905 331.449)">
          <path id="path310" d="M.117,2.138c8.341.019,16.431-.49,24.754-1.084A3.846,3.846,0,0,0,27.409.233a4.555,4.555,0,0,0,.869-3.246c.039-4.778-.183-10.207-3.573-13.321-2.071-1.9-4.915-2.493-7.634-2.767A46.373,46.373,0,0,0-3.021-16.939Z" transform="translate(3.021 19.369)" fill="#fafafa"/>
        </g>
        <g id="g312" transform="translate(115.474 324.798)">
          <path id="path314" d="M5.98,9.764S5.95,9.507,5.916,9c-.032-.521-.078-1.265-.138-2.237-.1-1.985-.249-4.88-.44-8.6s-.428-8.306-.93-13.59a113.456,113.456,0,0,0-2.94-17.728A83.534,83.534,0,0,0-6.564-53.147a61.62,61.62,0,0,0-15.52-18.5c-13.463-10.232-31.64-16.016-50.66-16.265-19.066-.242-37.179,6.2-50.3,16.927a76.794,76.794,0,0,0-16.331,17.809,86.59,86.59,0,0,0-9.558,19.218,82.7,82.7,0,0,0-4.036,17.45,78.31,78.31,0,0,0-.49,13.575,73.125,73.125,0,0,0,.977,8.533q.244,1.433.374,2.2c.081.5.11.756.11.756s-.063-.249-.162-.743c-.1-.513-.24-1.243-.425-2.2a68.481,68.481,0,0,1-1.076-8.539,77.345,77.345,0,0,1,.4-13.628,82.456,82.456,0,0,1,3.98-17.545,86.574,86.574,0,0,1,9.552-19.349A77.034,77.034,0,0,1-123.33-71.4c13.186-10.82,31.42-17.318,50.591-17.071,19.123.253,37.379,6.072,50.936,16.4A61.969,61.969,0,0,1-6.195-53.383,83.617,83.617,0,0,1,1.823-33.258,112.648,112.648,0,0,1,4.7-15.457c.475,5.3.678,9.872.843,13.609.148,3.727.263,6.623.342,8.61Q5.938,8.218,5.969,9c.017.505.012.764.012.764" transform="translate(153.784 88.476)" fill="#fff"/>
        </g>
        <g id="g316" transform="translate(275.722 223.319)">
          <path id="path318" d="M.095,19.982s-.018-.214-.034-.639S.025,18.281,0,17.454c-.049-1.678-.121-4.15-.213-7.368C-.389,3.621-.641-5.838-.961-17.865s-.682-26.647-1.111-43.387Q-2.231-67.533-2.4-74.2a46.874,46.874,0,0,1,.272-6.773q.227-1.7.456-3.431.328-1.708.66-3.438A72.547,72.547,0,0,1,3.427-101.5a69.419,69.419,0,0,1,7.306-12.974l.02-.027.034-.023,49.3-33.191q6.57-4.421,13.313-8.959a102.6,102.6,0,0,1,14.091-8.409,138.9,138.9,0,0,1,15.3-6.532c2.619-.981,5.3-1.786,7.985-2.64,2.713-.73,5.418-1.556,8.184-2.148a174.834,174.834,0,0,1,31.773-4.286,279.649,279.649,0,0,1,30.758.109l.293.017-.065.309c-4.719,22.561-9.168,43.834-13.248,63.333l-.008.038-.023.038a71.418,71.418,0,0,0-5.941,13.6,39.528,39.528,0,0,0-2.011,14.079c.338,4.68.459,9.259.57,13.7q.123,6.666.237,12.945c.23,16.733.288,31.331.332,43.357.012,12.021.022,21.472.028,27.932-.011,3.217-.019,5.687-.025,7.364-.008.826-.012,1.455-.016,1.888s-.019.64-.019.64-.012-.215-.017-.64-.011-1.062-.02-1.888c-.01-1.677-.024-4.147-.043-7.364-.036-6.459-.088-15.91-.153-27.93-.083-12.026-.178-26.623-.439-43.354q-.127-6.271-.26-12.938c-.12-4.442-.246-9-.59-13.677a39.99,39.99,0,0,1,2.013-14.257,71.735,71.735,0,0,1,5.973-13.718l-.031.078c4.063-19.5,8.5-40.78,13.2-63.344l.228.326a280.471,280.471,0,0,0-30.7-.1,174.722,174.722,0,0,0-31.686,4.28c-2.758.589-5.452,1.412-8.156,2.14-2.674.851-5.349,1.653-7.959,2.63a138.657,138.657,0,0,0-15.249,6.505,102.412,102.412,0,0,0-14.026,8.362l-13.319,8.955L11.028-114.117l.054-.05A69.15,69.15,0,0,0,3.82-101.305,72.288,72.288,0,0,0-.607-87.746C-2.851-78.611-1.719-69.6-1.7-61.253-1.313-44.513-.975-29.907-.7-17.87S-.22,3.618-.077,10.082c.064,3.22.112,5.692.146,7.371q.018,1.239.028,1.89c0,.424,0,.64,0,.64" transform="translate(2.443 181.063)" fill="#263238"/>
        </g>
        <g id="g320" transform="translate(459.319 223.754)">
          <path id="path322" d="M0,.183S.158.163.467.149L1.838.1,7.132-.036,26.769-.451,92.977-1.658l.125,0,.079.1c2.972,3.89,6.1,7.981,9.275,12.14,9.4,12.315,18.35,24.045,26.493,34.717l3.012,3.951a22.912,22.912,0,0,1,2.477,4.248,23.536,23.536,0,0,1,.376,18Q133.239,75.411,131.8,79l-9.153,22.635c-1.085,2.651-1.93,4.718-2.513,6.143q-.429,1.025-.665,1.591c-.153.358-.243.535-.243.535s.058-.193.194-.556l.617-1.614,2.424-6.185,9-22.706c1.718-4.818,4.737-9.888,4.531-16.069a23.03,23.03,0,0,0-1.963-9.071,22.42,22.42,0,0,0-2.434-4.147l-3.02-3.945c-8.152-10.662-17.112-22.382-26.52-34.685L92.782-1.209l.2.1L26.775-.084,7.135.162,1.84.2.468.2C.158.2,0,.183,0,.183" transform="translate(0 1.66)" fill="#263238"/>
        </g>
        <g id="g324" transform="translate(398.122 307.325)">
          <path id="path326" d="M1.04,1.229c0-.03.279-.026.794-.125A5.289,5.289,0,0,0,3.93.212,5.683,5.683,0,0,0,6.063-2.754,6.779,6.779,0,0,0,6.336-5.1a6.068,6.068,0,0,0-.619-2.535,5.258,5.258,0,0,0-4.593-2.991c-2.107.007-4.357.014-6.722.02l-15.411.022a5.044,5.044,0,0,0-3.512,1.462,5.718,5.718,0,0,0-1.668,3.489,6.593,6.593,0,0,0,.638,3.763A5.4,5.4,0,0,0-23,.552a7.526,7.526,0,0,0,3.318.433L-16.418,1l5.86.034,8.486.087c.963.022,1.73.041,2.306.052a4.466,4.466,0,0,1,.8.056,4.225,4.225,0,0,1-.8.056l-2.306.052c-2.057.021-4.943.05-8.486.088l-5.86.033-3.264.014c-.568-.006-1.116.026-1.723-.015a5.385,5.385,0,0,1-1.776-.432,5.891,5.891,0,0,1-2.8-2.635A7.192,7.192,0,0,1-26.7-5.692,6.281,6.281,0,0,1-24.87-9.529a5.54,5.54,0,0,1,3.861-1.61l15.411.022,6.729.03A5.651,5.651,0,0,1,6.042-7.817a6.455,6.455,0,0,1,.623,2.712,7.066,7.066,0,0,1-.328,2.452A5.84,5.84,0,0,1,4.04.395a5.062,5.062,0,0,1-2.191.821,3.03,3.03,0,0,1-.809.014" transform="translate(26.735 11.139)" fill="#263238"/>
        </g>
        <g id="g328" transform="translate(545.658 307.325)">
          <path id="path330" d="M1.04,1.229c0-.03.278-.026.793-.125a5.278,5.278,0,0,0,2.1-.892A5.677,5.677,0,0,0,6.062-2.754,6.755,6.755,0,0,0,6.336-5.1a6.084,6.084,0,0,0-.619-2.535,5.259,5.259,0,0,0-4.593-2.991c-2.108.007-4.357.014-6.722.02l-15.411.022a5.048,5.048,0,0,0-3.513,1.462,5.724,5.724,0,0,0-1.668,3.489,6.61,6.61,0,0,0,.638,3.763A5.406,5.406,0,0,0-23,.552a7.52,7.52,0,0,0,3.317.433L-16.418,1l5.86.034,8.485.087q1.445.034,2.307.052a4.479,4.479,0,0,1,.8.056,4.237,4.237,0,0,1-.8.056l-2.307.052c-2.057.021-4.942.05-8.485.088l-5.86.033-3.265.014c-.568-.006-1.115.026-1.723-.015a5.385,5.385,0,0,1-1.775-.432,5.9,5.9,0,0,1-2.8-2.635A7.183,7.183,0,0,1-26.7-5.692,6.275,6.275,0,0,1-24.87-9.529a5.538,5.538,0,0,1,3.861-1.61l15.411.022,6.729.03A5.651,5.651,0,0,1,6.042-7.817a6.455,6.455,0,0,1,.623,2.712,7.066,7.066,0,0,1-.328,2.452A5.84,5.84,0,0,1,4.04.395a5.066,5.066,0,0,1-2.191.821,3.03,3.03,0,0,1-.809.014" transform="translate(26.735 11.139)" fill="#263238"/>
        </g>
        <g id="g332" transform="translate(662.398 293.962)">
          <path id="path334" d="M1.513,0H-28.009a10.826,10.826,0,0,0-9.642,6.224,12.371,12.371,0,0,0-.328,10.11L-26.4,44.44l29.559-.31S9.444,8.5,1.513,0" transform="translate(38.903)" fill="#fafafa"/>
        </g>
        <g id="g336" transform="translate(292.813 222.464)">
          <path id="path338" d="M0,6.711l152.326-3,99.137-1.944L284.153-18.4a5.643,5.643,0,0,0,1.5-7.98L265.308-54.962a11.093,11.093,0,0,0-8.92-4.772L145.507-60.7S103.753-63.292,70.86-43.606C36.236-22.884,0,6.711,0,6.711" transform="translate(0 60.811)" fill="#263238"/>
        </g>
        <g id="g340" transform="translate(265.408 225.529)">
          <path id="path342" d="M3.639,0s7.635,3.722,2.666,7.17S-75.837,62.619-75.837,62.619l-17.741-8.582C-62.153,35.324-30.412,17.152,3.639,0" transform="translate(93.578)" fill="#455a64"/>
        </g>
        <g id="g344" transform="translate(100.367 289.447)">
          <path id="path346" d="M6.935,0s-.159.053-.475.13L5.055.457c-1.261.277-3.081.68-5.413,1.2-4.708,1-11.53,2.407-19.991,3.96-16.917,3.111-40.412,6.739-66.515,9.151-6.528.607-12.907,1.1-19.07,1.537s-12.106.833-17.753,1.386c-11.293,1.051-21.411,2.809-29.628,5.424a80.966,80.966,0,0,0-18.68,8.328c-2.123,1.2-3.634,2.366-4.709,3.074l-1.214.823c-.275.183-.423.265-.423.265s.128-.113.393-.312c.285-.208.679-.5,1.186-.869a55.389,55.389,0,0,1,4.667-3.169,79.1,79.1,0,0,1,18.677-8.518c8.234-2.671,18.38-4.475,29.688-5.557,5.654-.567,11.6-.979,17.763-1.418s12.535-.942,19.058-1.548c26.087-2.411,49.574-5.974,66.5-8.986C-11.944,3.723-5.115,2.377-.4,1.442L5.036.346,6.45.074C6.769.016,6.935,0,6.935,0" transform="translate(178.339)" fill="#263238"/>
        </g>
        <g id="g348" transform="translate(669.259 362.073)">
          <path id="path350" d="M1.7.028C1.7.181-8.455.306-20.976.306S-43.653.181-43.653.028-33.5-.251-20.976-.251,1.7-.126,1.7.028" transform="translate(43.653 0.251)" fill="#263238"/>
        </g>
        <g id="g352" transform="translate(272.887 389.766)">
          <path id="path354" d="M9.583.028c0,.155-57.31.278-127.989.278-70.7,0-128-.124-128-.278s57.3-.277,128-.277C-47.727-.25,9.583-.126,9.583.028" transform="translate(246.408 0.25)" fill="#263238"/>
        </g>
        <g id="g356" transform="translate(91.411 362.99)">
          <path id="path358" d="M1.355.028c0,.153-8.1.277-18.1.277s-18.1-.124-18.1-.277,8.1-.278,18.1-.278,18.1.125,18.1.278" transform="translate(34.841 0.251)" fill="#263238"/>
        </g>
        <g id="g360" transform="translate(649.771 244.322)">
          <path id="path362" d="M.178,0s-6.8,8.138-4.128,14.112,30.3,26.877,30.3,26.877L46.41,45.012Z" transform="translate(4.572)" fill="#455a64"/>
        </g>
        <g id="g364" transform="translate(459.32 229.757)">
          <path id="path366" d="M.169,0-4.343,52.053l80.7-2.458,32.528-20.208L87.83,0Z" transform="translate(4.343)" fill="#455a64"/>
        </g>
        <g id="g368" transform="translate(311.927 229.65)">
          <path id="path370" d="M0,5.449S48.685-32.132,67.9-39.6c18.539-7.209,28.2-9.016,45.619-9.544,16.645-.506,26.787-.016,26.787-.016L127.437,3.759Z" transform="translate(0 49.377)" fill="#455a64"/>
        </g>
        <g id="g372" transform="translate(304.801 267.063)">
          <path id="path374" d="M0,1.748H0A9.242,9.242,0,0,1,4.353-6.2l11.184-6.715a20.253,20.253,0,0,1,10.443-2.921,20.081,20.081,0,0,1,6.64,1.133c4.779,1.676,7.962,6.526,8.153,11.9.265,7.464-5.325,13.672-12.314,13.672H8.532C3.82,10.867,0,6.784,0,1.748" transform="translate(0 15.838)" fill="#754c75"/>
        </g>
        <g id="g376" transform="translate(304.784 266.807)">
          <path id="path378" d="M0,1.773c.028,0,.033.4.129,1.155a9.7,9.7,0,0,0,.982,3.122A9.039,9.039,0,0,0,4.541,9.658a8.073,8.073,0,0,0,2.877.969,31.362,31.362,0,0,0,3.439.069l17.06-.061a12.219,12.219,0,0,0,4.749-.83,12.03,12.03,0,0,0,4.218-2.866,12.931,12.931,0,0,0,2.847-4.62,14.015,14.015,0,0,0,.744-5.638,13.135,13.135,0,0,0-5.033-9.543,12.405,12.405,0,0,0-4.623-2.083,19.922,19.922,0,0,0-4.831-.612,20.044,20.044,0,0,0-8.754,2.005c-1.288.613-2.462,1.392-3.63,2.067L10.274-9.505,4.541-6.11A8.845,8.845,0,0,0,1.116-2.5,9.7,9.7,0,0,0,.124.619C.022,1.37.031,1.774,0,1.773A6,6,0,0,1,.021.6,9.34,9.34,0,0,1,.937-2.6,9.017,9.017,0,0,1,4.4-6.381l5.7-3.466,3.314-2.011c1.159-.682,2.33-1.471,3.648-2.112a20.371,20.371,0,0,1,8.932-2.1,20.213,20.213,0,0,1,4.945.609,12.869,12.869,0,0,1,4.8,2.151,13.673,13.673,0,0,1,5.26,9.945,14.591,14.591,0,0,1-.78,5.879A13.45,13.45,0,0,1,37.24,7.328a12.5,12.5,0,0,1-4.4,2.974,12.679,12.679,0,0,1-4.923.846c-6.413-.023-12.191-.043-17.06-.06a30.916,30.916,0,0,1-3.483-.111A8.34,8.34,0,0,1,4.4,9.931,9.2,9.2,0,0,1,.933,6.153,9.345,9.345,0,0,1,.026,2.943,7.3,7.3,0,0,1,0,1.773" transform="translate(0.017 16.068)" fill="#263238"/>
        </g>
        <g id="g380" transform="translate(525.281 329.229)">
          <path id="path382" d="M5.789,9.372s0-.25.028-.739q.049-.759.137-2.165c.055-.951.161-2.127.219-3.518s.1-3,.154-4.808C6.343-3.667,6.317-5.679,6.3-7.88c-.133-2.2-.144-4.592-.422-7.147A98.237,98.237,0,0,0,2.99-32.174,80.549,80.549,0,0,0-.186-41.718,65.1,65.1,0,0,0-5-51.4,64.358,64.358,0,0,0-20.592-68.8,71.879,71.879,0,0,0-42.958-80.582c-8.32-2.726-17.371-3.716-26.585-3.784a82.115,82.115,0,0,0-26.534,4.125,72.116,72.116,0,0,0-11.809,5.209,67.785,67.785,0,0,0-10.252,7.16,89.018,89.018,0,0,0-15.8,17.313,68.837,68.837,0,0,0-5.249,9.423,97.992,97.992,0,0,0-3.631,9.365A118.425,118.425,0,0,0-148.57-1.86c-.161,3.615-.142,6.426-.057,8.328q.076,1.407.117,2.165c.023.488.022.739.022.739s-.035-.247-.076-.733q-.058-.759-.169-2.165c-.118-1.9-.169-4.72-.04-8.345A116.727,116.727,0,0,1-143.16-31.9a97.978,97.978,0,0,1,3.616-9.423,69.241,69.241,0,0,1,5.264-9.508,89.148,89.148,0,0,1,15.847-17.442A68.062,68.062,0,0,1-108.117-75.5,72.528,72.528,0,0,1-96.231-80.76a82.434,82.434,0,0,1,26.688-4.161c9.25.068,18.351,1.067,26.732,3.819a72.2,72.2,0,0,1,22.5,11.892,69.766,69.766,0,0,1,8.82,8.269,57.485,57.485,0,0,1,6.851,9.289,65.361,65.361,0,0,1,4.82,9.766,80.639,80.639,0,0,1,3.163,9.608A97.673,97.673,0,0,1,6.166-15.054c.266,2.563.262,4.965.38,7.167,0,2.205.014,4.222-.017,6.033-.076,1.808-.143,3.416-.2,4.813-.075,1.393-.2,2.568-.269,3.518S5.914,8.133,5.87,8.639c-.046.486-.082.733-.082.733" transform="translate(148.848 84.922)" fill="#fff"/>
        </g>
        <g id="g384" transform="translate(347.955 289.871)">
          <path id="path386" d="M3.342.011a.728.728,0,0,1-.23.029L2.434.071q-.959.021-2.6.061L-9.732.315c-8.077.162-19.235.48-31.557.838s-23.489.613-31.571.675c-4.04.034-7.309.037-9.569.007l-2.6-.043-.677-.026a.7.7,0,0,1-.23-.027.7.7,0,0,1,.23-.03l.676-.03q.959-.022,2.6-.061l9.565-.184C-64.787,1.275-53.63.957-41.3.6S-17.819-.015-9.738-.077C-5.7-.11-2.428-.113-.168-.084l2.6.043.677.026a.714.714,0,0,1,.23.028" transform="translate(85.937 0.104)" fill="#fff"/>
        </g>
        <g id="g388" transform="translate(406.535 305.738)">
          <path id="path390" d="M.654.028A68.652,68.652,0,0,1-8.084.306,68.617,68.617,0,0,1-16.82.028,68.985,68.985,0,0,1-8.084-.25,69.021,69.021,0,0,1,.654.028" transform="translate(16.82 0.25)" fill="#fff"/>
        </g>
        <g id="g392" transform="translate(378.57 248.969)">
          <path id="path394" d="M1.821,0C1.876.142-8.971,4.97-22.4,10.779S-46.771,21.187-46.825,21.045s10.791-4.967,24.227-10.78S1.767-.141,1.821,0" transform="translate(46.825 0.003)" fill="#fff"/>
        </g>
        <g id="g396" transform="translate(358.899 252.609)">
          <path id="path398" d="M1.735,0C1.791.141-8.537,5-21.331,10.86S-44.547,21.351-44.6,21.21s10.27-5,23.068-10.861S1.678-.14,1.735,0" transform="translate(44.604 0.003)" fill="#fff"/>
        </g>
        <g id="g400" transform="translate(495.979 246.953)">
          <path id="path402" d="M1.821,0C1.875.142-8.972,4.969-22.4,10.779S-46.772,21.187-46.825,21.045s10.79-4.967,24.226-10.78S1.767-.141,1.821,0" transform="translate(46.825 0.003)" fill="#fff"/>
        </g>
        <g id="g404" transform="translate(476.309 250.593)">
          <path id="path406" d="M1.735,0C1.791.141-8.537,5-21.331,10.86S-44.547,21.351-44.6,21.209s10.27-5,23.067-10.86S1.679-.14,1.735,0" transform="translate(44.603 0.003)" fill="#fff"/>
        </g>
        <g id="g408" transform="translate(450.385 289.871)">
          <path id="path410" d="M3.607.011c0,.153-21.571.415-48.177.584S-92.752.778-92.753.624-71.187.21-44.573.039,3.606-.143,3.607.011" transform="translate(92.753 0.097)" fill="#fff"/>
        </g>
        <g id="g412" transform="translate(543.605 304.95)">
          <path id="path414" d="M1.012.017c0,.155-6.048.338-13.511.414S-26.016.44-26.017.288-19.969-.05-12.5-.126,1.011-.136,1.012.017" transform="translate(26.017 0.156)" fill="#fff"/>
        </g>
        <g id="g416" transform="translate(103.842 297.231)">
          <path id="path418" d="M2.012,0a2.4,2.4,0,0,1-.586.12L-.266.358C-1,.448-1.9.566-2.936.75s-2.225.338-3.522.617c-2.605.483-5.68,1.214-9.055,2.173A109.567,109.567,0,0,0-26.3,7.351a110.874,110.874,0,0,0-10.335,5.043c-3.087,1.749-5.806,3.446-8.024,4.985-1.129.737-2.1,1.482-2.974,2.105s-1.612,1.185-2.208,1.653c-.566.43-1.026.779-1.39,1.054a2.585,2.585,0,0,1-.507.339,2.649,2.649,0,0,1,.443-.427l1.333-1.138c.578-.5,1.3-1.088,2.161-1.733s1.82-1.421,2.94-2.182c2.2-1.586,4.913-3.327,8-5.108A103.663,103.663,0,0,1-26.487,6.833,101.913,101.913,0,0,1-15.636,3.047,91.193,91.193,0,0,1-6.519.98C-5.214.724-4.019.591-2.975.443S-1.027.2-.287.144L1.416.01A2.378,2.378,0,0,1,2.012,0" transform="translate(51.735 0.011)" fill="#fff"/>
        </g>
        <g id="g420" transform="translate(305.918 269.177)">
          <path id="path422" d="M1.114.29C1.074.321.82-.128.154-.7a6.406,6.406,0,0,0-3.3-1.423,13.5,13.5,0,0,0-5.317.616A38.988,38.988,0,0,0-14.737.773,40.918,40.918,0,0,0-24.953,7.561c-2.37,2.13-3.624,3.7-3.7,3.625a7.18,7.18,0,0,1,.843-1.134,33.729,33.729,0,0,1,2.615-2.786,37.761,37.761,0,0,1,10.249-7,36.328,36.328,0,0,1,6.374-2.27,13.237,13.237,0,0,1,5.48-.507A6.3,6.3,0,0,1,.285-.867a4.6,4.6,0,0,1,.666.82c.125.21.177.326.163.337" transform="translate(28.653 2.627)" fill="#fff"/>
        </g>
        <g id="g424" transform="translate(551.016 223.341)">
          <path id="path426" d="M3.959,2.048a15.039,15.039,0,0,1-4.246.464,24.629,24.629,0,0,1-4.979-.659A42.617,42.617,0,0,1-11.612-.241c-2.3-.93-4.761-2.106-7.412-3.317l-4.14-1.785c-1.425-.607-2.929-1.13-4.45-1.723a164.319,164.319,0,0,0-20.328-5.921,218.99,218.99,0,0,0-37.986-5.055c-2.449-.142-4.669-.144-6.616-.2h-5l-3.159.076-.824.005a1.018,1.018,0,0,1-.28-.017,1.075,1.075,0,0,1,.278-.039l.821-.061,3.159-.179,5-.095c1.951.029,4.175,0,6.629.12a207.99,207.99,0,0,1,38.08,4.9A159.9,159.9,0,0,1-27.458-7.55c1.524.6,3.03,1.135,4.459,1.751l4.145,1.819C-16.2-2.749-13.763-1.554-11.48-.606A43.787,43.787,0,0,0-5.2,1.55,25.459,25.459,0,0,0-.281,2.3,20.838,20.838,0,0,0,2.862,2.17l.816-.106a1.079,1.079,0,0,1,.281-.017" transform="translate(101.805 18.555)" fill="#263238"/>
        </g>
      </g>
    </g>
    <g id="g428">
      <g id="g430" clip-path="url(#clip-path)">
        <g id="g436" transform="translate(104.386 189.912)">
          <path id="path438" d="M2.716,5.516C-1.269-17.807-3.951-21.39-6.206-29.414c-2.229-7.93-5.833-13.241-10.3-15.076-3.009-1.238-18.016-7.025-23.245-5.106a63.63,63.63,0,0,0-14.489,7.778A20.6,20.6,0,0,0-61.8-31.482L-69.834-7.426-55.787,7.548l7.04-15.992,7.641,19.14-1.131,19.35,43.821,12.6c3.992-6.821,3.393-23.9,1.132-37.13" transform="translate(69.834 49.982)" fill="#ff7d4b"/>
        </g>
        <g id="g440" transform="translate(135.981 219.971)">
          <g id="g454">
            <g id="g452" opacity="0.2" clip-path="url(#clip-path-9)">
              <g id="g450" transform="translate(0 0)">
                <path id="path448" d="M1.106,0C-.828,12.14-1.138,13.817-3.072,25.958c-.663,4.167-2.606,10.668-5.383,13.679-2.057,2.231-4.074,4.379-6.926,5.1-2.659.673-6.692.747-9.192-.433s-4.627-6.361-3.6-9.066c3.714.85,4.862,2.178,8.067,0A29.156,29.156,0,0,0-11.824,26C-5.429,12.775-3.671,12.305,1.106,0" transform="translate(28.436)"/>
              </g>
            </g>
          </g>
        </g>
        <g id="g456" transform="translate(120.876 221.324)">
          <path id="path458" d="M.484,2.2A28.759,28.759,0,0,1-1.45-1.021l-4.515-7.87c-1.769-2.98-3.368-5.674-4.627-7.8a28.882,28.882,0,0,1-1.859-3.276,3.623,3.623,0,0,1,.626.787c.377.527.9,1.3,1.538,2.27,1.272,1.937,2.972,4.656,4.762,7.722S-2.2-3.292-1.132-1.218C-.6-.182-.178.664.1,1.256A3.9,3.9,0,0,1,.484,2.2" transform="translate(12.455 19.964)" fill="#263238"/>
        </g>
        <g id="g460" transform="translate(138.005 260.122)">
          <path id="path462" d="M.988.512A4.289,4.289,0,0,1-.042.926,10.533,10.533,0,0,1-1.283,1.3c-.491.118-1.045.281-1.674.374a25.9,25.9,0,0,1-4.435.43,29.268,29.268,0,0,1-5.436-.5A29.713,29.713,0,0,1-18.08.015,26.708,26.708,0,0,1-22.087-2.06c-.558-.323-1.023-.685-1.443-.981a11.422,11.422,0,0,1-1.039-.814,4.626,4.626,0,0,1-.826-.776c.059-.085,1.291.947,3.488,2.23a30.352,30.352,0,0,0,4,1.938,32.075,32.075,0,0,0,5.176,1.518,31.714,31.714,0,0,0,5.343.533,29.223,29.223,0,0,0,4.379-.306C-.533.911.96.409.988.512" transform="translate(25.396 4.636)" fill="#263238"/>
        </g>
        <g id="g464" transform="translate(102.681 211.728)">
          <path id="path466" d="M1.652,1.71c-.076.418-4.79,10.437-4.79,10.437L-25.356-.364-27.624-10.6a6.366,6.366,0,0,0-2.566-3.877,5.647,5.647,0,0,0-4.628-.841L-41.37-12.45A1.841,1.841,0,0,0-42.448-11.1c-.091.519.028,1.02.865.95,1.629-.135,5.019-.52,5.019-.52l-1.548,5.829a6.6,6.6,0,0,0,.44,4.573l.985,2.019L-34.523,5.5l-.044.033s21.6,23.714,33.726,25.257c7.287.926,15.546-20.913,15.546-20.913Z" transform="translate(42.474 15.494)" fill="#b28969"/>
        </g>
        <g id="g468" transform="translate(108.401 215.883)">
          <path id="path470" d="M0,.106C-.024.07.167-.141.54-.4A2.775,2.775,0,0,1,2.221-.959,1.779,1.779,0,0,1,3.711.063c.2.478.066.8.037.786-.056,0-.021-.3-.239-.668A1.686,1.686,0,0,0,2.2-.611,3.145,3.145,0,0,0,.652-.19C.266.009.027.149,0,.106" transform="translate(0.002 0.961)" fill="#aa6550"/>
        </g>
        <g id="g472" transform="translate(107.972 218.799)">
          <path id="path474" d="M.121.178C.075.2-.022-.016-.235-.3A2.588,2.588,0,0,0-1.264-1.12,2.411,2.411,0,0,0-2.54-1.271c-.336.049-.542.133-.564.086s.156-.206.515-.325a2.079,2.079,0,0,1,1.445.067A2.277,2.277,0,0,1-.046-.435c.185.35.2.6.167.613" transform="translate(3.106 1.608)" fill="#aa6550"/>
        </g>
        <g id="g476" transform="translate(145.399 197.286)">
          <path id="path478" d="M.225,0-5.792,30.479,10.156,40.722l6.127-18.73S13.747-.749.225,0" transform="translate(5.792 0.016)" fill="#ff7d4b"/>
        </g>
        <g id="g480" transform="translate(115.027 197.838)">
          <path id="path482" d="M1.684,0a1.679,1.679,0,0,1-.407.273C1,.434.6.67.065.955c-1.06.58-2.607,1.387-4.553,2.312A63.971,63.971,0,0,1-20.342,8.609a37.123,37.123,0,0,1-16.577-.6,27.248,27.248,0,0,1-4.754-1.824c-.547-.255-.944-.512-1.224-.665a1.623,1.623,0,0,1-.406-.272,16.129,16.129,0,0,1,1.71.739,31.89,31.89,0,0,0,4.764,1.642,38.592,38.592,0,0,0,16.4.432A69.255,69.255,0,0,0-4.633,2.907C-2.675,2.031-1.107,1.279-.021.761A12.541,12.541,0,0,1,1.684,0" transform="translate(43.303 0.003)" fill="#ebebeb"/>
        </g>
        <g id="g484" transform="translate(112.453 201.205)">
          <path id="path486" d="M1.937,0A2.235,2.235,0,0,1,1.5.348l-1.324.9a24.51,24.51,0,0,1-2.15,1.337c-.859.482-1.816,1.08-2.938,1.6l-1.744.855c-.607.294-1.264.54-1.931.826-1.327.595-2.8,1.073-4.336,1.61a61.852,61.852,0,0,1-10.29,2.292,61.109,61.109,0,0,1-10.51.338c-1.613-.138-3.147-.236-4.569-.482-.711-.113-1.4-.189-2.058-.322l-1.883-.4c-1.2-.224-2.265-.566-3.205-.822a23.25,23.25,0,0,1-2.383-.762l-1.486-.55a2.238,2.238,0,0,1-.506-.227,2.066,2.066,0,0,1,.54.12l1.511.45c.65.21,1.45.453,2.4.669s2,.539,3.205.737l1.876.36c.652.122,1.34.185,2.048.288,1.413.225,2.938.3,4.539.427A63.932,63.932,0,0,0-23.28,9.22,64.389,64.389,0,0,0-13.065,6.987c1.529-.518,2.994-.976,4.319-1.548.665-.275,1.32-.51,1.929-.791l1.745-.818c1.126-.492,2.088-1.063,2.955-1.517s1.6-.882,2.184-1.248L1.44.252A2.177,2.177,0,0,1,1.937,0" transform="translate(49.818 0.002)" fill="#ebebeb"/>
        </g>
        <g id="g488" transform="translate(144.391 196.675)">
          <path id="path490" d="M.635,4.11a9.036,9.036,0,0,1-1.295-.7L-4.172,1.3-16.166-6.087l-.154-.095.034-.184c.428-2.277.888-4.718,1.361-7.24L-12.879-24.3c.333-1.639.6-3.205.9-4.673a17.544,17.544,0,0,1,1.28-3.961A7.628,7.628,0,0,1-6.575-36.97a4.452,4.452,0,0,1,1.525-.269,1.559,1.559,0,0,1,.534.062,6.72,6.72,0,0,0-1.992.41,7.62,7.62,0,0,0-3.863,4.009,17.613,17.613,0,0,0-1.188,3.885c-.266,1.466-.551,3.025-.85,4.665-.617,3.3-1.295,6.908-2,10.7-.481,2.521-.946,4.961-1.38,7.237l-.12-.279,11.9,7.555L-.573,3.248A9.27,9.27,0,0,1,.635,4.11" transform="translate(16.32 37.239)" fill="#263238"/>
        </g>
        <g id="g492" transform="translate(161.644 218.394)">
          <path id="path494" d="M.172,0a12.346,12.346,0,0,1-.08,2.842A46.379,46.379,0,0,1-1.052,9.592a45.584,45.584,0,0,1-2.114,6.48,11.937,11.937,0,0,1-1.239,2.515,19.7,19.7,0,0,1,.9-2.664c.579-1.63,1.317-3.9,1.952-6.472S-.519,4.515-.272,2.793A20.029,20.029,0,0,1,.172,0" transform="translate(4.414 0)" fill="#263238"/>
        </g>
        <g id="g496" transform="translate(63.686 387.904)">
          <path id="path498" d="M.6,0,.423,16.273s-15.534,5.274-15.842,8.277l29.509,1.5L15.339.706Z" transform="translate(15.419)" fill="#455a64"/>
        </g>
        <g id="g500" transform="translate(87.223 403.205)">
          <path id="path502" d="M.056.007A1.307,1.307,0,0,1,.824,1.518a1.15,1.15,0,0,1-1.4.826A1.379,1.379,0,0,1-1.377.739,1.176,1.176,0,0,1,.163.052" transform="translate(1.434 0.061)" fill="#e0e0e0"/>
        </g>
        <g id="g504" transform="translate(63.681 410.913)">
          <path id="path506" d="M1.1.3l.032-2.559-28.305-.481s-1.34.545-1.236,1.541Z" transform="translate(28.41 2.738)" fill="#e0e0e0"/>
        </g>
        <g id="g508" transform="translate(79.056 403.871)">
          <path id="path510" d="M0,.012C0,.167.715.272,1.4.8c.7.512,1.036,1.2,1.172,1.143.134-.022-.04-.954-.883-1.582S-.025-.131,0,.012" transform="translate(0 0.109)" fill="#263238"/>
        </g>
        <g id="g512" transform="translate(75.899 405.147)">
          <path id="path514" d="M0,.005C-.04.154.573.447,1.033,1.124c.479.661.571,1.372.715,1.373.135.03.274-.867-.314-1.7S.01-.142,0,.005" transform="translate(0.002 0.05)" fill="#263238"/>
        </g>
        <g id="g516" transform="translate(72.929 406.36)">
          <path id="path518" d="M.039.27C.169.309.4-.451.071-1.312S-.921-2.545-.987-2.419c-.088.123.33.6.592,1.309C-.116-.4-.1.247.039.27" transform="translate(0.999 2.443)" fill="#263238"/>
        </g>
        <g id="g520" transform="translate(79.478 399.802)">
          <path id="path522" d="M0,.048C.055.192.725.013,1.537.113,2.351.2,2.971.519,3.053.392,3.141.285,2.547-.316,1.59-.42S-.065-.076,0,.048" transform="translate(0.004 0.437)" fill="#263238"/>
        </g>
        <g id="g524" transform="translate(79.638 391.126)">
          <g id="g538" transform="translate(0 0)">
            <g id="g536" opacity="0.3" clip-path="url(#clip-path-10)">
              <g id="g534" transform="translate(0 0)">
                <path id="path532" d="M0,0-.034,2.9,14.476,3.5,14.61.887Z" transform="translate(0.034)"/>
              </g>
            </g>
          </g>
        </g>
        <g id="g540" transform="translate(79.574 394.651)">
          <path id="path542" d="M0,.234A2.6,2.6,0,0,0,1.478.3,6.315,6.315,0,0,0,3.047-.128a6.9,6.9,0,0,0,.87-.438A1.851,1.851,0,0,0,4.38-.915a.708.708,0,0,0,.1-.817.783.783,0,0,0-.615-.384,1.772,1.772,0,0,0-.559.053,5.074,5.074,0,0,0-.934.29A5.2,5.2,0,0,0,.969-.885C.254-.241,0,.321.043.353c.064.054.418-.41,1.14-.935a5.7,5.7,0,0,1,1.353-.727A5.2,5.2,0,0,1,3.4-1.545c.317-.071.582-.061.656.092.026.059.029.081-.041.176a1.444,1.444,0,0,1-.34.254,7.169,7.169,0,0,1-.8.437,7.8,7.8,0,0,1-1.454.514A9.452,9.452,0,0,0,0,.234" transform="translate(0 2.121)" fill="#263238"/>
        </g>
        <g id="g544" transform="translate(77.964 392.165)">
          <path id="path546" d="M.067.5A2.629,2.629,0,0,0,.525-1,5.487,5.487,0,0,0,.4-2.742a5.376,5.376,0,0,0-.333-.977,1.257,1.257,0,0,0-.908-.845.687.687,0,0,0-.636.409,2.219,2.219,0,0,0-.178.57A3.714,3.714,0,0,0-1.7-2.521,3.8,3.8,0,0,0-1.145-.856C-.6-.01-.012.2,0,.153c.051-.075-.438-.4-.845-1.207a3.826,3.826,0,0,1-.4-1.507,3.475,3.475,0,0,1,.068-.911c.061-.333.19-.6.306-.557.147.005.385.271.495.544a5.416,5.416,0,0,1,.327.875A6.036,6.036,0,0,1,.17-1.02C.17-.093-.011.477.067.5" transform="translate(1.721 4.567)" fill="#263238"/>
        </g>
        <g id="g548" transform="translate(64.844 248.53)">
          <path id="path550" d="M2.808,2.145S-43.277-18.514-57.549-19.4c-8.95-.555-15.719,5.59-14.5,15.486.609,4.951,13.345,62.907,13.345,62.907l19.427-9.485-9.33-40.066,37.856,19.671Z" transform="translate(72.193 19.434)" fill="#263238"/>
        </g>
        <g id="g552" transform="translate(82.599 267.257)">
          <path id="path554" d="M0,0C-.15.138,1.381,2.241,2.982,5.024s2.69,5.182,2.871,5.1c.166-.068-.647-2.645-2.295-5.48S.13-.127,0,0" transform="translate(0.01 0.005)" fill="#455a64"/>
        </g>
        <g id="g556" transform="translate(78.832 269.551)">
          <path id="path558" d="M0,0c-.1.182,2.231,1.76,4.958,3.91S9.8,7.956,9.93,7.8c.125-.138-1.8-2.3-4.57-4.475S.085-.166,0,0" transform="translate(0.003 0.013)" fill="#455a64"/>
        </g>
        <g id="g560" transform="translate(76.105 270.108)">
          <path id="path562" d="M3.732,1.236S-2.067,9.216-7.595,11.4C-14.54,14.144-65.9,40.04-65.9,40.04S-75.21,114-74.474,110.915l-21.494-.554,2.338-68.125c.281-8.728,6.821-18.74,13.848-23.195L-32.228-11.2Z" transform="translate(95.967 11.196)" fill="#263238"/>
        </g>
        <g id="g564" transform="translate(77.986 273.669)">
          <path id="path566" d="M0,6.2A4.908,4.908,0,0,0,.09,5.262c.034-.686.078-1.575.131-2.68a96.367,96.367,0,0,1,.851-9.794,35.29,35.29,0,0,1,4.644-13.5,24.937,24.937,0,0,1,5.525-6.1,65.345,65.345,0,0,1,7.293-4.931C28.875-38.081,37.8-44.537,44.4-48.965c3.287-2.236,5.962-4.021,7.82-5.236l2.135-1.408a4.227,4.227,0,0,0,.725-.531,4.166,4.166,0,0,0-.792.4c-.508.289-1.257.712-2.2,1.292-1.9,1.143-4.618,2.862-7.941,5.045C37.479-45.079,28.506-38.689,18.2-32.376a64.417,64.417,0,0,0-7.359,5A25.4,25.4,0,0,0,5.2-21.089,35.246,35.246,0,0,0,.6-7.289a81.788,81.788,0,0,0-.64,9.864c0,1.105,0,2,0,2.684A4.872,4.872,0,0,0,0,6.2" transform="translate(0.047 56.142)" fill="#455a64"/>
        </g>
        <g id="g568" transform="translate(152.595 275.507)">
          <path id="path570" d="M.159,1.474A19.282,19.282,0,0,0-1.157-.418a14.443,14.443,0,0,1-2.032-5.1,14.865,14.865,0,0,1,.019-5.545,20.554,20.554,0,0,0,.525-2.289,5.116,5.116,0,0,0-.988,2.163,12.917,12.917,0,0,0-.219,5.815A12.5,12.5,0,0,0-1.538-.108C-.632,1.043.116,1.536.159,1.474" transform="translate(4.08 13.354)" fill="#455a64"/>
        </g>
        <g id="g572" transform="translate(83.991 272.719)">
          <path id="path574" d="M0,11.822a1.587,1.587,0,0,0,.067-.377c.034-.294.077-.662.13-1.118.1-1.038.247-2.479.43-4.305.35-3.8.847-9.2,1.458-15.851.3-3.353.624-7.018.973-10.95s.724-8.145,1.013-12.576c.321-4.427.713-9.069,1.468-13.82A59.965,59.965,0,0,1,9.488-61.4a47.951,47.951,0,0,1,7.8-12.23,71.714,71.714,0,0,1,9.733-9.165c6.682-5.257,13.277-9.095,18.706-12.482,5.455-3.348,9.8-6.2,12.693-8.357,1.452-1.064,2.552-1.931,3.286-2.537l.829-.7a1.483,1.483,0,0,0,.267-.257,1.389,1.389,0,0,0-.309.2l-.868.639c-.758.566-1.881,1.4-3.353,2.423-2.929,2.073-7.3,4.854-12.783,8.145a186.448,186.448,0,0,0-18.84,12.389,71.5,71.5,0,0,0-9.849,9.22A48.371,48.371,0,0,0,8.873-61.7,60.294,60.294,0,0,0,4.885-47.3C4.133-42.5,3.753-37.84,3.449-33.406c-.272,4.438-.618,8.642-.951,12.578s-.617,7.6-.891,10.954C1.085-3.216.663,2.19.364,5.994.235,7.826.134,9.27.06,10.312c-.025.46-.045.829-.062,1.126a1.616,1.616,0,0,0,0,.385" transform="translate(0.009 107.124)" fill="#455a64"/>
        </g>
        <g id="g576" transform="translate(106.408 146.878)">
          <path id="path578" d="M1.056.587C-.273-3.432-4.681-5.966-8.551-4.936a9.731,9.731,0,0,1-2.677.616c-1.124-.026-2.146-.682-3.249-.917a4.888,4.888,0,0,0-5.5,3.812A6.307,6.307,0,0,0-25.46-.262a4.813,4.813,0,0,0-1.282,5.523c.391.778,1.028,1.4,1.383,2.192.587,1.313.319,2.889.732,4.276A5.435,5.435,0,0,0-19.979,15.3a14.926,14.926,0,0,0,5.952-.915" transform="translate(27.149 5.323)" fill="#263238"/>
        </g>
        <g id="g580" transform="translate(113.213 154.455)">
          <path id="path582" d="M.455,4.024C.2,1.962.036.515.036.515S-6.389.468-8.984-8.041c-1.292-4.232-2.145-11.384-2.668-17.261-.471-5.289,3.27-9.932,8.235-10.21l17.073-.955.367,2.827,4.5,35.086c.686,5.353-2.834,10.281-7.847,10.982-4.993.7-9.569-3.068-10.222-8.4" transform="translate(11.692 36.467)" fill="#b28969"/>
        </g>
        <g id="g584" transform="translate(115.664 169.456)">
          <path id="path586" d="M0,.119a1.075,1.075,0,0,0,1.178.957,1.065,1.065,0,0,0,.93-1.192A1.076,1.076,0,0,0,.931-1.075,1.069,1.069,0,0,0,0,.119" transform="translate(0.007 1.081)" fill="#263238"/>
        </g>
        <g id="g588" transform="translate(115.222 167.514)">
          <path id="path590" d="M0,.155c.152.124.852-.639,1.98-.826C3.1-.876,4.024-.4,4.124-.566,4.175-.642,4-.883,3.6-1.1A2.765,2.765,0,0,0,.31-.526C0-.183-.073.1,0,.155" transform="translate(0.025 1.408)" fill="#263238"/>
        </g>
        <g id="g592" transform="translate(126.377 167.513)">
          <path id="path594" d="M0,.119a1.077,1.077,0,0,0,1.178.958,1.066,1.066,0,0,0,.93-1.193A1.077,1.077,0,0,0,.931-1.075,1.069,1.069,0,0,0,0,.119" transform="translate(0.007 1.081)" fill="#263238"/>
        </g>
        <g id="g596" transform="translate(126.336 165.856)">
          <path id="path598" d="M0,.155c.152.124.853-.639,1.98-.827C3.1-.878,4.023-.4,4.124-.566,4.175-.642,4-.883,3.6-1.1A2.765,2.765,0,0,0,.31-.527C.006-.184-.073.1,0,.155" transform="translate(0.025 1.408)" fill="#263238"/>
        </g>
        <g id="g600" transform="translate(120.583 166.923)">
          <path id="path602" d="M.113,1.006A7.059,7.059,0,0,0-1.77.965c-.293.017-.574,0-.654-.2a1.683,1.683,0,0,1,.057-.943q.239-1.186.5-2.488a43.293,43.293,0,0,0,1-6.452A43.159,43.159,0,0,0-2.349-2.768q-.242,1.306-.465,2.5A1.922,1.922,0,0,0-2.783.961a.728.728,0,0,0,.541.369,1.859,1.859,0,0,0,.5-.011A6.978,6.978,0,0,0,.113,1.006" transform="translate(2.904 9.119)" fill="#263238"/>
        </g>
        <g id="g604" transform="translate(124.941 186.46)">
          <path id="path606" d="M0,.495A20.313,20.313,0,0,0,10.474-4.482S8.713,1.965.417,2.537Z" transform="translate(0 4.482)" fill="#aa6550"/>
        </g>
        <g id="g608" transform="translate(123.923 177.317)">
          <path id="path610" d="M.117,0c-.186.02.007,1.328-.9,2.434S-3.019,3.618-3,3.8c0,.084.328.2.881.127A3.024,3.024,0,0,0-.259,2.861,3,3,0,0,0,.419.834C.384.279.2-.022.117,0" transform="translate(3 0.001)" fill="#263238"/>
        </g>
        <g id="g612" transform="translate(125.354 161.413)">
          <path id="path614" d="M0,.133C.161.442,1.263.094,2.611.041,3.957-.043,5.085.19,5.217-.134c.058-.153-.174-.431-.652-.674A4.1,4.1,0,0,0,2.556-1.2,4.136,4.136,0,0,0,.59-.6C.136-.314-.07-.014,0,.133" transform="translate(0.013 1.202)" fill="#263238"/>
        </g>
        <g id="g616" transform="translate(115.096 163.9)">
          <path id="path618" d="M0,.161C.24.4.975-.015,1.907-.187,2.832-.394,3.658-.3,3.8-.613c.059-.152-.106-.405-.491-.605A2.518,2.518,0,0,0,1.689-1.4a2.622,2.622,0,0,0-1.44.809C-.04-.258-.106.043,0,.161" transform="translate(0.047 1.459)" fill="#263238"/>
        </g>
        <g id="g620" transform="translate(111.634 151.334)">
          <path id="path622" d="M.029,1.04S4.547,2.665,9.737-1.04c3.406-2.431,7.531-3.954,8.558-3.3S19.994.293,23.734.975c0,0,.658,7.673,3.476,7.014,2.008-.469.834-8.933-.007-13.759A4.032,4.032,0,0,0,23.474-9.2L18.216-9.42,11.651-7.461,4.611-5.409-.743-3.036Z" transform="translate(0.743 9.42)" fill="#263238"/>
        </g>
        <g id="g624" transform="translate(138.955 164.979)">
          <path id="path626" d="M0,.066C.107-.014,4.464-2.464,5.271,2.62S1.136,7.52,1.1,7.375,0,.066,0,.066" transform="translate(0 0.594)" fill="#b28969"/>
        </g>
        <g id="g628" transform="translate(140.965 166.562)">
          <path id="path630" d="M.009.417C.028.4.1.464.253.507a.791.791,0,0,0,.621-.1A2.315,2.315,0,0,0,1.511-1.73a3.1,3.1,0,0,0-.433-1.226.975.975,0,0,0-.731-.566A.432.432,0,0,0-.1-3.19c-.041.153,0,.249-.019.262s-.116-.066-.111-.284A.593.593,0,0,1-.1-3.563a.614.614,0,0,1,.437-.213,1.171,1.171,0,0,1,.99.631A3.152,3.152,0,0,1,1.843-1.78,2.406,2.406,0,0,1,.983.635.849.849,0,0,1,.2.637c-.168-.1-.21-.208-.2-.22" transform="translate(0.233 3.78)" fill="#aa6550"/>
        </g>
        <g id="g632" transform="translate(114.686 148.876)">
          <path id="path634" d="M0,0C.042-.018.166.272.5.686A4.113,4.113,0,0,0,2.3,1.919a5.593,5.593,0,0,0,3.168.149A27.248,27.248,0,0,0,9.306.764a9.889,9.889,0,0,1,4.075-.776,4.359,4.359,0,0,1,3.095,1.487,3.649,3.649,0,0,1,.95,2.227,1.578,1.578,0,0,1-.143.884c-.047-.009.017-.322-.059-.862A3.615,3.615,0,0,0,16.213,1.75,4.062,4.062,0,0,0,13.353.5a9.994,9.994,0,0,0-3.878.79A23.966,23.966,0,0,1,5.554,2.571a5.735,5.735,0,0,1-3.38-.284A3.994,3.994,0,0,1,.344.82,1.7,1.7,0,0,1,0,0" transform="translate(0.005 0.028)" fill="#455a64"/>
        </g>
        <g id="g636" transform="translate(108.447 151.958)">
          <path id="path638" d="M.835.18C.8.212.593-.089.1-.456A4.234,4.234,0,0,0-2.3-1.213,7.338,7.338,0,0,0-5.93-.264,36.723,36.723,0,0,1-10.254,1.9a10.16,10.16,0,0,1-8.522-1,9.49,9.49,0,0,1-2.1-1.719,3.1,3.1,0,0,1-.6-.811A17.625,17.625,0,0,0-18.6.556a10.21,10.21,0,0,0,8.186.813A42.73,42.73,0,0,0-6.128-.73a7.375,7.375,0,0,1,3.852-.875,4.172,4.172,0,0,1,2.5.976A1.924,1.924,0,0,1,.835.18" transform="translate(21.478 1.635)" fill="#455a64"/>
        </g>
        <g id="g640" transform="translate(85.192 219.296)">
          <path id="path642" d="M1.153,2.1-22.008-19l-7.637,1.845S-21.6.726-15.772,7.281c0,0,5.757,8.237,15.247,4.676S1.153,2.1,1.153,2.1" transform="translate(29.645 19.001)" fill="#b28969"/>
        </g>
        <g id="g644" transform="translate(78.832 196.064)">
          <path id="path646" d="M.458,0H-9.385a2.648,2.648,0,0,0-2.284,3.353l9.9,20.608a2.226,2.226,0,0,0,1.994,1.3l12-.027a1.858,1.858,0,0,0,1.308-2.716L3.982,2.344A3.909,3.909,0,0,0,.458,0" transform="translate(11.79)" fill="#455a64"/>
        </g>
        <g id="g648" transform="translate(78.919 197.304)">
          <path id="path650" d="M.43,0H-9.413a1.758,1.758,0,0,0-1.47,2.56L-1.219,22.72a2.226,2.226,0,0,0,1.994,1.3H12.638a1.034,1.034,0,0,0,.867-1.5L3.953,2.344A3.907,3.907,0,0,0,.43,0" transform="translate(11.066)" fill="#263238"/>
        </g>
        <g id="g652" transform="translate(82.307 205.744)">
          <path id="path654" d="M.272,0l-5.99,2.558L-7,7.717-4.116,15.4,6.47,17.042l-3.1-3.385.4-2.949s2.953-.989,3.027-1.472-.367-2.1-.82-2.181A21.607,21.607,0,0,0,2.425,8.209s3.666-3.1,3.563-3.6-.5-1.772-1.228-1.913S-1.887,5.533-1.887,5.533l-.96,2.341-.839-3.744S1.572,2.555.272,0" transform="translate(7.001 0)" fill="#b28969"/>
        </g>
        <g id="g656" transform="translate(90.105 213.885)">
          <path id="path658" d="M.009.393C-.027.4-.139.171-.195-.245A3.634,3.634,0,0,1-.014-1.861,3.447,3.447,0,0,1,.833-3.213c.3-.277.523-.376.543-.343a7.2,7.2,0,0,0-1.1,1.81A7.6,7.6,0,0,0,.009.393" transform="translate(0.221 3.562)" fill="#aa6550"/>
        </g>
        <g id="g660" transform="translate(87.483 209.745)">
          <path id="path662" d="M0,.694A15.058,15.058,0,0,0,.238-.984a7.739,7.739,0,0,1,.3-1.858,2.793,2.793,0,0,1,.552-.991,2.7,2.7,0,0,1,.979-.658C3.5-5.047,4.791-5.5,5.736-5.823a7.9,7.9,0,0,1,1.547-.455A8.031,8.031,0,0,1,5.809-5.6c-.921.381-2.218.873-3.623,1.417a2.487,2.487,0,0,0-.878.578,2.543,2.543,0,0,0-.5.871A8.555,8.555,0,0,0,.455-.958,3.585,3.585,0,0,1,0,.694" transform="translate(0.004 6.284)" fill="#aa6550"/>
        </g>
        <g id="g664" transform="translate(86.06 213.094)">
          <path id="path666" d="M0,.246A2.692,2.692,0,0,1,.041-1.018C.146-1.7.3-2.24.384-2.225A2.688,2.688,0,0,1,.345-.963C.24-.281.086.261,0,.246" transform="translate(0.051 2.226)" fill="#aa6550"/>
        </g>
        <g id="g668" transform="translate(85.952 199.852)">
          <path id="path670" d="M0,.133a1.3,1.3,0,0,0,1.254,1.34A1.3,1.3,0,0,0,2.508.133,1.3,1.3,0,0,0,1.254-1.208,1.3,1.3,0,0,0,0,.133" transform="translate(0 1.208)" fill="#fafafa"/>
        </g>
      </g>
    </g>
    <g id="g672">
      <g id="g674" clip-path="url(#clip-path)">
        <g id="g680" transform="translate(45.646 404.375)">
          <path id="path682" d="M.218,0A12.4,12.4,0,0,1,7.481,6.579,24.251,24.251,0,0,1,9.7,16.678c.2,6.746-2.417,13.994-5.493,19.888C-1.683,32.5-4.045,24.181-5,19.879-6.5,13.08-5.347-.183.218,0" transform="translate(5.598 0.002)" fill="#ff7d4b"/>
        </g>
        <g id="g684" transform="translate(62.394 435.054)">
          <path id="path686" d="M.024,1.58A11.686,11.686,0,0,1,1.92-9.367a13.457,13.457,0,0,1,9.6-4.921c1.682-.123,3.55.117,4.7,1.433a5,5,0,0,1,.716,4.745,9.584,9.584,0,0,1-2.822,3.98C10-.389,5.37,2.426.024,1.58" transform="translate(0.606 14.317)" fill="#ff7d4b"/>
        </g>
        <g id="g688" transform="translate(59.067 442.105)">
          <path id="path690" d="M0,3.005A8.265,8.265,0,0,1,0,1.614C.036.629.08-.642.131-2.169A41.412,41.412,0,0,1,2.087-14.5,23.865,23.865,0,0,1,8.77-24.706a14.938,14.938,0,0,1,3.016-2.025,8.924,8.924,0,0,1,.895-.4c.207-.081.318-.116.325-.1a23.427,23.427,0,0,0-4.03,2.791A24.677,24.677,0,0,0,2.515-14.324,44.521,44.521,0,0,0,.456-2.149C.349-.556.262.736.179,1.626A7.855,7.855,0,0,1,0,3.005" transform="translate(0.022 27.233)" fill="#263238"/>
        </g>
        <g id="g692" transform="translate(51.416 414.559)">
          <path id="path694" d="M0,0A3.011,3.011,0,0,1,.146.586c.084.438.192,1,.327,1.7.276,1.473.651,3.611,1.094,6.259.885,5.292,2.012,12.622,3.086,20.747s1.887,15.5,2.407,20.853c.26,2.673.455,4.839.569,6.337.051.708.093,1.281.125,1.727a3,3,0,0,1,.012.605,3.092,3.092,0,0,1-.1-.6c-.055-.443-.124-1.013-.209-1.716-.176-1.553-.418-3.7-.714-6.319-.6-5.336-1.467-12.7-2.538-20.823S2.051,13.9,1.247,8.6L.3,2.315.054.6A2.916,2.916,0,0,1,0,0" transform="translate(0.005 0)" fill="#263238"/>
        </g>
        <g id="g696" transform="translate(32.691 439.166)">
          <path id="path698" d="M.817,1.713A25.167,25.167,0,0,0-14.857-15.049c-1.869-.623-4.231-.852-5.477.76s-.586,4.063.38,5.886C-15.93-.818-7.291,3.636.768,2.278" transform="translate(21.018 15.519)" fill="#ff7d4b"/>
        </g>
        <g id="g700" transform="translate(40.557 445.794)">
          <path id="path702" d="M0,0A6.141,6.141,0,0,1,1.18.345a11.318,11.318,0,0,1,1.351.52,18.568,18.568,0,0,1,1.741.821A20.946,20.946,0,0,1,6.3,2.871,23.725,23.725,0,0,1,8.5,4.456a27.874,27.874,0,0,1,4.383,4.5,28.56,28.56,0,0,1,3.233,5.5,25.346,25.346,0,0,1,.986,2.634,22.07,22.07,0,0,1,.643,2.373,20.264,20.264,0,0,1,.361,2,12.523,12.523,0,0,1,.165,1.525,7.116,7.116,0,0,1,.041,1.306c-.1.012-.176-1.857-.88-4.745a24.063,24.063,0,0,0-.687-2.323,27.113,27.113,0,0,0-1.009-2.575,29.849,29.849,0,0,0-3.207-5.385A29.06,29.06,0,0,0,8.243,4.814,25.18,25.18,0,0,0,6.1,3.216,22.73,22.73,0,0,0,4.127,1.995C1.646.623-.033.1,0,0" transform="translate(0 0.004)" fill="#263238"/>
        </g>
      </g>
    </g>
  </g>
</svg>
