<svg width="75" height="77" viewBox="0 0 75 77" fill="none" xmlns="http://www.w3.org/2000/svg">
<path d="M33.6461 75.4465C5.26758 43.7683 0 40.5172 0 28.875C0 12.9277 16.7893 0 37.5 0C58.2107 0 75 12.9277 75 28.875C75 40.5172 69.7324 43.7683 41.3539 75.4465C39.4916 77.5179 35.5082 77.5178 33.6461 75.4465ZM37.5 40.9062C46.1295 40.9062 53.125 35.5197 53.125 28.875C53.125 22.2303 46.1295 16.8437 37.5 16.8437C28.8705 16.8437 21.875 22.2303 21.875 28.875C21.875 35.5197 28.8705 40.9062 37.5 40.9062Z" fill="#C21717"/>
</svg>
