<?xml version="1.0" standalone="no"?>
<!DOCTYPE svg PUBLIC "-//W3C//DTD SVG 20010904//EN"
 "http://www.w3.org/TR/2001/REC-SVG-20010904/DTD/svg10.dtd">
<svg version="1.0" xmlns="http://www.w3.org/2000/svg"
 width="1024.000000pt" height="1024.000000pt" viewBox="0 0 1024.000000 1024.000000"
 preserveAspectRatio="xMidYMid meet">
<metadata>
Created by potrace 1.14, written by Peter Selinger 2001-2017
</metadata>
<g transform="translate(0.000000,1024.000000) scale(0.100000,-0.100000)"
fill="#000000" stroke="none">
<path d="M4440 8251 c0 -5 -39 -12 -87 -16 -49 -3 -112 -13 -142 -21 -30 -9
-86 -18 -125 -21 -39 -2 -97 -13 -129 -24 -31 -10 -72 -19 -90 -19 -18 0 -58
-9 -90 -20 -31 -11 -71 -20 -89 -20 -18 0 -46 -7 -62 -15 -16 -8 -47 -18 -70
-22 -22 -3 -59 -14 -81 -24 -22 -10 -52 -19 -66 -19 -15 0 -38 -9 -52 -20 -14
-11 -35 -20 -47 -20 -11 0 -39 -9 -61 -20 -21 -11 -57 -29 -78 -40 -22 -11
-49 -20 -61 -20 -12 0 -38 -9 -58 -20 -20 -10 -111 -55 -201 -100 -90 -44
-175 -89 -189 -100 -13 -11 -29 -20 -35 -20 -6 0 -27 -11 -46 -24 -20 -12 -73
-46 -119 -75 -174 -110 -317 -216 -447 -331 -33 -30 -82 -73 -108 -95 -46 -39
-59 -69 -34 -78 20 -7 70 14 95 39 12 13 37 31 55 40 18 10 46 28 63 40 17 13
33 24 36 24 3 0 61 32 129 72 68 39 171 95 229 124 58 29 116 60 130 68 46 26
132 66 142 66 10 0 39 13 153 66 28 13 58 24 68 24 10 0 35 9 55 19 47 24 119
50 252 91 58 18 109 37 115 41 5 5 18 9 30 9 11 0 52 11 90 24 39 13 90 29
115 36 44 11 62 16 163 39 26 6 61 11 77 11 17 0 42 7 55 16 14 9 72 22 133
30 59 8 132 19 162 24 60 12 140 21 360 41 140 13 190 14 405 10 55 -1 118 -2
140 -1 80 2 121 -2 192 -16 40 -8 95 -14 124 -14 58 0 157 -14 241 -35 31 -8
98 -19 150 -25 51 -6 107 -15 123 -20 17 -5 59 -16 95 -25 36 -9 81 -21 100
-26 19 -6 56 -14 83 -19 26 -5 60 -17 75 -28 32 -22 68 -36 137 -52 28 -7 59
-16 70 -21 11 -5 54 -20 95 -33 41 -13 102 -38 135 -54 33 -16 71 -32 85 -36
44 -12 104 -40 129 -58 13 -10 32 -18 41 -18 10 0 41 -16 70 -35 29 -19 58
-35 64 -35 7 0 21 -9 31 -20 10 -11 24 -20 32 -20 7 0 25 -7 39 -16 23 -16 26
-15 44 1 26 24 25 37 -5 73 -24 29 -245 180 -334 230 -126 69 -294 152 -309
152 -9 0 -28 9 -42 20 -14 11 -34 20 -45 20 -11 0 -33 9 -50 20 -16 11 -40 20
-51 20 -12 0 -33 9 -47 20 -14 11 -33 20 -42 20 -9 0 -37 8 -63 18 -72 29
-173 60 -217 67 -21 4 -51 12 -65 19 -14 8 -49 16 -79 20 -30 4 -67 14 -82 22
-15 7 -45 14 -66 14 -21 0 -67 9 -101 20 -35 11 -80 20 -101 20 -20 0 -77 9
-126 20 -50 10 -120 22 -157 26 -38 4 -68 11 -68 15 0 5 -178 9 -395 9 -231 0
-395 -4 -395 -9z"/>
<path d="M7357 8003 c-14 -13 -6 -75 13 -113 11 -22 20 -49 20 -60 0 -11 9
-38 20 -60 11 -22 20 -50 20 -62 0 -13 9 -36 20 -53 11 -16 20 -40 20 -52 0
-12 9 -42 19 -65 17 -39 39 -141 47 -228 3 -22 -4 -51 -18 -79 -20 -39 -29
-46 -73 -58 -138 -37 -229 -37 -580 1 -136 14 -150 13 -159 -10 -12 -32 25
-68 119 -116 217 -112 443 -147 754 -117 93 9 125 16 160 37 69 40 83 72 77
167 -8 124 -51 323 -86 400 -10 22 -29 65 -42 95 -44 103 -113 205 -198 293
-79 81 -113 101 -133 80z"/>
</g>
</svg>
