<?xml version="1.0" encoding="UTF-8" standalone="no"?>
<!DOCTYPE svg PUBLIC "-//W3C//DTD SVG 1.1//EN" "http://www.w3.org/Graphics/SVG/1.1/DTD/svg11.dtd">
<svg xmlns="http://www.w3.org/2000/svg" version="1.1" viewBox="0.00 0.00 405.00 351.00">
<g stroke-width="2.00" fill="none" stroke-linecap="butt">
<path stroke="#2e3693" vector-effect="non-scaling-stroke" d="
  M 101.57 120.48
  L 98.42 122.33
  Q 98.04 122.55 97.66 122.35
  L 96.88 121.94"
/>
<path stroke="#9b9df6" vector-effect="non-scaling-stroke" d="
  M 96.52 127.58
  L 98.27 127.64
  A 0.77 0.77 0.0 0 0 98.79 126.27
  Q 96.67 124.53 95.93 126.96"
/>
<path stroke="#2e3693" vector-effect="non-scaling-stroke" d="
  M 16.22 145.84
  L 11.89 143.30"
/>
<path stroke="#9b9df6" vector-effect="non-scaling-stroke" d="
  M 17.03 150.18
  Q 17.33 148.78 16.47 148.24
  A 1.33 1.33 0.0 0 0 14.85 150.34
  Q 14.94 150.42 16.26 150.69"
/>
<path stroke="#36464e" vector-effect="non-scaling-stroke" d="
  M 306.39 103.37
  Q 306.53 94.78 302.70 88.82
  Q 300.61 85.57 296.96 84.43
  Q 296.51 84.29 296.52 83.82
  C 297.17 57.78 285.93 29.44 258.83 21.39
  Q 256.14 20.59 253.44 19.69"
/>
<path stroke="#a28d81" vector-effect="non-scaling-stroke" d="
  M 293.73 117.45
  Q 293.10 115.66 290.52 115.38
  Q 290.03 115.32 289.74 115.72
  Q 281.20 127.49 268.63 134.75"
/>
<path stroke="#36464e" vector-effect="non-scaling-stroke" d="
  M 268.63 134.75
  Q 270.11 132.04 269.87 129.85"
/>
<path stroke="#a28d81" vector-effect="non-scaling-stroke" d="
  M 269.87 129.85
  Q 279.39 123.77 287.15 113.36
  Q 287.45 112.95 287.19 112.53
  Q 280.13 101.32 285.92 90.01"
/>
<path stroke="#36464e" vector-effect="non-scaling-stroke" d="
  M 285.92 90.01
  Q 289.00 85.80 292.80 84.50
  Q 293.22 84.35 293.22 83.91
  Q 293.21 71.69 289.92 60.08
  C 282.97 35.57 265.51 21.52 238.71 22.46"
/>
<path stroke="#36464e" vector-effect="non-scaling-stroke" d="
  M 303.42 95.50
  C 302.68 92.29 301.12 89.97 298.02 88.97
  C 295.23 88.07 292.23 89.83 290.96 92.25
  Q 286.47 100.87 292.72 108.24
  Q 293.11 108.70 293.56 108.85
  Q 294.07 109.03 294.64 109.19
  A 0.24 0.24 0.0 0 0 294.81 108.74
  C 285.64 104.59 289.99 83.89 300.08 90.53
  C 301.87 91.72 302.23 93.74 303.22 95.57
  Q 303.61 96.30 303.42 95.50"
/>
<path stroke="#93796b" vector-effect="non-scaling-stroke" d="
  M 285.92 90.01
  Q 281.49 87.55 281.04 85.73
  C 280.41 83.21 279.78 79.81 278.18 77.84
  C 274.89 73.77 267.48 74.53 263.47 70.96
  C 258.70 66.72 261.40 59.31 255.38 55.98
  C 251.97 54.09 245.53 54.29 242.24 53.35
  Q 233.09 50.73 228.29 41.52
  Q 228.05 41.05 227.73 41.47
  Q 218.50 53.74 215.58 57.84
  C 207.72 68.90 209.37 80.71 210.79 92.84"
/>
<path stroke="#36464e" vector-effect="non-scaling-stroke" d="
  M 275.1437 56.1033
  A 0.24 0.24 0.0 0 0 275.0099 55.7913
  L 261.7883 50.5030
  A 0.24 0.24 0.0 0 0 261.4763 50.6367
  L 261.4763 50.6367
  A 0.24 0.24 0.0 0 0 261.6101 50.9487
  L 274.8317 56.2370
  A 0.24 0.24 0.0 0 0 275.1437 56.1033
  L 275.1437 56.1033"
/>
<path stroke="#93796b" vector-effect="non-scaling-stroke" d="
  M 269.87 129.85
  Q 261.46 132.11 254.20 137.05
  A 1.10 1.09 63.5 0 0 253.78 138.32
  Q 255.71 143.93 260.83 141.18
  Q 265.27 138.80 268.63 134.75"
/>
<path stroke="#9b7dc5" vector-effect="non-scaling-stroke" d="
  M 297.94 146.93
  C 298.19 148.44 298.49 149.45 297.64 150.84
  Q 287.79 166.83 277.78 182.90
  Q 277.45 183.42 276.94 183.08
  L 246.80 163.05
  Q 246.39 162.77 246.31 162.29
  L 245.50 157.51"
/>
<path stroke="#93796b" vector-effect="non-scaling-stroke" d="
  M 213.77 71.18
  L 225.30 69.10
  A 0.05 0.05 0.0 0 0 225.34 69.05
  L 225.33 68.99
  A 5.74 3.47 -10.2 0 0 219.07 66.59
  L 218.74 66.65
  A 5.74 3.47 -10.2 0 0 213.70 71.08
  L 213.71 71.14
  A 0.05 0.05 0.0 0 0 213.77 71.18"
/>
<path stroke="#93796b" vector-effect="non-scaling-stroke" d="
  M 246.43 71.59
  L 262.06 70.93
  A 0.03 0.03 0.0 0 0 262.09 70.90
  L 262.09 70.86
  A 7.65 3.51 -2.4 0 0 254.29 67.67
  L 253.90 67.69
  A 7.65 3.51 -2.4 0 0 246.40 71.52
  L 246.40 71.56
  A 0.03 0.03 0.0 0 0 246.43 71.59"
/>
<path stroke="#93796b" vector-effect="non-scaling-stroke" d="
  M 250.41 80.29
  Q 254.90 78.16 259.26 79.66
  A 0.46 0.46 0.0 0 0 259.66 78.83
  Q 253.28 74.80 247.85 79.96
  A 0.63 0.62 -72.3 0 0 248.40 81.03
  Q 249.21 80.86 250.41 80.29"
/>
<path stroke="#93796b" vector-effect="non-scaling-stroke" d="
  M 233.33 108.32
  A 1.03 1.02 -84.2 0 1 232.33 107.09
  L 237.57 81.12
  Q 237.64 80.76 237.30 80.63
  Q 236.92 80.47 236.81 80.83
  Q 233.79 91.45 231.28 105.01
  Q 230.94 106.81 231.10 108.06
  A 1.16 1.14 12.2 0 0 231.65 108.90
  C 234.23 110.42 236.69 108.74 239.32 108.71
  Q 239.48 108.71 239.56 108.54
  Q 239.67 108.29 239.40 108.29
  L 233.33 108.32"
/>
<path stroke="#93796b" vector-effect="non-scaling-stroke" d="
  M 215.64 85.84
  C 219.46 83.68 222.52 82.88 226.92 84.10
  Q 227.75 84.33 227.30 83.59
  Q 226.95 83.01 226.10 82.62
  Q 220.01 79.82 214.94 84.93
  A 0.58 0.58 0.0 0 0 215.64 85.84"
/>
<path stroke="#93796b" vector-effect="non-scaling-stroke" d="
  M 258.33 88.89
  A 3.12 3.12 0.0 0 0 255.21 85.77
  A 3.12 3.12 0.0 0 0 252.09 88.89
  A 3.12 3.12 0.0 0 0 255.21 92.01
  A 3.12 3.12 0.0 0 0 258.33 88.89"
/>
<path stroke="#93796b" vector-effect="non-scaling-stroke" d="
  M 226.90 93.99
  A 3.11 3.11 0.0 0 0 223.79 90.88
  A 3.11 3.11 0.0 0 0 220.68 93.99
  A 3.11 3.11 0.0 0 0 223.79 97.10
  A 3.11 3.11 0.0 0 0 226.90 93.99"
/>
<path stroke="#93796b" vector-effect="non-scaling-stroke" d="
  M 250.13 109.99
  C 249.80 115.35 246.47 118.32 241.51 119.66
  A 0.42 0.42 0.0 0 0 241.60 120.49
  C 247.22 120.77 252.92 115.94 250.97 109.89
  A 0.43 0.43 0.0 0 0 250.13 109.99"
/>
<path stroke="#7f81da" vector-effect="non-scaling-stroke" d="
  M 59.64 131.20
  L 59.46 137.06
  Q 59.44 137.60 58.94 137.77
  Q 56.29 138.69 55.08 136.54
  Q 55.00 136.40 54.84 136.41
  L 54.58 136.42
  Q 54.08 136.43 54.06 135.92
  L 53.98 132.68"
/>
<path stroke="#7f81da" vector-effect="non-scaling-stroke" d="
  M 102.63 166.16
  Q 102.16 165.53 100.50 165.52
  Q 83.33 165.42 66.13 165.52
  Q 65.62 165.52 65.63 166.04
  Q 66.00 181.42 65.53 196.61
  Q 65.80 196.58 65.26 196.71"
/>
<path stroke="#9b9df6" vector-effect="non-scaling-stroke" d="
  M 65.26 196.71
  Q 65.42 182.74 65.19 168.78
  Q 65.16 166.75 64.14 165.01
  Q 55.57 150.46 45.91 135.60"
/>
<path stroke="#2e3693" vector-effect="non-scaling-stroke" d="
  M 45.91 135.60
  Q 46.11 135.04 44.94 132.72"
/>
<path stroke="#9b9df6" vector-effect="non-scaling-stroke" d="
  M 63.84 141.70
  L 72.29 155.74"
/>
<path stroke="#7f81da" vector-effect="non-scaling-stroke" d="
  M 72.29 155.74
  Q 72.25 155.83 72.21 155.92"
/>
<path stroke="#2e32ca" vector-effect="non-scaling-stroke" d="
  M 72.21 155.92
  Q 72.82 159.73 77.47 158.04"
/>
<path stroke="#7f81da" vector-effect="non-scaling-stroke" d="
  M 77.47 158.04
  L 85.87 158.02"
/>
<path stroke="#2e32ca" vector-effect="non-scaling-stroke" d="
  M 85.87 158.02
  Q 87.91 159.22 89.10 157.90"
/>
<path stroke="#7f81da" vector-effect="non-scaling-stroke" d="
  M 89.10 157.90
  L 89.16 148.78
  Q 89.16 148.12 88.50 148.12
  L 74.30 148.01
  Q 73.63 148.01 73.61 148.67
  L 73.41 154.96"
/>
<path stroke="#9b9df6" vector-effect="non-scaling-stroke" d="
  M 73.41 154.96
  L 73.32 148.14
  Q 73.31 147.61 72.88 147.30
  L 64.42 141.34"
/>
<path stroke="#3e4aa9" vector-effect="non-scaling-stroke" d="
  M 64.42 141.34
  Q 64.68 140.09 63.40 139.57
  A 0.56 0.55 14.1 0 0 62.64 140.02
  Q 62.45 141.58 63.84 141.70"
/>
<path stroke="#a2adb2" vector-effect="non-scaling-stroke" d="
  M 64.42 141.34
  Q 63.41 141.21 63.84 141.70"
/>
<path stroke="#e3e3e3" vector-effect="non-scaling-stroke" d="
  M 73.41 154.96
  Q 72.71 156.05 72.29 155.74"
/>
<path stroke="#7778b7" vector-effect="non-scaling-stroke" d="
  M 89.10 157.90
  L 85.87 158.02"
/>
<path stroke="#7778b7" vector-effect="non-scaling-stroke" d="
  M 77.47 158.04
  Q 74.00 158.33 72.21 155.92"
/>
<path stroke="#93999c" vector-effect="non-scaling-stroke" d="
  M 45.91 135.60
  Q 37.14 149.89 28.82 163.79
  C 28.42 164.45 28.47 165.06 28.43 165.79"
/>
<path stroke="#2e3693" vector-effect="non-scaling-stroke" d="
  M 28.43 165.79
  Q 28.29 165.99 28.23 166.22"
/>
<path stroke="#2e3693" vector-effect="non-scaling-stroke" d="
  M 26.04 165.63
  Q 24.19 165.02 25.63 162.52"
/>
<path stroke="#e3e3e3" vector-effect="non-scaling-stroke" d="
  M 65.26 196.71
  Q 65.12 196.85 65.22 197.28"
/>
<path stroke="#a2adb2" vector-effect="non-scaling-stroke" d="
  M 65.22 197.28
  L 43.95 197.31"
/>
<path stroke="#9b9df6" vector-effect="non-scaling-stroke" d="
  M 28.42 197.36
  L 28.43 165.79"
/>
<path stroke="#a2adb2" vector-effect="non-scaling-stroke" d="
  M 49.79 158.43
  L 49.68 152.02
  Q 49.67 151.47 49.14 151.34
  Q 48.24 151.10 47.27 151.49"
/>
<path stroke="#93999c" vector-effect="non-scaling-stroke" d="
  M 47.27 151.49
  L 42.99 151.33
  Q 42.31 151.30 42.30 151.98
  L 42.21 158.24
  Q 42.21 158.74 42.70 158.72
  L 49.79 158.43"
/>
<path stroke="#36464e" vector-effect="non-scaling-stroke" d="
  M 47.27 151.49
  Q 47.44 151.84 47.35 152.28"
/>
<path stroke="#777d80" vector-effect="non-scaling-stroke" d="
  M 47.35 152.28
  L 47.33 157.41
  Q 47.33 157.90 47.75 158.16
  Q 48.78 158.77 49.46 157.73"
/>
<path stroke="#36464e" vector-effect="non-scaling-stroke" d="
  M 49.46 157.73
  Q 49.62 158.08 49.79 158.43"
/>
<path stroke="#869196" vector-effect="non-scaling-stroke" d="
  M 49.46 157.73
  L 49.33 152.73
  Q 49.32 152.23 48.89 151.97
  Q 48.10 151.50 47.35 152.28"
/>
<path stroke="#e3e3e3" vector-effect="non-scaling-stroke" d="
  M 30.87 171.20
  L 30.88 181.25
  Q 30.88 181.87 31.50 181.83
  L 34.43 181.67"
/>
<path stroke="#93999c" vector-effect="non-scaling-stroke" d="
  M 34.43 181.67
  L 39.23 181.67"
/>
<path stroke="#e3e3e3" vector-effect="non-scaling-stroke" d="
  M 39.23 181.67
  Q 41.24 182.20 42.48 181.59
  A 0.80 0.79 -13.3 0 0 42.92 180.88
  L 42.98 170.82
  A 0.67 0.67 0.0 0 0 42.31 170.15
  L 39.36 170.15"
/>
<path stroke="#93999c" vector-effect="non-scaling-stroke" d="
  M 39.36 170.15
  L 31.40 170.29
  Q 30.91 170.30 30.82 170.78
  Q 30.79 170.99 30.87 171.20"
/>
<path stroke="#777d80" vector-effect="non-scaling-stroke" d="
  M 39.36 170.15
  Q 37.95 175.78 39.23 181.67"
/>
<path stroke="#777d80" vector-effect="non-scaling-stroke" d="
  M 34.43 181.67
  L 34.55 171.43
  Q 34.56 170.94 34.11 170.78
  Q 32.23 170.08 31.10 171.47
  Q 31.01 171.59 30.98 171.44
  Q 30.94 171.18 30.87 171.20"
/>
<path stroke="#93999c" vector-effect="non-scaling-stroke" d="
  M 53.36 181.72
  L 57.54 181.68"
/>
<path stroke="#e3e3e3" vector-effect="non-scaling-stroke" d="
  M 57.54 181.68
  Q 58.91 182.23 60.92 181.78
  Q 61.52 181.65 61.52 181.04
  L 61.50 170.71
  Q 61.50 170.16 60.96 170.17
  L 58.23 170.22"
/>
<path stroke="#93999c" vector-effect="non-scaling-stroke" d="
  M 58.23 170.22
  L 52.91 170.19"
/>
<path stroke="#e3e3e3" vector-effect="non-scaling-stroke" d="
  M 52.91 170.19
  L 49.99 170.00
  Q 49.40 169.96 49.39 170.56
  L 49.24 180.46
  Q 49.22 182.24 50.98 182.02
  L 53.36 181.72"
/>
<path stroke="#777d80" vector-effect="non-scaling-stroke" d="
  M 52.91 170.19
  Q 54.03 175.49 53.36 181.72"
/>
<path stroke="#777d80" vector-effect="non-scaling-stroke" d="
  M 58.23 170.22
  L 57.54 181.68"
/>
<path stroke="#2e32ca" vector-effect="non-scaling-stroke" d="
  M 355.95 292.29
  Q 361.20 274.17 362.79 262.51
  Q 365.30 244.16 360.95 223.26
  Q 358.90 213.44 354.96 207.02"
/>
<path stroke="#2e3693" vector-effect="non-scaling-stroke" d="
  M 354.96 207.02
  L 351.50 198.53
  A 0.11 0.11 0.0 0 0 351.33 198.49
  Q 351.23 198.57 351.29 198.75
  C 358.23 218.45 358.18 238.48 355.96 258.99
  Q 354.77 269.95 353.96 280.97"
/>
<path stroke="#9b7dc5" vector-effect="non-scaling-stroke" d="
  M 113.83 257.11
  L 142.42 242.94"
/>
<path stroke="#2e32ca" vector-effect="non-scaling-stroke" d="
  M 283.99 188.23
  Q 283.29 189.32 283.81 189.98
  Q 284.19 190.47 284.22 190.53
  Q 288.18 197.85 293.51 204.24
  Q 294.52 205.44 295.64 204.66
  A 1.32 1.29 83.4 0 0 296.08 204.09
  Q 301.64 190.22 306.42 175.99
  Q 309.18 167.80 308.01 159.16"
/>
<path stroke="#2e3693" vector-effect="non-scaling-stroke" d="
  M 308.01 159.16
  L 307.80 156.65
  Q 307.75 156.13 307.48 156.58
  Q 307.26 156.94 307.37 157.39
  Q 307.48 157.87 307.34 158.35
  Q 301.71 176.94 294.34 194.91
  Q 294.12 195.45 293.67 195.09
  L 282.38 186.16
  Q 281.93 185.81 282.13 186.34
  Q 282.70 187.80 283.99 188.23"
/>
<path stroke="#262e6f" vector-effect="non-scaling-stroke" d="
  M 308.01 159.16
  Q 301.86 178.10 294.71 195.54
  A 0.74 0.74 0.0 0 1 293.57 195.84
  L 283.99 188.23"
/>
<path stroke="#2e3693" vector-effect="non-scaling-stroke" d="
  M 271.01 193.99
  L 273.14 189.55
  Q 273.64 188.51 272.95 189.44
  Q 271.51 191.39 271.01 193.99"
/>
<path stroke="#2e3693" vector-effect="non-scaling-stroke" d="
  M 271.01 193.99
  L 268.18 199.40
  Q 267.29 201.10 265.93 199.75
  L 239.78 173.71
  Q 239.66 173.59 239.55 173.72
  Q 239.51 173.76 239.49 173.82
  Q 239.45 173.96 239.63 174.14
  Q 252.02 186.74 264.62 199.13
  Q 265.75 200.25 267.16 201.12
  Q 267.61 201.41 267.83 200.92
  L 271.01 193.99"
/>
<path stroke="#2e3693" vector-effect="non-scaling-stroke" d="
  M 283.25 206.26
  Q 283.16 206.85 283.45 207.28
  A 0.13 0.13 0.0 0 0 283.68 207.22
  Q 283.83 206.02 283.33 204.92
  A 0.20 0.20 0.0 0 0 282.95 205.04
  Q 283.06 205.61 283.24 206.16
  A 0.53 0.48 42.1 0 1 283.25 206.26"
/>
<path stroke="#2e3693" vector-effect="non-scaling-stroke" d="
  M 290.26 283.75
  C 290.55 258.35 288.87 232.45 283.82 207.64
  Q 283.77 207.44 283.58 207.52
  Q 283.45 207.57 283.48 207.73
  Q 290.74 246.85 289.63 286.63
  C 289.55 289.64 289.09 294.83 289.30 299.01
  Q 289.32 299.37 289.62 299.16
  Q 289.80 299.04 289.78 298.74
  C 289.52 293.54 290.22 287.57 290.26 283.75"
/>
<path stroke="#2e3693" vector-effect="non-scaling-stroke" d="
  M 209.12 209.75
  C 208.17 219.15 208.95 229.63 209.25 237.56
  Q 209.70 249.43 211.47 261.19
  Q 211.50 261.41 211.65 261.29
  Q 211.72 261.23 211.77 261.14
  Q 211.85 261.02 211.84 260.82
  Q 210.98 251.18 209.96 241.55
  Q 209.11 233.55 209.13 209.63
  Q 209.13 209.62 209.12 209.62
  Q 209.12 209.62 209.12 209.63
  Q 209.12 209.69 209.12 209.75"
/>
<path stroke="#2e3693" vector-effect="non-scaling-stroke" d="
  M 345.41 233.03
  Q 345.30 233.34 345.33 234.25
  Q 345.67 245.76 346.54 257.24
  Q 346.76 260.12 344.32 262.82
  Q 337.43 270.41 330.28 277.85
  Q 329.92 278.22 329.46 278.00
  Q 322.22 274.54 315.03 270.98
  Q 314.87 270.90 314.69 270.95
  Q 314.42 271.03 314.67 271.16
  L 329.40 278.62
  Q 330.01 278.93 330.48 278.43
  L 345.80 262.10
  A 4.17 4.16 65.2 0 0 346.92 259.04
  L 345.61 231.63
  Q 345.58 230.90 344.85 230.99
  L 335.73 232.07
  Q 335.18 232.14 335.62 232.50
  C 335.70 232.56 342.99 231.66 344.31 231.58
  A 1.09 1.09 0.0 0 1 345.41 233.03"
/>
<path stroke="#2e3693" vector-effect="non-scaling-stroke" d="
  M 332.80 232.37
  C 331.44 231.95 327.79 232.83 326.56 233.14
  Q 326.51 233.15 326.51 233.20
  Q 326.52 233.23 326.52 233.25
  A 0.22 0.07 -4.6 0 0 326.75 233.30
  L 332.78 232.57
  Q 333.27 232.52 332.80 232.37"
/>
<path stroke="#2e3693" vector-effect="non-scaling-stroke" d="
  M 316.85 234.16
  C 318.10 234.22 319.04 233.69 320.16 233.65
  Q 320.17 233.65 320.16 233.63
  Q 320.16 233.62 320.16 233.60
  Q 320.16 233.50 320.15 233.51
  L 316.85 234.11
  A 0.03 0.02 -47.0 0 0 316.85 234.16"
/>
<path stroke="#2e3693" vector-effect="non-scaling-stroke" d="
  M 337.1489 242.5456
  A 0.25 0.25 0.0 0 0 336.8749 242.3221
  L 310.1126 245.0405
  A 0.25 0.25 0.0 0 0 309.8891 245.3145
  L 309.8911 245.3344
  A 0.25 0.25 0.0 0 0 310.1651 245.5579
  L 336.9274 242.8395
  A 0.25 0.25 0.0 0 0 337.1509 242.5655
  L 337.1489 242.5456"
/>
<path stroke="#2e3693" vector-effect="non-scaling-stroke" d="
  M 340.06 242.62
  A 0.22 0.22 0.0 0 0 340.01 242.19
  L 338.52 242.25
  A 0.23 0.23 0.0 0 0 338.51 242.71
  Q 339.29 242.77 340.06 242.62"
/>
<path stroke="#2e3693" vector-effect="non-scaling-stroke" d="
  M 308.28 266.68
  L 306.57 249.80
  A 0.07 0.07 0.0 0 0 306.43 249.81
  Q 306.83 258.70 307.96 267.54
  Q 308.03 268.08 308.52 268.32
  L 310.73 269.40
  A 0.19 0.19 0.0 0 0 310.90 269.06
  L 309.38 268.27
  A 2.04 2.03 10.4 0 1 308.28 266.68"
/>
<path stroke="#2e3693" vector-effect="non-scaling-stroke" d="
  M 126.15 275.94
  C 136.00 270.53 146.03 263.70 154.19 255.96
  A 0.12 0.12 0.0 0 0 154.11 255.75
  Q 153.97 255.73 153.85 255.84
  Q 140.67 267.03 125.76 275.79
  Q 125.68 275.84 125.76 275.90
  Q 125.79 275.93 125.83 275.95
  Q 125.96 276.05 126.15 275.94"
/>
<path stroke="#2e3693" vector-effect="non-scaling-stroke" d="
  M 158.7837 266.0382
  A 0.25 0.25 0.0 0 0 158.5315 265.7904
  L 158.5315 265.7904
  A 0.25 0.25 0.0 0 0 158.2837 266.0426
  L 158.4563 285.8218
  A 0.25 0.25 0.0 0 0 158.7085 286.0696
  L 158.7085 286.0696
  A 0.25 0.25 0.0 0 0 158.9563 285.8174
  L 158.7837 266.0382"
/>
<path stroke="#2e3693" vector-effect="non-scaling-stroke" d="
  M 289.5780 301.8769
  A 0.20 0.20 0.0 0 0 289.3985 301.6583
  L 289.3985 301.6583
  A 0.20 0.20 0.0 0 0 289.1800 301.8379
  L 287.2420 321.6031
  A 0.20 0.20 0.0 0 0 287.4215 321.8217
  L 287.4215 321.8217
  A 0.20 0.20 0.0 0 0 287.6400 321.6421
  L 289.5780 301.8769"
/>
<path stroke="#777d80" vector-effect="non-scaling-stroke" d="
  M 80.22 156.68
  L 82.82 156.82
  Q 83.41 156.85 83.39 156.26
  L 83.16 150.27
  Q 83.14 149.76 82.62 149.76
  L 79.97 149.75"
/>
<path stroke="#869196" vector-effect="non-scaling-stroke" d="
  M 79.97 149.75
  Q 78.93 149.23 78.18 149.59
  Q 77.71 149.80 77.71 150.32
  Q 77.67 153.04 77.60 155.79
  Q 77.55 157.65 80.22 156.68"
/>
<path stroke="#36464e" vector-effect="non-scaling-stroke" d="
  M 79.97 149.75
  Q 79.74 150.26 80.04 150.23"
/>
<path stroke="#869196" vector-effect="non-scaling-stroke" d="
  M 80.04 150.23
  Q 79.48 150.06 78.89 150.10
  A 0.56 0.56 0.0 0 0 78.37 150.67
  L 78.50 155.47
  Q 78.52 156.07 79.10 156.17
  Q 79.53 156.24 80.06 156.00"
/>
<path stroke="#36464e" vector-effect="non-scaling-stroke" d="
  M 80.06 156.00
  Q 79.61 156.23 80.22 156.68"
/>
<path stroke="#777d80" vector-effect="non-scaling-stroke" d="
  M 80.06 156.00
  L 80.04 150.23"
/>
<path stroke="#777d80" vector-effect="non-scaling-stroke" d="
  M 44.5548 152.6900
  A 0.89 0.89 0.0 0 0 43.6741 151.7907
  L 43.5741 151.7897
  A 0.89 0.89 0.0 0 0 42.6749 152.6703
  L 42.6252 157.4100
  A 0.89 0.89 0.0 0 0 43.5059 158.3093
  L 43.6059 158.3103
  A 0.89 0.89 0.0 0 0 44.5051 157.4297
  L 44.5548 152.6900"
/>
<path stroke="#7f81da" vector-effect="non-scaling-stroke" d="
  M 102.50 174.98
  L 102.38 195.44
  Q 102.37 197.49 100.33 197.46
  L 92.55 197.35"
/>
<path stroke="#777d80" vector-effect="non-scaling-stroke" d="
  M 90.97 197.32
  Q 90.18 197.43 89.55 197.27
  Q 89.00 197.13 89.00 196.56
  L 89.00 172.44
  Q 89.00 171.88 88.44 171.88
  L 79.75 171.85
  Q 79.20 171.84 79.20 172.40
  L 79.14 197.32"
/>
<path stroke="#869196" vector-effect="non-scaling-stroke" d="
  M 79.14 197.32
  L 65.22 197.28"
/>
<path stroke="#869196" vector-effect="non-scaling-stroke" d="
  M 74.79 181.67
  L 77.17 181.74
  Q 77.74 181.76 77.74 181.19
  L 77.63 171.29"
/>
<path stroke="#777d80" vector-effect="non-scaling-stroke" d="
  M 77.63 171.29
  Q 78.05 170.45 77.45 170.37
  Q 73.48 169.79 68.74 170.24
  Q 68.27 170.28 68.28 170.75
  L 68.28 181.02
  Q 68.29 181.61 68.88 181.62
  L 74.79 181.67"
/>
<path stroke="#36464e" vector-effect="non-scaling-stroke" d="
  M 77.63 171.29
  Q 77.58 171.50 77.08 171.19"
/>
<path stroke="#777d80" vector-effect="non-scaling-stroke" d="
  M 77.08 171.19
  Q 76.52 170.77 75.28 170.87
  Q 74.74 170.92 74.74 171.46
  L 74.81 181.21"
/>
<path stroke="#36464e" vector-effect="non-scaling-stroke" d="
  M 74.81 181.21
  Q 75.35 181.30 74.79 181.67"
/>
<path stroke="#869196" vector-effect="non-scaling-stroke" d="
  M 77.08 171.19
  Q 77.05 175.71 77.13 180.00
  Q 77.16 181.46 74.81 181.21"
/>
<path stroke="#777d80" vector-effect="non-scaling-stroke" d="
  M 93.71 181.62
  L 97.65 181.67
  Q 98.20 181.68 97.87 181.24
  Q 97.55 180.80 97.55 180.24
  Q 97.54 175.87 97.62 171.38
  A 0.57 0.57 0.0 0 1 98.20 170.82
  L 99.96 170.84
  A 0.24 0.24 0.0 0 0 99.97 170.36
  L 93.19 170.19"
/>
<path stroke="#869196" vector-effect="non-scaling-stroke" d="
  M 93.19 170.19
  Q 92.31 169.90 91.36 170.09
  Q 90.80 170.21 90.80 170.77
  L 90.82 181.03
  Q 90.83 181.56 91.34 181.66
  Q 92.54 181.89 93.71 181.62"
/>
<path stroke="#36464e" vector-effect="non-scaling-stroke" d="
  M 93.19 170.19
  Q 93.18 170.77 93.74 170.67"
/>
<path stroke="#869196" vector-effect="non-scaling-stroke" d="
  M 93.74 170.67
  L 92.59 170.85
  Q 92.13 170.93 92.13 171.40
  L 92.09 180.58
  Q 92.09 181.06 92.57 181.11
  L 93.84 181.22"
/>
<path stroke="#36464e" vector-effect="non-scaling-stroke" d="
  M 93.84 181.22
  Q 93.39 181.22 93.71 181.62"
/>
<path stroke="#777d80" vector-effect="non-scaling-stroke" d="
  M 93.84 181.22
  L 93.74 170.67"
/>
<path stroke="#9b7dc5" vector-effect="non-scaling-stroke" d="
  M 102.82 197.40
  L 92.34 197.56"
/>
<path stroke="#777d80" vector-effect="non-scaling-stroke" d="
  M 70.9841 171.3465
  A 0.72 0.72 0.0 0 0 70.2616 170.6291
  L 69.7016 170.6310
  A 0.72 0.72 0.0 0 0 68.9841 171.3535
  L 69.0159 180.4535
  A 0.72 0.72 0.0 0 0 69.7384 181.1709
  L 70.2984 181.1690
  A 0.72 0.72 0.0 0 0 71.0159 180.4465
  L 70.9841 171.3465"
/>
<path stroke="#93796b" vector-effect="non-scaling-stroke" d="
  M 87.74 197.69
  L 79.20 197.60"
/>
<path stroke="#36464e" vector-effect="non-scaling-stroke" d="
  M 79.20 197.60
  Q 78.46 197.20 79.14 197.32"
/>
<path stroke="#93999c" vector-effect="non-scaling-stroke" d="
  M 80.02 184.64
  L 80.02 184.95
  Q 80.04 185.96 80.79 185.29
  Q 81.56 184.59 81.00 184.15
  A 0.61 0.60 -71.3 0 0 80.02 184.64"
/>
<path stroke="#a28d81" vector-effect="non-scaling-stroke" d="
  M 79.20 197.60
  L 78.96 197.78
  Q 78.83 197.88 78.67 197.88
  L 47.62 197.93"
/>
<path stroke="#262e6f" vector-effect="non-scaling-stroke" d="
  M 354.96 207.02
  Q 358.55 226.26 357.49 244.98
  Q 357.25 249.23 357.08 253.48
  Q 356.93 257.42 356.32 261.96
  Q 355.08 271.30 354.77 280.71"
/>
</g>
<path fill="#263238" d="
  M 290.57 0.00
  L 298.02 0.00
  C 317.46 2.38 331.31 22.34 314.92 38.87
  Q 314.57 39.23 314.93 39.57
  Q 320.58 44.85 327.98 47.18
  Q 328.59 47.38 328.15 47.84
  C 324.33 51.82 319.45 51.35 314.42 51.30
  Q 313.68 51.30 314.12 51.89
  Q 316.55 55.14 320.43 56.38
  A 0.29 0.29 0.0 0 1 320.40 56.94
  Q 314.54 57.99 308.73 56.55
  Q 308.09 56.40 308.29 57.02
  Q 309.04 59.33 309.74 61.46
  Q 316.98 83.17 306.39 103.37
  Q 306.53 94.78 302.70 88.82
  Q 300.61 85.57 296.96 84.43
  Q 296.51 84.29 296.52 83.82
  C 297.17 57.78 285.93 29.44 258.83 21.39
  Q 256.14 20.59 253.44 19.69
  Q 260.00 18.87 266.53 20.54
  Q 267.12 20.69 267.16 20.08
  C 268.06 7.27 278.78 1.34 290.57 0.00
  Z"
/>
<path fill="#455a64" d="
  M 253.44 19.69
  Q 256.14 20.59 258.83 21.39
  C 285.93 29.44 297.17 57.78 296.52 83.82
  Q 296.51 84.29 296.96 84.43
  Q 300.61 85.57 302.70 88.82
  Q 306.53 94.78 306.39 103.37
  Q 305.27 106.19 304.03 109.77
  Q 303.26 112.02 300.58 114.20
  C 298.66 115.77 296.05 116.21 293.73 117.45
  Q 293.10 115.66 290.52 115.38
  Q 290.03 115.32 289.74 115.72
  Q 281.20 127.49 268.63 134.75
  Q 270.11 132.04 269.87 129.85
  Q 279.39 123.77 287.15 113.36
  Q 287.45 112.95 287.19 112.53
  Q 280.13 101.32 285.92 90.01
  Q 289.00 85.80 292.80 84.50
  Q 293.22 84.35 293.22 83.91
  Q 293.21 71.69 289.92 60.08
  C 282.97 35.57 265.51 21.52 238.71 22.46
  C 243.02 17.16 248.67 19.51 253.44 19.69
  Z
  M 303.42 95.50
  C 302.68 92.29 301.12 89.97 298.02 88.97
  C 295.23 88.07 292.23 89.83 290.96 92.25
  Q 286.47 100.87 292.72 108.24
  Q 293.11 108.70 293.56 108.85
  Q 294.07 109.03 294.64 109.19
  A 0.24 0.24 0.0 0 0 294.81 108.74
  C 285.64 104.59 289.99 83.89 300.08 90.53
  C 301.87 91.72 302.23 93.74 303.22 95.57
  Q 303.61 96.30 303.42 95.50
  Z"
/>
<path fill="#263238" d="
  M 238.71 22.46
  C 265.51 21.52 282.97 35.57 289.92 60.08
  Q 293.21 71.69 293.22 83.91
  Q 293.22 84.35 292.80 84.50
  Q 289.00 85.80 285.92 90.01
  Q 281.49 87.55 281.04 85.73
  C 280.41 83.21 279.78 79.81 278.18 77.84
  C 274.89 73.77 267.48 74.53 263.47 70.96
  C 258.70 66.72 261.40 59.31 255.38 55.98
  C 251.97 54.09 245.53 54.29 242.24 53.35
  Q 233.09 50.73 228.29 41.52
  Q 228.05 41.05 227.73 41.47
  Q 218.50 53.74 215.58 57.84
  C 207.72 68.90 209.37 80.71 210.79 92.84
  C 198.31 75.96 197.01 56.88 211.23 40.57
  C 213.20 38.31 214.93 35.84 217.06 33.95
  Q 223.27 28.45 231.02 25.33
  Q 235.17 23.66 238.71 22.46
  Z
  M 275.1437 56.1033
  A 0.24 0.24 0.0 0 1 274.8317 56.2370
  L 261.6101 50.9487
  A 0.24 0.24 0.0 0 1 261.4763 50.6367
  L 261.4763 50.6367
  A 0.24 0.24 0.0 0 1 261.7883 50.5030
  L 275.0099 55.7913
  A 0.24 0.24 0.0 0 1 275.1437 56.1033
  L 275.1437 56.1033
  Z"
/>
<path fill="#ffbf9d" d="
  M 285.92 90.01
  Q 280.13 101.32 287.19 112.53
  Q 287.45 112.95 287.15 113.36
  Q 279.39 123.77 269.87 129.85
  Q 261.46 132.11 254.20 137.05
  A 1.10 1.09 63.5 0 0 253.78 138.32
  Q 255.71 143.93 260.83 141.18
  Q 265.27 138.80 268.63 134.75
  Q 281.20 127.49 289.74 115.72
  Q 290.03 115.32 290.52 115.38
  Q 293.10 115.66 293.73 117.45
  L 297.94 146.93
  C 298.19 148.44 298.49 149.45 297.64 150.84
  Q 287.79 166.83 277.78 182.90
  Q 277.45 183.42 276.94 183.08
  L 246.80 163.05
  Q 246.39 162.77 246.31 162.29
  L 245.50 157.51
  L 243.93 149.68
  Q 243.82 149.15 243.29 149.08
  C 221.86 146.13 216.48 127.24 213.21 109.23
  Q 211.72 101.03 210.79 92.84
  C 209.37 80.71 207.72 68.90 215.58 57.84
  Q 218.50 53.74 227.73 41.47
  Q 228.05 41.05 228.29 41.52
  Q 233.09 50.73 242.24 53.35
  C 245.53 54.29 251.97 54.09 255.38 55.98
  C 261.40 59.31 258.70 66.72 263.47 70.96
  C 267.48 74.53 274.89 73.77 278.18 77.84
  C 279.78 79.81 280.41 83.21 281.04 85.73
  Q 281.49 87.55 285.92 90.01
  Z
  M 213.77 71.18
  L 225.30 69.10
  A 0.05 0.05 0.0 0 0 225.34 69.05
  L 225.33 68.99
  A 5.74 3.47 -10.2 0 0 219.07 66.59
  L 218.74 66.65
  A 5.74 3.47 -10.2 0 0 213.70 71.08
  L 213.71 71.14
  A 0.05 0.05 0.0 0 0 213.77 71.18
  Z
  M 246.43 71.59
  L 262.06 70.93
  A 0.03 0.03 0.0 0 0 262.09 70.90
  L 262.09 70.86
  A 7.65 3.51 -2.4 0 0 254.29 67.67
  L 253.90 67.69
  A 7.65 3.51 -2.4 0 0 246.40 71.52
  L 246.40 71.56
  A 0.03 0.03 0.0 0 0 246.43 71.59
  Z
  M 250.41 80.29
  Q 254.90 78.16 259.26 79.66
  A 0.46 0.46 0.0 0 0 259.66 78.83
  Q 253.28 74.80 247.85 79.96
  A 0.63 0.62 -72.3 0 0 248.40 81.03
  Q 249.21 80.86 250.41 80.29
  Z
  M 233.33 108.32
  A 1.03 1.02 -84.2 0 1 232.33 107.09
  L 237.57 81.12
  Q 237.64 80.76 237.30 80.63
  Q 236.92 80.47 236.81 80.83
  Q 233.79 91.45 231.28 105.01
  Q 230.94 106.81 231.10 108.06
  A 1.16 1.14 12.2 0 0 231.65 108.90
  C 234.23 110.42 236.69 108.74 239.32 108.71
  Q 239.48 108.71 239.56 108.54
  Q 239.67 108.29 239.40 108.29
  L 233.33 108.32
  Z
  M 215.64 85.84
  C 219.46 83.68 222.52 82.88 226.92 84.10
  Q 227.75 84.33 227.30 83.59
  Q 226.95 83.01 226.10 82.62
  Q 220.01 79.82 214.94 84.93
  A 0.58 0.58 0.0 0 0 215.64 85.84
  Z
  M 258.33 88.89
  A 3.12 3.12 0.0 0 0 255.21 85.77
  A 3.12 3.12 0.0 0 0 252.09 88.89
  A 3.12 3.12 0.0 0 0 255.21 92.01
  A 3.12 3.12 0.0 0 0 258.33 88.89
  Z
  M 226.90 93.99
  A 3.11 3.11 0.0 0 0 223.79 90.88
  A 3.11 3.11 0.0 0 0 220.68 93.99
  A 3.11 3.11 0.0 0 0 223.79 97.10
  A 3.11 3.11 0.0 0 0 226.90 93.99
  Z
  M 250.13 109.99
  C 249.80 115.35 246.47 118.32 241.51 119.66
  A 0.42 0.42 0.0 0 0 241.60 120.49
  C 247.22 120.77 252.92 115.94 250.97 109.89
  A 0.43 0.43 0.0 0 0 250.13 109.99
  Z"
/>
<rect fill="#455a64" x="-7.36" y="-0.24" transform="translate(268.31,53.37) rotate(21.8)" width="14.72" height="0.48" rx="0.24"/>
<path fill="#263238" d="
  M 213.77 71.18
  A 0.05 0.05 0.0 0 1 213.71 71.14
  L 213.70 71.08
  A 5.74 3.47 -10.2 0 1 218.74 66.65
  L 219.07 66.59
  A 5.74 3.47 -10.2 0 1 225.33 68.99
  L 225.34 69.05
  A 0.05 0.05 0.0 0 1 225.30 69.10
  L 213.77 71.18
  Z"
/>
<path fill="#263238" d="
  M 246.43 71.59
  A 0.03 0.03 0.0 0 1 246.40 71.56
  L 246.40 71.52
  A 7.65 3.51 -2.4 0 1 253.90 67.69
  L 254.29 67.67
  A 7.65 3.51 -2.4 0 1 262.09 70.86
  L 262.09 70.90
  A 0.03 0.03 0.0 0 1 262.06 70.93
  L 246.43 71.59
  Z"
/>
<path fill="#263238" d="
  M 250.41 80.29
  Q 249.21 80.86 248.40 81.03
  A 0.63 0.62 -72.3 0 1 247.85 79.96
  Q 253.28 74.80 259.66 78.83
  A 0.46 0.46 0.0 0 1 259.26 79.66
  Q 254.90 78.16 250.41 80.29
  Z"
/>
<path fill="#263238" d="
  M 233.33 108.32
  L 239.40 108.29
  Q 239.67 108.29 239.56 108.54
  Q 239.48 108.71 239.32 108.71
  C 236.69 108.74 234.23 110.42 231.65 108.90
  A 1.16 1.14 12.2 0 1 231.10 108.06
  Q 230.94 106.81 231.28 105.01
  Q 233.79 91.45 236.81 80.83
  Q 236.92 80.47 237.30 80.63
  Q 237.64 80.76 237.57 81.12
  L 232.33 107.09
  A 1.03 1.02 -84.2 0 0 233.33 108.32
  Z"
/>
<path fill="#263238" d="
  M 226.92 84.10
  C 222.52 82.88 219.46 83.68 215.64 85.84
  A 0.58 0.58 0.0 0 1 214.94 84.93
  Q 220.01 79.82 226.10 82.62
  Q 226.95 83.01 227.30 83.59
  Q 227.75 84.33 226.92 84.10
  Z"
/>
<circle fill="#263238" cx="255.21" cy="88.89" r="3.12"/>
<path fill="#263238" d="
  M 298.02 88.97
  C 301.12 89.97 302.68 92.29 303.42 95.50
  Q 303.61 96.30 303.22 95.57
  C 302.23 93.74 301.87 91.72 300.08 90.53
  C 289.99 83.89 285.64 104.59 294.81 108.74
  A 0.24 0.24 0.0 0 1 294.64 109.19
  Q 294.07 109.03 293.56 108.85
  Q 293.11 108.70 292.72 108.24
  Q 286.47 100.87 290.96 92.25
  C 292.23 89.83 295.23 88.07 298.02 88.97
  Z"
/>
<circle fill="#263238" cx="223.79" cy="93.99" r="3.11"/>
<path fill="#263238" d="
  M 241.51 119.66
  C 246.47 118.32 249.80 115.35 250.13 109.99
  A 0.43 0.43 0.0 0 1 250.97 109.89
  C 252.92 115.94 247.22 120.77 241.60 120.49
  A 0.42 0.42 0.0 0 1 241.51 119.66
  Z"
/>
<path fill="#263238" d="
  M 101.57 120.48
  L 98.42 122.33
  Q 98.04 122.55 97.66 122.35
  L 96.88 121.94
  Q 100.82 116.49 101.57 120.48
  Z"
/>
<path fill="#363aed" d="
  M 96.52 127.58
  L 98.27 127.64
  A 0.77 0.77 0.0 0 0 98.79 126.27
  Q 96.67 124.53 95.93 126.96
  L 94.17 124.90
  Q 93.87 124.55 94.19 124.22
  Q 95.22 123.14 96.73 123.14
  Q 97.28 123.14 97.36 122.59
  Q 97.43 122.13 96.88 121.94
  L 97.66 122.35
  Q 98.04 122.55 98.42 122.33
  L 101.57 120.48
  L 103.19 119.77
  Q 103.68 119.55 103.69 120.10
  Q 103.72 122.99 101.78 124.85
  Q 101.24 125.37 101.95 125.59
  Q 103.31 126.02 103.16 127.76
  A 1.10 1.09 -69.8 0 1 101.43 128.56
  L 100.50 127.88
  Q 100.06 127.56 99.55 127.72
  Q 97.95 128.23 96.52 127.58
  Z"
/>
<path fill="#ffffff" d="
  M 96.52 127.58
  L 95.93 126.96
  Q 96.67 124.53 98.79 126.27
  A 0.77 0.77 0.0 0 1 98.27 127.64
  L 96.52 127.58
  Z"
/>
<path fill="#c7c7c7" d="
  M 59.64 131.20
  L 59.46 137.06
  Q 59.44 137.60 58.94 137.77
  Q 56.29 138.69 55.08 136.54
  Q 55.00 136.40 54.84 136.41
  L 54.58 136.42
  Q 54.08 136.43 54.06 135.92
  L 53.98 132.68
  L 53.98 128.29
  Q 53.98 127.79 54.48 127.79
  L 59.24 127.79
  Q 59.69 127.79 59.68 128.23
  L 59.64 131.20
  Z"
/>
<path fill="#263238" d="
  M 269.87 129.85
  Q 270.11 132.04 268.63 134.75
  Q 265.27 138.80 260.83 141.18
  Q 255.71 143.93 253.78 138.32
  A 1.10 1.09 63.5 0 1 254.20 137.05
  Q 261.46 132.11 269.87 129.85
  Z"
/>
<path fill="#363aed" d="
  M 59.64 131.20
  Q 59.49 132.72 60.24 132.71
  Q 72.06 132.60 83.89 132.70
  Q 84.47 132.70 84.78 133.20
  L 104.47 164.77
  Q 105.02 165.65 104.00 165.48
  Q 102.72 165.27 102.63 166.16
  Q 102.16 165.53 100.50 165.52
  Q 83.33 165.42 66.13 165.52
  Q 65.62 165.52 65.63 166.04
  Q 66.00 181.42 65.53 196.61
  Q 65.80 196.58 65.26 196.71
  Q 65.42 182.74 65.19 168.78
  Q 65.16 166.75 64.14 165.01
  Q 55.57 150.46 45.91 135.60
  Q 46.11 135.04 44.94 132.72
  L 53.98 132.68
  L 54.06 135.92
  Q 54.08 136.43 54.58 136.42
  L 54.84 136.41
  Q 55.00 136.40 55.08 136.54
  Q 56.29 138.69 58.94 137.77
  Q 59.44 137.60 59.46 137.06
  L 59.64 131.20
  Z
  M 63.84 141.70
  L 72.29 155.74
  Q 72.25 155.83 72.21 155.92
  Q 72.82 159.73 77.47 158.04
  L 85.87 158.02
  Q 87.91 159.22 89.10 157.90
  L 89.16 148.78
  Q 89.16 148.12 88.50 148.12
  L 74.30 148.01
  Q 73.63 148.01 73.61 148.67
  L 73.41 154.96
  L 73.32 148.14
  Q 73.31 147.61 72.88 147.30
  L 64.42 141.34
  Q 64.68 140.09 63.40 139.57
  A 0.56 0.55 14.1 0 0 62.64 140.02
  Q 62.45 141.58 63.84 141.70
  Z"
/>
<path fill="#263238" d="
  M 44.94 132.72
  Q 46.11 135.04 45.91 135.60
  Q 37.14 149.89 28.82 163.79
  C 28.42 164.45 28.47 165.06 28.43 165.79
  Q 28.29 165.99 28.23 166.22
  Q 27.75 165.03 26.04 165.63
  Q 24.19 165.02 25.63 162.52
  L 44.09 133.05
  Q 44.27 132.76 44.59 132.63
  Q 45.04 132.46 44.94 132.72
  Z"
/>
<path fill="#ffffff" d="
  M 45.91 135.60
  Q 55.57 150.46 64.14 165.01
  Q 65.16 166.75 65.19 168.78
  Q 65.42 182.74 65.26 196.71
  Q 65.12 196.85 65.22 197.28
  L 43.95 197.31
  L 28.42 197.36
  L 28.43 165.79
  C 28.47 165.06 28.42 164.45 28.82 163.79
  Q 37.14 149.89 45.91 135.60
  Z
  M 49.79 158.43
  L 49.68 152.02
  Q 49.67 151.47 49.14 151.34
  Q 48.24 151.10 47.27 151.49
  L 42.99 151.33
  Q 42.31 151.30 42.30 151.98
  L 42.21 158.24
  Q 42.21 158.74 42.70 158.72
  L 49.79 158.43
  Z
  M 30.87 171.20
  L 30.88 181.25
  Q 30.88 181.87 31.50 181.83
  L 34.43 181.67
  L 39.23 181.67
  Q 41.24 182.20 42.48 181.59
  A 0.80 0.79 -13.3 0 0 42.92 180.88
  L 42.98 170.82
  A 0.67 0.67 0.0 0 0 42.31 170.15
  L 39.36 170.15
  L 31.40 170.29
  Q 30.91 170.30 30.82 170.78
  Q 30.79 170.99 30.87 171.20
  Z
  M 53.36 181.72
  L 57.54 181.68
  Q 58.91 182.23 60.92 181.78
  Q 61.52 181.65 61.52 181.04
  L 61.50 170.71
  Q 61.50 170.16 60.96 170.17
  L 58.23 170.22
  L 52.91 170.19
  L 49.99 170.00
  Q 49.40 169.96 49.39 170.56
  L 49.24 180.46
  Q 49.22 182.24 50.98 182.02
  L 53.36 181.72
  Z"
/>
<path fill="#455a64" d="
  M 64.42 141.34
  Q 63.41 141.21 63.84 141.70
  Q 62.45 141.58 62.64 140.02
  A 0.56 0.55 14.1 0 1 63.40 139.57
  Q 64.68 140.09 64.42 141.34
  Z"
/>
<path fill="#263238" d="
  M 16.22 145.84
  L 11.89 143.30
  Q 12.36 142.63 12.49 141.80
  Q 12.57 141.34 13.00 141.50
  Q 16.34 142.71 16.22 145.84
  Z"
/>
<path fill="#ffffff" d="
  M 64.42 141.34
  L 72.88 147.30
  Q 73.31 147.61 73.32 148.14
  L 73.41 154.96
  Q 72.71 156.05 72.29 155.74
  L 63.84 141.70
  Q 63.41 141.21 64.42 141.34
  Z"
/>
<path fill="#363aed" d="
  M 11.89 143.30
  L 16.22 145.84
  Q 17.86 145.90 19.13 146.92
  Q 19.53 147.24 19.20 147.64
  L 17.03 150.18
  Q 17.33 148.78 16.47 148.24
  A 1.33 1.33 0.0 0 0 14.85 150.34
  Q 14.94 150.42 16.26 150.69
  Q 13.53 150.16 11.82 151.27
  Q 11.37 151.56 10.92 151.27
  Q 9.61 150.42 10.61 148.74
  Q 10.86 148.31 11.35 148.40
  Q 11.55 148.44 11.79 148.41
  Q 12.72 148.30 11.96 147.75
  L 10.34 146.57
  A 0.81 0.80 25.7 0 1 10.03 145.70
  Q 10.40 144.29 9.62 143.03
  Q 9.03 142.07 10.06 142.51
  L 11.89 143.30
  Z"
/>
<path fill="#363aed" d="
  M 297.94 146.93
  C 301.42 149.47 305.87 153.78 310.05 154.61
  Q 325.09 157.60 340.00 160.83
  Q 349.76 162.94 354.99 165.51
  Q 369.86 172.84 377.36 187.45
  Q 380.12 192.84 382.74 203.91
  Q 388.69 229.06 394.18 254.24
  Q 403.72 297.94 405.00 342.63
  L 405.00 351.00
  L 402.00 351.00
  L 365.62 351.00
  L 361.85 351.00
  L 355.95 292.29
  Q 361.20 274.17 362.79 262.51
  Q 365.30 244.16 360.95 223.26
  Q 358.90 213.44 354.96 207.02
  L 351.50 198.53
  A 0.11 0.11 0.0 0 0 351.33 198.49
  Q 351.23 198.57 351.29 198.75
  C 358.23 218.45 358.18 238.48 355.96 258.99
  Q 354.77 269.95 353.96 280.97
  Q 351.72 303.10 349.56 325.27
  Q 349.27 328.25 350.02 331.15
  Q 352.46 340.67 354.91 350.20
  Q 355.03 350.67 354.55 350.77
  L 353.42 351.00
  Q 353.34 350.99 353.25 351.00
  L 218.63 351.00
  L 214.55 351.00
  L 223.83 327.68
  Q 224.01 327.22 223.94 326.74
  Q 219.96 298.21 213.24 270.25
  Q 212.29 266.29 211.73 262.39
  A 0.32 0.32 0.0 0 0 211.14 262.26
  Q 198.97 280.83 185.07 298.26
  Q 178.15 306.95 173.60 309.86
  C 164.53 315.67 150.38 317.54 141.89 309.90
  Q 139.27 307.53 133.15 297.28
  Q 127.89 288.48 123.19 279.39
  Q 122.96 278.95 122.49 278.78
  Q 117.23 276.94 113.34 271.67
  C 109.75 266.82 105.10 260.72 113.83 257.11
  L 142.42 242.94
  Q 144.58 241.84 146.94 240.56
  C 149.52 239.17 151.12 240.38 152.54 242.65
  C 154.94 246.51 156.94 250.81 155.70 255.25
  A 1.13 1.10 -54.2 0 0 155.83 256.14
  L 157.80 259.25
  Q 158.17 259.83 158.49 259.23
  Q 170.80 236.19 181.12 212.21
  C 186.07 200.72 193.62 189.15 203.95 182.36
  Q 207.94 179.73 215.49 177.21
  Q 225.89 173.74 236.23 170.15
  A 1.61 1.57 7.3 0 0 237.00 169.57
  L 245.50 157.51
  L 246.31 162.29
  Q 246.39 162.77 246.80 163.05
  L 276.94 183.08
  Q 277.45 183.42 277.78 182.90
  Q 287.79 166.83 297.64 150.84
  C 298.49 149.45 298.19 148.44 297.94 146.93
  Z
  M 283.99 188.23
  Q 283.29 189.32 283.81 189.98
  Q 284.19 190.47 284.22 190.53
  Q 288.18 197.85 293.51 204.24
  Q 294.52 205.44 295.64 204.66
  A 1.32 1.29 83.4 0 0 296.08 204.09
  Q 301.64 190.22 306.42 175.99
  Q 309.18 167.80 308.01 159.16
  L 307.80 156.65
  Q 307.75 156.13 307.48 156.58
  Q 307.26 156.94 307.37 157.39
  Q 307.48 157.87 307.34 158.35
  Q 301.71 176.94 294.34 194.91
  Q 294.12 195.45 293.67 195.09
  L 282.38 186.16
  Q 281.93 185.81 282.13 186.34
  Q 282.70 187.80 283.99 188.23
  Z
  M 271.01 193.99
  L 273.14 189.55
  Q 273.64 188.51 272.95 189.44
  Q 271.51 191.39 271.01 193.99
  L 268.18 199.40
  Q 267.29 201.10 265.93 199.75
  L 239.78 173.71
  Q 239.66 173.59 239.55 173.72
  Q 239.51 173.76 239.49 173.82
  Q 239.45 173.96 239.63 174.14
  Q 252.02 186.74 264.62 199.13
  Q 265.75 200.25 267.16 201.12
  Q 267.61 201.41 267.83 200.92
  L 271.01 193.99
  Z
  M 283.25 206.26
  Q 283.16 206.85 283.45 207.28
  A 0.13 0.13 0.0 0 0 283.68 207.22
  Q 283.83 206.02 283.33 204.92
  A 0.20 0.20 0.0 0 0 282.95 205.04
  Q 283.06 205.61 283.24 206.16
  A 0.53 0.48 42.1 0 1 283.25 206.26
  Z
  M 290.26 283.75
  C 290.55 258.35 288.87 232.45 283.82 207.64
  Q 283.77 207.44 283.58 207.52
  Q 283.45 207.57 283.48 207.73
  Q 290.74 246.85 289.63 286.63
  C 289.55 289.64 289.09 294.83 289.30 299.01
  Q 289.32 299.37 289.62 299.16
  Q 289.80 299.04 289.78 298.74
  C 289.52 293.54 290.22 287.57 290.26 283.75
  Z
  M 209.12 209.75
  C 208.17 219.15 208.95 229.63 209.25 237.56
  Q 209.70 249.43 211.47 261.19
  Q 211.50 261.41 211.65 261.29
  Q 211.72 261.23 211.77 261.14
  Q 211.85 261.02 211.84 260.82
  Q 210.98 251.18 209.96 241.55
  Q 209.11 233.55 209.13 209.63
  Q 209.13 209.62 209.12 209.62
  Q 209.12 209.62 209.12 209.63
  Q 209.12 209.69 209.12 209.75
  Z
  M 345.41 233.03
  Q 345.30 233.34 345.33 234.25
  Q 345.67 245.76 346.54 257.24
  Q 346.76 260.12 344.32 262.82
  Q 337.43 270.41 330.28 277.85
  Q 329.92 278.22 329.46 278.00
  Q 322.22 274.54 315.03 270.98
  Q 314.87 270.90 314.69 270.95
  Q 314.42 271.03 314.67 271.16
  L 329.40 278.62
  Q 330.01 278.93 330.48 278.43
  L 345.80 262.10
  A 4.17 4.16 65.2 0 0 346.92 259.04
  L 345.61 231.63
  Q 345.58 230.90 344.85 230.99
  L 335.73 232.07
  Q 335.18 232.14 335.62 232.50
  C 335.70 232.56 342.99 231.66 344.31 231.58
  A 1.09 1.09 0.0 0 1 345.41 233.03
  Z
  M 332.80 232.37
  C 331.44 231.95 327.79 232.83 326.56 233.14
  Q 326.51 233.15 326.51 233.20
  Q 326.52 233.23 326.52 233.25
  A 0.22 0.07 -4.6 0 0 326.75 233.30
  L 332.78 232.57
  Q 333.27 232.52 332.80 232.37
  Z
  M 316.85 234.16
  C 318.10 234.22 319.04 233.69 320.16 233.65
  Q 320.17 233.65 320.16 233.63
  Q 320.16 233.62 320.16 233.60
  Q 320.16 233.50 320.15 233.51
  L 316.85 234.11
  A 0.03 0.02 -47.0 0 0 316.85 234.16
  Z
  M 337.1489 242.5456
  A 0.25 0.25 0.0 0 0 336.8749 242.3221
  L 310.1126 245.0405
  A 0.25 0.25 0.0 0 0 309.8891 245.3145
  L 309.8911 245.3344
  A 0.25 0.25 0.0 0 0 310.1651 245.5579
  L 336.9274 242.8395
  A 0.25 0.25 0.0 0 0 337.1509 242.5655
  L 337.1489 242.5456
  Z
  M 340.06 242.62
  A 0.22 0.22 0.0 0 0 340.01 242.19
  L 338.52 242.25
  A 0.23 0.23 0.0 0 0 338.51 242.71
  Q 339.29 242.77 340.06 242.62
  Z
  M 308.28 266.68
  L 306.57 249.80
  A 0.07 0.07 0.0 0 0 306.43 249.81
  Q 306.83 258.70 307.96 267.54
  Q 308.03 268.08 308.52 268.32
  L 310.73 269.40
  A 0.19 0.19 0.0 0 0 310.90 269.06
  L 309.38 268.27
  A 2.04 2.03 10.4 0 1 308.28 266.68
  Z
  M 126.15 275.94
  C 136.00 270.53 146.03 263.70 154.19 255.96
  A 0.12 0.12 0.0 0 0 154.11 255.75
  Q 153.97 255.73 153.85 255.84
  Q 140.67 267.03 125.76 275.79
  Q 125.68 275.84 125.76 275.90
  Q 125.79 275.93 125.83 275.95
  Q 125.96 276.05 126.15 275.94
  Z
  M 158.9563 285.8174
  A 0.25 0.25 0.0 0 1 158.7085 286.0696
  L 158.7085 286.0696
  A 0.25 0.25 0.0 0 1 158.4563 285.8218
  L 158.2837 266.0426
  A 0.25 0.25 0.0 0 1 158.5315 265.7904
  L 158.5315 265.7904
  A 0.25 0.25 0.0 0 1 158.7837 266.0382
  L 158.9563 285.8174
  Z
  M 287.6400 321.6421
  A 0.20 0.20 0.0 0 1 287.4215 321.8217
  L 287.4215 321.8217
  A 0.20 0.20 0.0 0 1 287.2420 321.6031
  L 289.1800 301.8379
  A 0.20 0.20 0.0 0 1 289.3985 301.6583
  L 289.3985 301.6583
  A 0.20 0.20 0.0 0 1 289.5780 301.8769
  L 287.6400 321.6421
  Z"
/>
<path fill="#c7c7c7" d="
  M 89.10 157.90
  L 85.87 158.02
  L 77.47 158.04
  Q 74.00 158.33 72.21 155.92
  Q 72.25 155.83 72.29 155.74
  Q 72.71 156.05 73.41 154.96
  L 73.61 148.67
  Q 73.63 148.01 74.30 148.01
  L 88.50 148.12
  Q 89.16 148.12 89.16 148.78
  L 89.10 157.90
  Z
  M 80.22 156.68
  L 82.82 156.82
  Q 83.41 156.85 83.39 156.26
  L 83.16 150.27
  Q 83.14 149.76 82.62 149.76
  L 79.97 149.75
  Q 78.93 149.23 78.18 149.59
  Q 77.71 149.80 77.71 150.32
  Q 77.67 153.04 77.60 155.79
  Q 77.55 157.65 80.22 156.68
  Z"
/>
<path fill="#ffffff" d="
  M 17.03 150.18
  Q 16.32 150.26 16.26 150.69
  Q 14.94 150.42 14.85 150.34
  A 1.33 1.33 0.0 0 1 16.47 148.24
  Q 17.33 148.78 17.03 150.18
  Z"
/>
<path fill="#455a64" d="
  M 79.97 149.75
  Q 79.74 150.26 80.04 150.23
  Q 79.48 150.06 78.89 150.10
  A 0.56 0.56 0.0 0 0 78.37 150.67
  L 78.50 155.47
  Q 78.52 156.07 79.10 156.17
  Q 79.53 156.24 80.06 156.00
  Q 79.61 156.23 80.22 156.68
  Q 77.55 157.65 77.60 155.79
  Q 77.67 153.04 77.71 150.32
  Q 77.71 149.80 78.18 149.59
  Q 78.93 149.23 79.97 149.75
  Z"
/>
<path fill="#263238" d="
  M 79.97 149.75
  L 82.62 149.76
  Q 83.14 149.76 83.16 150.27
  L 83.39 156.26
  Q 83.41 156.85 82.82 156.82
  L 80.22 156.68
  Q 79.61 156.23 80.06 156.00
  L 80.04 150.23
  Q 79.74 150.26 79.97 149.75
  Z"
/>
<path fill="#c7c7c7" d="
  M 80.04 150.23
  L 80.06 156.00
  Q 79.53 156.24 79.10 156.17
  Q 78.52 156.07 78.50 155.47
  L 78.37 150.67
  A 0.56 0.56 0.0 0 1 78.89 150.10
  Q 79.48 150.06 80.04 150.23
  Z"
/>
<path fill="#263238" d="
  M 47.27 151.49
  Q 47.44 151.84 47.35 152.28
  L 47.33 157.41
  Q 47.33 157.90 47.75 158.16
  Q 48.78 158.77 49.46 157.73
  Q 49.62 158.08 49.79 158.43
  L 42.70 158.72
  Q 42.21 158.74 42.21 158.24
  L 42.30 151.98
  Q 42.31 151.30 42.99 151.33
  L 47.27 151.49
  Z
  M 44.5548 152.6900
  A 0.89 0.89 0.0 0 0 43.6741 151.7907
  L 43.5741 151.7897
  A 0.89 0.89 0.0 0 0 42.6749 152.6703
  L 42.6252 157.4100
  A 0.89 0.89 0.0 0 0 43.5059 158.3093
  L 43.6059 158.3103
  A 0.89 0.89 0.0 0 0 44.5051 157.4297
  L 44.5548 152.6900
  Z"
/>
<path fill="#455a64" d="
  M 49.79 158.43
  Q 49.62 158.08 49.46 157.73
  L 49.33 152.73
  Q 49.32 152.23 48.89 151.97
  Q 48.10 151.50 47.35 152.28
  Q 47.44 151.84 47.27 151.49
  Q 48.24 151.10 49.14 151.34
  Q 49.67 151.47 49.68 152.02
  L 49.79 158.43
  Z"
/>
<rect fill="#c7c7c7" x="-0.94" y="-3.26" transform="translate(43.59,155.05) rotate(0.6)" width="1.88" height="6.52" rx="0.89"/>
<path fill="#c7c7c7" d="
  M 49.46 157.73
  Q 48.78 158.77 47.75 158.16
  Q 47.33 157.90 47.33 157.41
  L 47.35 152.28
  Q 48.10 151.50 48.89 151.97
  Q 49.32 152.23 49.33 152.73
  L 49.46 157.73
  Z"
/>
<path fill="#2629a6" d="
  M 72.21 155.92
  Q 74.00 158.33 77.47 158.04
  Q 72.82 159.73 72.21 155.92
  Z"
/>
<path fill="#263238" d="
  M 308.01 159.16
  Q 301.86 178.10 294.71 195.54
  A 0.74 0.74 0.0 0 1 293.57 195.84
  L 283.99 188.23
  Q 282.70 187.80 282.13 186.34
  Q 281.93 185.81 282.38 186.16
  L 293.67 195.09
  Q 294.12 195.45 294.34 194.91
  Q 301.71 176.94 307.34 158.35
  Q 307.48 157.87 307.37 157.39
  Q 307.26 156.94 307.48 156.58
  Q 307.75 156.13 307.80 156.65
  L 308.01 159.16
  Z"
/>
<path fill="#2629a6" d="
  M 89.10 157.90
  Q 87.91 159.22 85.87 158.02
  L 89.10 157.90
  Z"
/>
<path fill="#2629a6" d="
  M 308.01 159.16
  Q 309.18 167.80 306.42 175.99
  Q 301.64 190.22 296.08 204.09
  A 1.32 1.29 83.4 0 1 295.64 204.66
  Q 294.52 205.44 293.51 204.24
  Q 288.18 197.85 284.22 190.53
  Q 284.19 190.47 283.81 189.98
  Q 283.29 189.32 283.99 188.23
  L 293.57 195.84
  A 0.74 0.74 0.0 0 0 294.71 195.54
  Q 301.86 178.10 308.01 159.16
  Z"
/>
<path fill="#363aed" d="
  M 25.63 162.52
  Q 24.19 165.02 26.04 165.63
  C 25.84 168.38 24.81 171.48 25.30 173.57
  Q 25.50 174.42 25.67 173.56
  C 26.24 170.73 28.47 168.96 28.23 166.22
  Q 28.29 165.99 28.43 165.79
  L 28.42 197.36
  C 27.90 194.32 28.67 191.52 27.55 188.87
  C 24.22 181.01 17.76 177.64 11.25 173.46
  Q 9.66 172.44 8.88 171.22
  A 0.91 0.90 75.8 0 1 9.71 169.82
  Q 16.09 170.36 20.82 174.62
  Q 21.46 175.19 21.38 174.34
  Q 20.80 168.12 23.93 162.51
  Q 24.41 161.66 25.63 162.52
  Z"
/>
<path fill="#c7c7c7" d="
  M 102.63 166.16
  L 102.50 174.98
  L 102.38 195.44
  Q 102.37 197.49 100.33 197.46
  L 92.55 197.35
  Q 91.70 197.16 90.97 197.32
  Q 90.18 197.43 89.55 197.27
  Q 89.00 197.13 89.00 196.56
  L 89.00 172.44
  Q 89.00 171.88 88.44 171.88
  L 79.75 171.85
  Q 79.20 171.84 79.20 172.40
  L 79.14 197.32
  L 65.22 197.28
  Q 65.12 196.85 65.26 196.71
  Q 65.80 196.58 65.53 196.61
  Q 66.00 181.42 65.63 166.04
  Q 65.62 165.52 66.13 165.52
  Q 83.33 165.42 100.50 165.52
  Q 102.16 165.53 102.63 166.16
  Z
  M 74.79 181.67
  L 77.17 181.74
  Q 77.74 181.76 77.74 181.19
  L 77.63 171.29
  Q 78.05 170.45 77.45 170.37
  Q 73.48 169.79 68.74 170.24
  Q 68.27 170.28 68.28 170.75
  L 68.28 181.02
  Q 68.29 181.61 68.88 181.62
  L 74.79 181.67
  Z
  M 93.71 181.62
  L 97.65 181.67
  Q 98.20 181.68 97.87 181.24
  Q 97.55 180.80 97.55 180.24
  Q 97.54 175.87 97.62 171.38
  A 0.57 0.57 0.0 0 1 98.20 170.82
  L 99.96 170.84
  A 0.24 0.24 0.0 0 0 99.97 170.36
  L 93.19 170.19
  Q 92.31 169.90 91.36 170.09
  Q 90.80 170.21 90.80 170.77
  L 90.82 181.03
  Q 90.83 181.56 91.34 181.66
  Q 92.54 181.89 93.71 181.62
  Z"
/>
<path fill="#363aed" d="
  M 102.82 197.40
  L 92.34 197.56
  Q 92.19 197.96 92.55 197.35
  L 100.33 197.46
  Q 102.37 197.49 102.38 195.44
  L 102.50 174.98
  Q 104.79 177.65 105.45 180.99
  Q 105.53 181.36 105.72 181.03
  Q 105.85 180.82 105.81 180.50
  Q 105.32 176.26 104.92 172.00
  Q 104.75 170.19 105.37 169.49
  Q 106.32 168.43 107.06 169.65
  Q 110.35 175.03 109.37 181.40
  Q 109.23 182.30 109.92 181.70
  Q 114.77 177.40 121.24 176.74
  A 0.67 0.67 0.0 0 1 121.98 177.37
  Q 122.07 179.16 120.37 180.16
  C 113.51 184.17 106.19 188.15 102.82 197.40
  Z"
/>
<path fill="#263238" d="
  M 39.36 170.15
  Q 37.95 175.78 39.23 181.67
  L 34.43 181.67
  L 34.55 171.43
  Q 34.56 170.94 34.11 170.78
  Q 32.23 170.08 31.10 171.47
  Q 31.01 171.59 30.98 171.44
  Q 30.94 171.18 30.87 171.20
  Q 30.79 170.99 30.82 170.78
  Q 30.91 170.30 31.40 170.29
  L 39.36 170.15
  Z"
/>
<path fill="#c7c7c7" d="
  M 52.91 170.19
  Q 54.03 175.49 53.36 181.72
  L 50.98 182.02
  Q 49.22 182.24 49.24 180.46
  L 49.39 170.56
  Q 49.40 169.96 49.99 170.00
  L 52.91 170.19
  Z"
/>
<path fill="#263238" d="
  M 58.23 170.22
  L 57.54 181.68
  L 53.36 181.72
  Q 54.03 175.49 52.91 170.19
  L 58.23 170.22
  Z"
/>
<path fill="#263238" d="
  M 77.63 171.29
  Q 77.58 171.50 77.08 171.19
  Q 76.52 170.77 75.28 170.87
  Q 74.74 170.92 74.74 171.46
  L 74.81 181.21
  Q 75.35 181.30 74.79 181.67
  L 68.88 181.62
  Q 68.29 181.61 68.28 181.02
  L 68.28 170.75
  Q 68.27 170.28 68.74 170.24
  Q 73.48 169.79 77.45 170.37
  Q 78.05 170.45 77.63 171.29
  Z
  M 70.9841 171.3465
  A 0.72 0.72 0.0 0 0 70.2616 170.6291
  L 69.7016 170.6310
  A 0.72 0.72 0.0 0 0 68.9841 171.3535
  L 69.0159 180.4535
  A 0.72 0.72 0.0 0 0 69.7384 181.1709
  L 70.2984 181.1690
  A 0.72 0.72 0.0 0 0 71.0159 180.4465
  L 70.9841 171.3465
  Z"
/>
<path fill="#455a64" d="
  M 93.19 170.19
  Q 93.18 170.77 93.74 170.67
  L 92.59 170.85
  Q 92.13 170.93 92.13 171.40
  L 92.09 180.58
  Q 92.09 181.06 92.57 181.11
  L 93.84 181.22
  Q 93.39 181.22 93.71 181.62
  Q 92.54 181.89 91.34 181.66
  Q 90.83 181.56 90.82 181.03
  L 90.80 170.77
  Q 90.80 170.21 91.36 170.09
  Q 92.31 169.90 93.19 170.19
  Z"
/>
<path fill="#263238" d="
  M 93.71 181.62
  Q 93.39 181.22 93.84 181.22
  L 93.74 170.67
  Q 93.18 170.77 93.19 170.19
  L 99.97 170.36
  A 0.24 0.24 0.0 0 1 99.96 170.84
  L 98.20 170.82
  A 0.57 0.57 0.0 0 0 97.62 171.38
  Q 97.54 175.87 97.55 180.24
  Q 97.55 180.80 97.87 181.24
  Q 98.20 181.68 97.65 181.67
  L 93.71 181.62
  Z"
/>
<path fill="#c7c7c7" d="
  M 39.36 170.15
  L 42.31 170.15
  A 0.67 0.67 0.0 0 1 42.98 170.82
  L 42.92 180.88
  A 0.80 0.79 -13.3 0 1 42.48 181.59
  Q 41.24 182.20 39.23 181.67
  Q 37.95 175.78 39.36 170.15
  Z"
/>
<path fill="#c7c7c7" d="
  M 58.23 170.22
  L 60.96 170.17
  Q 61.50 170.16 61.50 170.71
  L 61.52 181.04
  Q 61.52 181.65 60.92 181.78
  Q 58.91 182.23 57.54 181.68
  L 58.23 170.22
  Z"
/>
<rect fill="#c7c7c7" x="-1.00" y="-5.27" transform="translate(70.00,175.90) rotate(-0.2)" width="2.00" height="10.54" rx="0.72"/>
<path fill="#c7c7c7" d="
  M 34.43 181.67
  L 31.50 181.83
  Q 30.88 181.87 30.88 181.25
  L 30.87 171.20
  Q 30.94 171.18 30.98 171.44
  Q 31.01 171.59 31.10 171.47
  Q 32.23 170.08 34.11 170.78
  Q 34.56 170.94 34.55 171.43
  L 34.43 181.67
  Z"
/>
<path fill="#c7c7c7" d="
  M 77.08 171.19
  Q 77.05 175.71 77.13 180.00
  Q 77.16 181.46 74.81 181.21
  L 74.74 171.46
  Q 74.74 170.92 75.28 170.87
  Q 76.52 170.77 77.08 171.19
  Z"
/>
<path fill="#c7c7c7" d="
  M 93.74 170.67
  L 93.84 181.22
  L 92.57 181.11
  Q 92.09 181.06 92.09 180.58
  L 92.13 171.40
  Q 92.13 170.93 92.59 170.85
  L 93.74 170.67
  Z"
/>
<path fill="#455a64" d="
  M 77.08 171.19
  Q 77.58 171.50 77.63 171.29
  L 77.74 181.19
  Q 77.74 181.76 77.17 181.74
  L 74.79 181.67
  Q 75.35 181.30 74.81 181.21
  Q 77.16 181.46 77.13 180.00
  Q 77.05 175.71 77.08 171.19
  Z"
/>
<path fill="#263238" d="
  M 90.97 197.32
  L 87.74 197.69
  L 79.20 197.60
  Q 78.46 197.20 79.14 197.32
  L 79.20 172.40
  Q 79.20 171.84 79.75 171.85
  L 88.44 171.88
  Q 89.00 171.88 89.00 172.44
  L 89.00 196.56
  Q 89.00 197.13 89.55 197.27
  Q 90.18 197.43 90.97 197.32
  Z
  M 80.02 184.64
  L 80.02 184.95
  Q 80.04 185.96 80.79 185.29
  Q 81.56 184.59 81.00 184.15
  A 0.61 0.60 -71.3 0 0 80.02 184.64
  Z"
/>
<path fill="#263238" d="
  M 271.01 193.99
  L 267.83 200.92
  Q 267.61 201.41 267.16 201.12
  Q 265.75 200.25 264.62 199.13
  Q 252.02 186.74 239.63 174.14
  Q 239.45 173.96 239.49 173.82
  Q 239.51 173.76 239.55 173.72
  Q 239.66 173.59 239.78 173.71
  L 265.93 199.75
  Q 267.29 201.10 268.18 199.40
  L 271.01 193.99
  Z"
/>
<path fill="#ffffff" d="
  M 80.02 184.64
  A 0.61 0.60 -71.3 0 1 81.00 184.15
  Q 81.56 184.59 80.79 185.29
  Q 80.04 185.96 80.02 184.95
  L 80.02 184.64
  Z"
/>
<path fill="#263238" d="
  M 271.01 193.99
  Q 271.51 191.39 272.95 189.44
  Q 273.64 188.51 273.14 189.55
  L 271.01 193.99
  Z"
/>
<path fill="#455a64" d="
  M 65.22 197.28
  L 79.14 197.32
  Q 78.46 197.20 79.20 197.60
  L 78.96 197.78
  Q 78.83 197.88 78.67 197.88
  L 47.62 197.93
  L 43.95 197.31
  L 65.22 197.28
  Z"
/>
<path fill="#ffbf9d" d="
  M 102.82 197.40
  Q 107.01 197.83 109.83 200.40
  Q 113.83 204.04 118.13 209.86
  Q 130.12 226.13 142.42 242.94
  L 113.83 257.11
  Q 105.26 238.01 96.71 219.26
  C 93.63 212.52 78.98 213.58 73.08 210.90
  Q 60.34 205.11 47.62 197.93
  L 78.67 197.88
  Q 78.83 197.88 78.96 197.78
  L 79.20 197.60
  L 87.74 197.69
  Q 89.37 198.83 92.34 197.56
  L 102.82 197.40
  Z"
/>
<path fill="#263238" d="
  M 354.96 207.02
  Q 358.55 226.26 357.49 244.98
  Q 357.25 249.23 357.08 253.48
  Q 356.93 257.42 356.32 261.96
  Q 355.08 271.30 354.77 280.71
  Q 354.57 280.63 354.48 280.47
  Q 354.31 280.17 354.24 280.45
  Q 354.17 280.76 353.96 280.97
  Q 354.77 269.95 355.96 258.99
  C 358.18 238.48 358.23 218.45 351.29 198.75
  Q 351.23 198.57 351.33 198.49
  A 0.11 0.11 0.0 0 1 351.50 198.53
  L 354.96 207.02
  Z"
/>
<path fill="#263238" d="
  M 283.24 206.16
  Q 283.06 205.61 282.95 205.04
  A 0.20 0.20 0.0 0 1 283.33 204.92
  Q 283.83 206.02 283.68 207.22
  A 0.13 0.13 0.0 0 1 283.45 207.28
  Q 283.16 206.85 283.25 206.26
  A 0.53 0.48 42.1 0 0 283.24 206.16
  Z"
/>
<path fill="#2629a6" d="
  M 354.96 207.02
  Q 358.90 213.44 360.95 223.26
  Q 365.30 244.16 362.79 262.51
  Q 361.20 274.17 355.95 292.29
  L 354.77 280.71
  Q 355.08 271.30 356.32 261.96
  Q 356.93 257.42 357.08 253.48
  Q 357.25 249.23 357.49 244.98
  Q 358.55 226.26 354.96 207.02
  Z"
/>
<path fill="#263238" d="
  M 283.82 207.64
  C 288.87 232.45 290.55 258.35 290.26 283.75
  C 290.22 287.57 289.52 293.54 289.78 298.74
  Q 289.80 299.04 289.62 299.16
  Q 289.32 299.37 289.30 299.01
  C 289.09 294.83 289.55 289.64 289.63 286.63
  Q 290.74 246.85 283.48 207.73
  Q 283.45 207.57 283.58 207.52
  Q 283.77 207.44 283.82 207.64
  Z"
/>
<path fill="#263238" d="
  M 209.12 209.75
  Q 209.12 209.69 209.12 209.63
  Q 209.12 209.62 209.12 209.62
  Q 209.13 209.62 209.13 209.63
  Q 209.11 233.55 209.96 241.55
  Q 210.98 251.18 211.84 260.82
  Q 211.85 261.02 211.77 261.14
  Q 211.72 261.23 211.65 261.29
  Q 211.50 261.41 211.47 261.19
  Q 209.70 249.43 209.25 237.56
  C 208.95 229.63 208.17 219.15 209.12 209.75
  Z"
/>
<path fill="#263238" d="
  M 345.41 233.03
  A 1.09 1.09 0.0 0 0 344.31 231.58
  C 342.99 231.66 335.70 232.56 335.62 232.50
  Q 335.18 232.14 335.73 232.07
  L 344.85 230.99
  Q 345.58 230.90 345.61 231.63
  L 346.92 259.04
  A 4.17 4.16 65.2 0 1 345.80 262.10
  L 330.48 278.43
  Q 330.01 278.93 329.40 278.62
  L 314.67 271.16
  Q 314.42 271.03 314.69 270.95
  Q 314.87 270.90 315.03 270.98
  Q 322.22 274.54 329.46 278.00
  Q 329.92 278.22 330.28 277.85
  Q 337.43 270.41 344.32 262.82
  Q 346.76 260.12 346.54 257.24
  Q 345.67 245.76 345.33 234.25
  Q 345.30 233.34 345.41 233.03
  Z"
/>
<path fill="#263238" d="
  M 326.56 233.14
  C 327.79 232.83 331.44 231.95 332.80 232.37
  Q 333.27 232.52 332.78 232.57
  L 326.75 233.30
  A 0.22 0.07 -4.6 0 1 326.52 233.25
  Q 326.52 233.23 326.51 233.20
  Q 326.51 233.15 326.56 233.14
  Z"
/>
<path fill="#263238" d="
  M 320.16 233.65
  C 319.04 233.69 318.10 234.22 316.85 234.16
  A 0.03 0.02 -47.0 0 1 316.85 234.11
  L 320.15 233.51
  Q 320.16 233.50 320.16 233.60
  Q 320.16 233.62 320.16 233.63
  Q 320.17 233.65 320.16 233.65
  Z"
/>
<rect fill="#263238" x="-13.70" y="-0.26" transform="translate(323.52,243.94) rotate(-5.8)" width="27.40" height="0.52" rx="0.25"/>
<path fill="#263238" d="
  M 340.06 242.62
  Q 339.29 242.77 338.51 242.71
  A 0.23 0.23 0.0 0 1 338.52 242.25
  L 340.01 242.19
  A 0.22 0.22 0.0 0 1 340.06 242.62
  Z"
/>
<path fill="#263238" d="
  M 306.57 249.80
  L 308.28 266.68
  A 2.04 2.03 10.4 0 0 309.38 268.27
  L 310.90 269.06
  A 0.19 0.19 0.0 0 1 310.73 269.40
  L 308.52 268.32
  Q 308.03 268.08 307.96 267.54
  Q 306.83 258.70 306.43 249.81
  A 0.07 0.07 0.0 0 1 306.57 249.80
  Z"
/>
<path fill="#263238" d="
  M 154.19 255.96
  C 146.03 263.70 136.00 270.53 126.15 275.94
  Q 125.96 276.05 125.83 275.95
  Q 125.79 275.93 125.76 275.90
  Q 125.68 275.84 125.76 275.79
  Q 140.67 267.03 153.85 255.84
  Q 153.97 255.73 154.11 255.75
  A 0.12 0.12 0.0 0 1 154.19 255.96
  Z"
/>
<rect fill="#263238" x="-0.25" y="-10.14" transform="translate(158.62,275.93) rotate(-0.5)" width="0.50" height="20.28" rx="0.25"/>
<rect fill="#263238" x="-0.20" y="-10.13" transform="translate(288.41,311.74) rotate(5.6)" width="0.40" height="20.26" rx="0.20"/>
</svg>
