<?xml version="1.0" encoding="UTF-8" standalone="no"?>
<!DOCTYPE svg PUBLIC "-//W3C//DTD SVG 1.1//EN" "http://www.w3.org/Graphics/SVG/1.1/DTD/svg11.dtd">
<svg xmlns="http://www.w3.org/2000/svg" version="1.1" viewBox="0.00 0.00 60.00 60.00">
<g stroke-width="2.00" fill="none" stroke-linecap="butt">
<path stroke="#9b7c9a" vector-effect="non-scaling-stroke" d="
  M 30.74 37.45
  C 27.67 37.99 25.60 36.80 23.46 34.39
  Q 20.68 31.26 17.56 28.15"
/>
<path stroke="#9b7c9a" vector-effect="non-scaling-stroke" d="
  M 21.07 29.04
  Q 23.51 30.56 26.48 34.29
  Q 27.40 35.45 29.28 35.19"
/>
<path stroke="#9b7c9a" vector-effect="non-scaling-stroke" d="
  M 31.81 41.68
  C 27.10 42.19 24.56 39.55 20.91 38.96
  Q 16.40 38.24 12.05 40.11
  A 0.37 0.37 0.0 0 1 11.55 39.68
  Q 11.88 38.44 11.23 37.82
  Q 10.71 37.32 9.22 37.32
  Q 5.51 37.32 1.56 37.04"
/>
<path stroke="#9b7c9a" vector-effect="non-scaling-stroke" d="
  M 24.11 57.69
  C 19.38 56.14 12.07 53.03 10.59 58.98"
/>
<path stroke="#9b7c9a" vector-effect="non-scaling-stroke" d="
  M 6.08 56.65
  Q 7.14 56.97 8.41 56.71
  A 0.67 0.67 0.0 0 0 8.94 56.08
  L 9.34 40.14
  Q 9.36 39.56 8.78 39.54
  L 3.24 39.38
  Q 2.82 39.37 2.81 39.79
  L 2.45 52.89"
/>
<path stroke="#9b7c9a" vector-effect="non-scaling-stroke" d="
  M 30.76 50.07
  Q 29.16 50.13 29.03 48.97
  Q 28.97 48.44 29.42 48.15
  Q 30.37 47.53 31.69 47.80"
/>
<path stroke="#9b7c9a" vector-effect="non-scaling-stroke" d="
  M 31.99 43.95
  C 24.24 44.52 20.05 37.95 11.95 42.78
  A 0.90 0.87 76.6 0 0 11.52 43.51
  L 11.19 53.74
  Q 11.17 54.35 11.73 54.09
  C 16.30 51.98 21.98 54.82 26.62 55.86"
/>
</g>
<path fill="#363aee" d="
  M 35.63 0.00
  L 36.50 0.00
  L 41.87 1.95
  A 1.40 1.34 50.1 0 0 42.50 2.02
  C 47.62 1.39 48.28 5.48 51.69 7.71
  Q 55.10 9.93 54.81 14.33
  A 1.51 1.50 -60.7 0 0 55.08 15.31
  Q 58.16 19.78 55.00 24.18
  Q 54.76 24.52 54.78 24.95
  Q 55.14 30.34 50.31 32.54
  A 1.58 1.55 -88.6 0 0 49.55 33.28
  Q 47.20 38.10 41.78 37.56
  Q 41.28 37.51 40.86 37.78
  Q 36.18 40.87 30.74 37.45
  C 27.67 37.99 25.60 36.80 23.46 34.39
  Q 20.68 31.26 17.56 28.15
  Q 18.32 25.56 16.90 23.07
  Q 14.73 19.26 17.50 15.56
  A 1.25 1.25 0.0 0 0 17.74 14.71
  Q 17.31 9.14 22.31 6.86
  A 1.52 1.48 -88.5 0 0 23.04 6.15
  Q 24.96 2.17 29.02 1.90
  C 31.85 1.70 33.23 0.89 35.63 0.00
  Z
  M 21.07 29.04
  Q 23.51 30.56 26.48 34.29
  Q 27.40 35.45 29.28 35.19
  L 32.21 35.63
  Q 32.71 35.70 33.11 36.00
  C 36.11 38.15 37.94 36.77 40.77 35.51
  A 1.70 1.69 35.7 0 1 41.65 35.37
  Q 46.33 35.88 48.03 31.54
  A 1.12 1.08 0.2 0 1 48.71 30.89
  Q 51.23 30.02 52.40 27.62
  Q 52.64 27.13 52.60 26.58
  Q 52.38 23.59 54.15 21.25
  A 1.49 1.47 -27.3 0 0 54.45 20.33
  Q 54.37 17.84 52.86 15.80
  Q 52.54 15.38 52.62 14.86
  C 53.17 11.18 51.58 10.54 49.08 8.59
  C 46.15 6.29 46.37 3.44 41.36 4.11
  A 1.30 1.29 -30.5 0 1 40.42 3.87
  Q 36.31 0.86 32.31 3.91
  A 1.14 1.10 30.0 0 1 31.47 4.12
  Q 26.48 3.32 24.60 7.85
  A 1.41 1.41 0.0 0 1 23.78 8.63
  Q 19.49 10.14 20.00 14.76
  Q 20.06 15.33 19.73 15.80
  Q 18.29 17.86 18.12 20.33
  A 1.50 1.48 31.0 0 0 18.35 21.22
  C 19.55 23.04 19.78 23.88 19.98 26.38
  Q 20.11 27.96 21.07 29.04
  Z"
/>
<rect fill="#363aee" x="-1.10" y="-13.51" transform="translate(36.31,19.69) rotate(32.0)" width="2.20" height="27.02" rx="0.95"/>
<path fill="#363aee" d="
  M 30.2013 19.7697
  A 5.61 4.92 90.6 0 1 25.3403 14.1085
  A 5.61 4.92 90.6 0 1 30.3187 8.5503
  A 5.61 4.92 90.6 0 1 35.1797 14.2115
  A 5.61 4.92 90.6 0 1 30.2013 19.7697
  Z
  M 30.2541 17.5300
  A 3.40 2.71 90.1 0 0 32.9700 14.1347
  A 3.40 2.71 90.1 0 0 30.2659 10.7300
  A 3.40 2.71 90.1 0 0 27.5500 14.1253
  A 3.40 2.71 90.1 0 0 30.2541 17.5300
  Z"
/>
<path fill="#363aee" d="
  M 42.2023 30.8891
  A 5.60 4.92 91.0 0 1 37.3807 25.2041
  A 5.60 4.92 91.0 0 1 42.3977 19.6909
  A 5.60 4.92 91.0 0 1 47.2193 25.3759
  A 5.60 4.92 91.0 0 1 42.2023 30.8891
  Z
  M 42.2882 28.7100
  A 3.39 2.72 90.2 0 0 45.0200 25.3295
  A 3.39 2.72 90.2 0 0 42.3118 21.9300
  A 3.39 2.72 90.2 0 0 39.5800 25.3105
  A 3.39 2.72 90.2 0 0 42.2882 28.7100
  Z"
/>
<path fill="#ffbe46" d="
  M 17.56 28.15
  Q 20.68 31.26 23.46 34.39
  C 25.60 36.80 27.67 37.99 30.74 37.45
  L 31.81 41.68
  C 27.10 42.19 24.56 39.55 20.91 38.96
  Q 16.40 38.24 12.05 40.11
  A 0.37 0.37 0.0 0 1 11.55 39.68
  Q 11.88 38.44 11.23 37.82
  Q 10.71 37.32 9.22 37.32
  Q 5.51 37.32 1.56 37.04
  Q 7.00 27.36 17.56 28.15
  Z"
/>
<path fill="#ffbe46" d="
  M 21.07 29.04
  Q 26.13 30.38 29.28 35.19
  Q 27.40 35.45 26.48 34.29
  Q 23.51 30.56 21.07 29.04
  Z"
/>
<path fill="#363aee" d="
  M 1.56 37.04
  Q 5.51 37.32 9.22 37.32
  Q 10.71 37.32 11.23 37.82
  Q 11.88 38.44 11.55 39.68
  A 0.37 0.37 0.0 0 0 12.05 40.11
  Q 16.40 38.24 20.91 38.96
  C 24.56 39.55 27.10 42.19 31.81 41.68
  C 36.11 42.37 40.27 40.75 43.33 45.26
  Q 43.61 45.68 44.07 45.47
  Q 47.79 43.78 51.45 42.07
  C 55.00 40.41 58.01 40.58 60.00 44.09
  L 60.00 44.96
  Q 50.36 51.27 40.69 57.44
  C 34.75 61.23 29.96 59.17 24.11 57.69
  C 19.38 56.14 12.07 53.03 10.59 58.98
  L 0.00 58.52
  L 0.00 54.52
  L 0.00 45.85
  L 0.00 42.02
  Q 0.48 40.77 0.50 38.75
  Q 0.51 37.44 1.56 37.04
  Z
  M 2.45 52.89
  L 2.26 55.99
  Q 2.23 56.55 2.79 56.57
  L 6.08 56.65
  Q 7.14 56.97 8.41 56.71
  A 0.67 0.67 0.0 0 0 8.94 56.08
  L 9.34 40.14
  Q 9.36 39.56 8.78 39.54
  L 3.24 39.38
  Q 2.82 39.37 2.81 39.79
  L 2.45 52.89
  Z
  M 26.62 55.86
  Q 30.64 57.77 34.57 57.34
  Q 37.33 57.03 41.65 54.24
  Q 49.13 49.40 56.64 44.54
  Q 57.03 44.29 56.74 43.92
  Q 55.69 42.57 54.21 43.25
  Q 49.54 45.38 44.81 47.55
  Q 44.33 47.78 44.42 48.30
  Q 44.82 50.54 43.02 50.43
  Q 36.85 50.05 30.76 50.07
  Q 29.16 50.13 29.03 48.97
  Q 28.97 48.44 29.42 48.15
  Q 30.37 47.53 31.69 47.80
  L 41.59 48.04
  Q 42.05 48.05 41.92 47.62
  C 40.64 43.17 35.44 44.14 31.99 43.95
  C 24.24 44.52 20.05 37.95 11.95 42.78
  A 0.90 0.87 76.6 0 0 11.52 43.51
  L 11.19 53.74
  Q 11.17 54.35 11.73 54.09
  C 16.30 51.98 21.98 54.82 26.62 55.86
  Z"
/>
<path fill="#ffbe46" d="
  M 6.08 56.65
  L 2.45 52.89
  L 2.81 39.79
  Q 2.82 39.37 3.24 39.38
  L 8.78 39.54
  Q 9.36 39.56 9.34 40.14
  L 8.94 56.08
  A 0.67 0.67 0.0 0 1 8.41 56.71
  Q 7.14 56.97 6.08 56.65
  Z"
/>
<path fill="#ffbe46" d="
  M 31.99 43.95
  L 31.69 47.80
  Q 30.37 47.53 29.42 48.15
  Q 28.97 48.44 29.03 48.97
  Q 29.16 50.13 30.76 50.07
  Q 29.45 53.47 26.62 55.86
  C 21.98 54.82 16.30 51.98 11.73 54.09
  Q 11.17 54.35 11.19 53.74
  L 11.52 43.51
  A 0.90 0.87 76.6 0 1 11.95 42.78
  C 20.05 37.95 24.24 44.52 31.99 43.95
  Z"
/>
<path fill="#ffbe46" d="
  M 24.11 57.69
  L 17.85 60.00
  L 14.04 60.00
  L 10.59 58.98
  C 12.07 53.03 19.38 56.14 24.11 57.69
  Z"
/>
</svg>
