<?xml version="1.0" encoding="UTF-8" standalone="no"?>
<!DOCTYPE svg PUBLIC "-//W3C//DTD SVG 1.1//EN" "http://www.w3.org/Graphics/SVG/1.1/DTD/svg11.dtd">
<svg xmlns="http://www.w3.org/2000/svg" version="1.1" viewBox="0.00 0.00 60.00 60.00">
<g stroke-width="2.00" fill="none" stroke-linecap="butt">
<path stroke="#9b7c9a" vector-effect="non-scaling-stroke" d="
  M 16.31 27.92
  L 11.75 31.88
  A 1.96 1.96 0.0 0 1 8.54 30.79
  Q 8.47 30.43 8.45 29.98"
/>
<path stroke="#9b7c9a" vector-effect="non-scaling-stroke" d="
  M 26.76 32.23
  Q 20.89 33.56 17.46 38.39
  Q 16.54 39.68 17.90 40.78
  A 1.65 1.64 -52.1 0 0 20.26 40.48
  Q 23.63 35.98 29.73 35.70"
/>
<path stroke="#9b7c9a" vector-effect="non-scaling-stroke" d="
  M 32.05 44.41
  C 25.71 42.27 23.37 50.43 29.73 52.34"
/>
</g>
<path fill="#363aed" d="
  M 60.00 21.41
  L 60.00 22.51
  Q 58.69 25.24 56.98 23.53
  C 41.27 7.90 19.16 7.40 3.10 23.38
  Q 1.49 24.99 0.00 22.69
  L 0.00 21.41
  C 16.53 3.64 43.54 3.18 60.00 21.41
  Z"
/>
<path fill="#363aed" d="
  M 16.31 27.92
  L 11.75 31.88
  A 1.96 1.96 0.0 0 1 8.54 30.79
  Q 8.47 30.43 8.45 29.98
  C 20.04 16.94 39.66 16.29 51.23 29.79
  A 1.08 1.08 0.0 0 1 51.48 30.69
  Q 51.18 32.34 49.52 32.53
  A 0.96 0.95 -24.5 0 1 48.70 32.23
  C 40.43 23.33 26.87 20.37 16.31 27.92
  Z"
/>
<path fill="#ffbe46" d="
  M 16.31 27.92
  Q 22.58 28.34 26.76 32.23
  Q 20.89 33.56 17.46 38.39
  Q 16.54 39.68 17.90 40.78
  A 1.65 1.64 -52.1 0 0 20.26 40.48
  Q 23.63 35.98 29.73 35.70
  Q 32.02 40.00 32.05 44.41
  C 25.71 42.27 23.37 50.43 29.73 52.34
  Q 25.53 58.62 17.85 60.00
  L 14.00 60.00
  Q 2.32 57.63 0.00 45.87
  L 0.00 42.08
  Q 1.50 33.76 8.45 29.98
  Q 8.47 30.43 8.54 30.79
  A 1.96 1.96 0.0 0 0 11.75 31.88
  L 16.31 27.92
  Z"
/>
<path fill="#363aed" d="
  M 29.73 35.70
  Q 23.63 35.98 20.26 40.48
  A 1.65 1.64 -52.1 0 1 17.90 40.78
  Q 16.54 39.68 17.46 38.39
  Q 20.89 33.56 26.76 32.23
  Q 36.18 30.78 42.37 37.87
  Q 43.47 39.13 42.37 40.49
  A 1.66 1.66 0.0 0 1 39.74 40.45
  Q 36.18 35.73 29.73 35.70
  Z"
/>
<path fill="#363aed" d="
  M 32.05 44.41
  Q 37.12 49.90 29.73 52.34
  C 23.37 50.43 25.71 42.27 32.05 44.41
  Z"
/>
</svg>
