<?xml version="1.0" encoding="UTF-8" standalone="no"?>
<!DOCTYPE svg PUBLIC "-//W3C//DTD SVG 1.1//EN" "http://www.w3.org/Graphics/SVG/1.1/DTD/svg11.dtd">
<svg xmlns="http://www.w3.org/2000/svg" version="1.1" viewBox="0.00 0.00 60.00 60.00">
<g stroke-width="2.00" fill="none" stroke-linecap="butt">
<path stroke="#9b7c9a" vector-effect="non-scaling-stroke" d="
  M 31.90 42.17
  Q 13.70 47.28 12.20 28.37"
/>
<path stroke="#9b7c9a" vector-effect="non-scaling-stroke" d="
  M 10.48 28.79
  C 9.42 40.85 21.00 48.80 32.04 44.12"
/>
<path stroke="#9b7c9a" vector-effect="non-scaling-stroke" d="
  M 31.86 46.12
  L 27.18 47.30
  Q 26.71 47.42 26.62 47.89
  Q 25.67 52.63 28.92 53.32"
/>
<path stroke="#9b7c9a" vector-effect="non-scaling-stroke" d="
  M 15.65 60.00
  C 15.55 58.35 16.92 54.69 19.08 55.37
  A 0.73 0.73 0.0 0 1 19.31 56.64
  L 18.03 57.62
  Q 17.25 58.22 18.23 58.21
  L 23.49 58.19"
/>
<path stroke="#9b7c9a" vector-effect="non-scaling-stroke" d="
  M 27.55 54.92
  Q 26.99 54.23 25.91 53.86
  A 1.02 0.99 -47.4 0 0 25.14 53.90
  L 21.76 55.58
  Q 21.19 55.87 21.02 55.25
  L 20.79 54.40
  A 0.53 0.53 0.0 0 1 21.19 53.75
  Q 25.89 52.77 24.46 48.01
  Q 24.29 47.45 23.72 47.34
  Q 9.42 44.63 8.43 29.85"
/>
<path stroke="#9b7c9a" vector-effect="non-scaling-stroke" d="
  M 22.97 29.43
  L 14.67 29.40
  A 0.50 0.49 -1.1 0 0 14.17 29.91
  C 14.35 38.96 23.50 44.94 31.49 39.96"
/>
<path stroke="#9b7c9a" vector-effect="non-scaling-stroke" d="
  M 18.48 32.79
  A 1.00 1.00 0.0 0 0 17.48 31.79
  A 1.00 1.00 0.0 0 0 16.48 32.79
  A 1.00 1.00 0.0 0 0 17.48 33.79
  A 1.00 1.00 0.0 0 0 18.48 32.79"
/>
<path stroke="#9b7c9a" vector-effect="non-scaling-stroke" d="
  M 18.84 36.81
  Q 20.38 37.27 20.20 35.54
  A 0.69 0.69 0.0 0 0 19.45 34.93
  L 19.02 34.97
  A 0.94 0.94 0.0 0 0 18.84 36.81"
/>
<path stroke="#9b7c9a" vector-effect="non-scaling-stroke" d="
  M 22.8692 37.2885
  A 1.04 0.97 -44.7 0 0 21.4477 37.3305
  A 1.04 0.97 -44.7 0 0 21.3908 38.7515
  A 1.04 0.97 -44.7 0 0 22.8123 38.7095
  A 1.04 0.97 -44.7 0 0 22.8692 37.2885"
/>
</g>
<path fill="#363aee" d="
  M 31.90 42.17
  Q 13.70 47.28 12.20 28.37
  L 13.31 20.95
  Q 13.40 20.40 13.95 20.40
  L 18.99 20.44
  Q 19.72 20.45 19.55 19.75
  L 18.09 13.63
  Q 17.96 13.07 17.38 13.07
  L 12.60 13.06
  Q 12.00 13.06 11.94 13.65
  L 10.38 28.54
  Q 10.37 28.62 10.44 28.66
  Q 10.90 28.91 10.48 28.79
  C 9.42 40.85 21.00 48.80 32.04 44.12
  Q 35.96 42.29 38.24 38.92
  Q 38.58 38.40 39.00 38.86
  L 39.48 39.40
  Q 39.79 39.75 39.52 40.14
  Q 36.64 44.17 31.86 46.12
  L 27.18 47.30
  Q 26.71 47.42 26.62 47.89
  Q 25.67 52.63 28.92 53.32
  C 31.99 54.68 36.41 56.55 35.29 60.00
  L 15.65 60.00
  C 15.55 58.35 16.92 54.69 19.08 55.37
  A 0.73 0.73 0.0 0 1 19.31 56.64
  L 18.03 57.62
  Q 17.25 58.22 18.23 58.21
  L 23.49 58.19
  L 32.98 58.22
  Q 33.67 58.22 33.15 57.77
  Q 30.76 55.71 27.55 54.92
  Q 26.99 54.23 25.91 53.86
  A 1.02 0.99 -47.4 0 0 25.14 53.90
  L 21.76 55.58
  Q 21.19 55.87 21.02 55.25
  L 20.79 54.40
  A 0.53 0.53 0.0 0 1 21.19 53.75
  Q 25.89 52.77 24.46 48.01
  Q 24.29 47.45 23.72 47.34
  Q 9.42 44.63 8.43 29.85
  L 10.34 12.03
  Q 10.40 11.45 10.99 11.44
  L 16.97 11.40
  Q 17.60 11.39 17.45 10.78
  L 15.97 4.51
  Q 15.83 3.93 15.25 3.78
  L 8.07 1.92
  A 0.83 0.81 13.1 0 1 7.47 0.97
  Q 7.56 0.51 7.90 0.30
  Q 8.16 0.15 8.63 0.26
  Q 12.75 1.25 16.83 2.38
  Q 17.33 2.52 17.45 3.03
  L 19.23 10.79
  Q 19.38 11.42 20.03 11.42
  L 28.60 11.43
  Q 29.19 11.43 29.27 10.84
  C 30.58 1.20 41.58 -2.74 48.61 3.38
  C 56.47 10.22 52.25 21.92 42.48 23.90
  Q 41.97 24.01 42.07 24.52
  Q 42.97 29.21 42.27 33.91
  Q 42.20 34.44 41.69 34.29
  L 41.01 34.08
  Q 40.52 33.94 40.59 33.44
  C 41.41 27.57 40.00 19.63 39.23 13.69
  Q 39.15 13.07 38.53 13.07
  L 20.49 13.09
  Q 19.79 13.09 19.95 13.77
  L 21.36 19.81
  Q 21.49 20.37 22.06 20.38
  L 25.05 20.44
  Q 25.65 20.46 25.63 21.05
  L 25.62 21.52
  Q 25.60 22.12 25.00 22.11
  L 15.57 22.07
  A 0.70 0.69 -86.4 0 0 14.87 22.69
  L 14.45 26.95
  Q 14.39 27.50 14.95 27.50
  L 36.26 27.50
  Q 36.77 27.50 36.72 26.99
  L 36.26 22.52
  Q 36.22 22.07 35.77 22.07
  L 27.99 22.08
  A 0.62 0.62 0.0 0 1 27.37 21.49
  L 27.35 21.06
  Q 27.32 20.43 27.94 20.43
  L 37.26 20.40
  Q 37.67 20.40 37.73 20.80
  Q 38.84 27.28 38.78 30.75
  Q 38.67 37.51 31.90 42.17
  Z
  M 39.99 2.32
  A 0.30 0.30 0.0 0 0 39.57 2.05
  L 34.66 4.08
  A 0.30 0.30 0.0 0 0 34.56 4.57
  L 39.49 9.52
  A 0.30 0.30 0.0 0 0 40.00 9.31
  L 39.99 2.32
  Z
  M 46.77 4.13
  Q 44.73 2.62 42.19 2.36
  Q 41.76 2.32 41.76 2.76
  L 41.73 9.29
  Q 41.73 10.18 42.35 9.55
  L 46.84 5.05
  Q 47.34 4.55 46.77 4.13
  Z
  M 31.18 11.42
  L 37.99 11.38
  Q 38.76 11.37 38.22 10.83
  L 33.51 6.10
  A 0.57 0.57 0.0 0 0 32.58 6.30
  L 30.79 10.85
  A 0.42 0.41 -79.6 0 0 31.18 11.42
  Z
  M 43.77 11.42
  L 50.44 11.39
  Q 51.12 11.39 50.87 10.75
  L 49.16 6.42
  A 0.62 0.62 0.0 0 0 48.15 6.21
  L 43.53 10.83
  Q 42.94 11.42 43.77 11.42
  Z
  M 48.53 18.56
  A 0.30 0.30 0.0 0 0 49.02 18.47
  L 51.06 13.47
  A 0.30 0.30 0.0 0 0 50.78 13.06
  L 43.85 13.14
  A 0.30 0.30 0.0 0 0 43.64 13.66
  L 48.53 18.56
  Z
  M 41.11 14.33
  L 41.84 21.68
  Q 41.93 22.58 42.75 22.21
  L 46.71 20.45
  Q 47.49 20.10 46.89 19.50
  L 41.54 14.13
  A 0.25 0.25 0.0 0 0 41.11 14.33
  Z
  M 31.49 39.96
  Q 37.14 36.58 36.96 29.89
  Q 36.94 29.36 36.41 29.36
  L 22.97 29.43
  L 14.67 29.40
  A 0.50 0.49 -1.1 0 0 14.17 29.91
  C 14.35 38.96 23.50 44.94 31.49 39.96
  Z"
/>
<path fill="#ffbe46" d="
  M 12.20 28.37
  Q 13.70 47.28 31.90 42.17
  L 32.04 44.12
  C 21.00 48.80 9.42 40.85 10.48 28.79
  Q 12.03 28.64 12.20 28.37
  Z"
/>
<path fill="#ffbe46" d="
  M 22.97 29.43
  Q 29.45 33.08 31.49 39.96
  C 23.50 44.94 14.35 38.96 14.17 29.91
  A 0.50 0.49 -1.1 0 1 14.67 29.40
  L 22.97 29.43
  Z
  M 18.48 32.79
  A 1.00 1.00 0.0 0 0 17.48 31.79
  A 1.00 1.00 0.0 0 0 16.48 32.79
  A 1.00 1.00 0.0 0 0 17.48 33.79
  A 1.00 1.00 0.0 0 0 18.48 32.79
  Z
  M 18.84 36.81
  Q 20.38 37.27 20.20 35.54
  A 0.69 0.69 0.0 0 0 19.45 34.93
  L 19.02 34.97
  A 0.94 0.94 0.0 0 0 18.84 36.81
  Z
  M 22.8692 37.2885
  A 1.04 0.97 -44.7 0 0 21.4477 37.3305
  A 1.04 0.97 -44.7 0 0 21.3908 38.7515
  A 1.04 0.97 -44.7 0 0 22.8123 38.7095
  A 1.04 0.97 -44.7 0 0 22.8692 37.2885
  Z"
/>
<path fill="#ffbe46" d="
  M 8.43 29.85
  Q 9.42 44.63 23.72 47.34
  Q 24.29 47.45 24.46 48.01
  Q 25.89 52.77 21.19 53.75
  A 0.53 0.53 0.0 0 0 20.79 54.40
  L 21.02 55.25
  Q 21.19 55.87 21.76 55.58
  L 25.14 53.90
  A 1.02 0.99 -47.4 0 1 25.91 53.86
  Q 26.99 54.23 27.55 54.92
  L 23.49 58.19
  L 18.23 58.21
  Q 17.25 58.22 18.03 57.62
  L 19.31 56.64
  A 0.73 0.73 0.0 0 0 19.08 55.37
  C 16.92 54.69 15.55 58.35 15.65 60.00
  L 14.00 60.00
  Q 2.32 57.63 0.00 45.87
  L 0.00 42.02
  Q 1.49 33.94 8.43 29.85
  Z"
/>
<circle fill="#363aee" cx="17.48" cy="32.79" r="1.00"/>
<path fill="#363aee" d="
  M 18.84 36.81
  A 0.94 0.94 0.0 0 1 19.02 34.97
  L 19.45 34.93
  A 0.69 0.69 0.0 0 1 20.20 35.54
  Q 20.38 37.27 18.84 36.81
  Z"
/>
<ellipse fill="#363aee" cx="0.00" cy="0.00" transform="translate(40.41,36.68) rotate(44.8)" rx="1.07" ry="0.91"/>
<ellipse fill="#363aee" cx="0.00" cy="0.00" transform="translate(22.13,38.02) rotate(-44.7)" rx="1.04" ry="0.97"/>
<path fill="#ffbe46" d="
  M 31.86 46.12
  Q 31.34 50.09 28.92 53.32
  Q 25.67 52.63 26.62 47.89
  Q 26.71 47.42 27.18 47.30
  L 31.86 46.12
  Z"
/>
</svg>
