<?xml version="1.0" encoding="UTF-8" standalone="no"?>
<!DOCTYPE svg PUBLIC "-//W3C//DTD SVG 1.1//EN" "http://www.w3.org/Graphics/SVG/1.1/DTD/svg11.dtd">
<svg xmlns="http://www.w3.org/2000/svg" version="1.1" viewBox="0.00 0.00 60.00 60.00">
<g stroke-width="2.00" fill="none" stroke-linecap="butt">
<path stroke="#9a7c9b" vector-effect="non-scaling-stroke" d="
  M 22.11 29.25
  Q 24.41 37.24 24.16 45.22
  A 0.94 0.94 0.0 0 0 25.01 46.19
  Q 30.10 46.68 32.08 44.31"
/>
<path stroke="#9a7c9b" vector-effect="non-scaling-stroke" d="
  M 18.23 60.00
  Q 16.35 56.79 17.31 53.01
  Q 17.44 52.52 17.07 52.17
  C 14.69 49.84 15.03 46.80 14.29 44.57
  Q 11.81 37.16 9.29 29.45"
/>
<path stroke="#9a7c9b" vector-effect="non-scaling-stroke" d="
  M 11.29 28.74
  L 16.24 43.89
  Q 16.43 44.49 16.94 44.11
  Q 19.00 42.58 21.52 43.23
  Q 22.09 43.37 22.10 42.78
  Q 22.22 35.16 19.58 28.31"
/>
<path stroke="#9a7c9b" vector-effect="non-scaling-stroke" d="
  M 22.97 48.00
  A 2.97 2.97 0.0 0 0 20.00 45.03
  A 2.97 2.97 0.0 0 0 17.03 48.00
  A 2.97 2.97 0.0 0 0 20.00 50.97
  A 2.97 2.97 0.0 0 0 22.97 48.00"
/>
<path stroke="#9a7c9b" vector-effect="non-scaling-stroke" d="
  M 31.02 49.58
  Q 31.38 46.91 25.51 48.48
  Q 25.07 48.60 24.94 49.03
  Q 23.74 52.82 19.68 53.04
  Q 19.47 53.05 19.36 53.22
  Q 19.26 53.37 19.16 53.53
  Q 18.91 53.92 19.38 53.91
  L 28.76 53.71"
/>
<path stroke="#9a7c9b" vector-effect="non-scaling-stroke" d="
  M 26.30 56.13
  L 19.62 56.04
  Q 19.16 56.03 19.02 56.47
  Q 18.61 57.75 19.74 57.96
  Q 21.08 58.22 24.15 57.87"
/>
</g>
<path fill="#3539ef" d="
  M 8.96 0.00
  L 12.81 0.00
  Q 15.15 1.25 15.05 3.83
  C 14.96 6.12 15.36 8.43 14.42 10.59
  Q 13.98 11.60 13.93 12.70
  Q 13.88 13.96 14.98 15.49
  Q 19.58 21.87 22.11 29.25
  Q 24.41 37.24 24.16 45.22
  A 0.94 0.94 0.0 0 0 25.01 46.19
  Q 30.10 46.68 32.08 44.31
  Q 35.94 43.26 39.11 44.98
  Q 39.56 45.23 40.06 45.18
  C 42.81 44.90 46.10 44.32 48.51 44.96
  C 52.45 46.02 54.84 49.84 53.55 53.96
  C 52.77 56.48 53.51 58.79 50.61 60.00
  L 18.23 60.00
  Q 16.35 56.79 17.31 53.01
  Q 17.44 52.52 17.07 52.17
  C 14.69 49.84 15.03 46.80 14.29 44.57
  Q 11.81 37.16 9.29 29.45
  Q 8.05 25.07 6.39 20.41
  C 5.69 18.45 6.00 17.04 7.38 15.66
  Q 7.80 15.24 7.95 14.67
  Q 8.60 12.11 6.61 10.66
  A 1.11 1.08 -73.6 0 1 6.16 9.81
  Q 6.00 3.88 8.96 0.00
  Z
  M 8.39 9.80
  L 12.43 10.19
  A 0.38 0.38 0.0 0 0 12.84 9.84
  L 12.87 9.61
  A 7.36 0.96 -84.5 0 0 12.62 2.19
  L 9.73 1.91
  A 7.36 0.96 -84.5 0 0 8.07 9.14
  L 8.05 9.38
  A 0.38 0.38 0.0 0 0 8.39 9.80
  Z
  M 11.46 14.10
  Q 12.17 13.76 12.12 12.75
  A 1.15 1.00 47.6 0 0 9.98 12.50
  L 9.99 13.17
  Q 9.99 14.80 11.46 14.10
  Z
  M 11.29 28.74
  L 16.24 43.89
  Q 16.43 44.49 16.94 44.11
  Q 19.00 42.58 21.52 43.23
  Q 22.09 43.37 22.10 42.78
  Q 22.22 35.16 19.58 28.31
  Q 17.27 21.89 13.35 16.50
  A 1.16 1.15 72.2 0 0 12.44 16.03
  Q 10.04 15.97 8.26 17.50
  Q 7.81 17.89 7.99 18.45
  L 11.29 28.74
  Z
  M 22.97 48.00
  A 2.97 2.97 0.0 0 0 20.00 45.03
  A 2.97 2.97 0.0 0 0 17.03 48.00
  A 2.97 2.97 0.0 0 0 20.00 50.97
  A 2.97 2.97 0.0 0 0 22.97 48.00
  Z
  M 37.0338 46.8976
  A 0.86 0.86 0.0 0 0 36.2075 46.0053
  L 33.9292 45.9177
  A 0.86 0.86 0.0 0 0 33.0368 46.7441
  L 32.9462 49.1024
  A 0.86 0.86 0.0 0 0 33.7725 49.9947
  L 36.0508 50.0823
  A 0.86 0.86 0.0 0 0 36.9432 49.2559
  L 37.0338 46.8976
  Z
  M 44.56 46.62
  C 42.73 46.91 41.37 46.96 39.76 47.19
  Q 39.25 47.26 39.13 47.76
  L 37.91 52.77
  A 1.01 1.00 6.8 0 0 38.89 54.01
  L 50.50 54.02
  A 1.92 1.91 78.9 0 0 52.27 51.38
  Q 50.00 45.78 44.56 46.62
  Z
  M 28.76 53.71
  Q 30.13 54.20 31.18 54.05
  Q 31.73 53.97 31.92 53.45
  Q 32.54 51.82 31.02 49.58
  Q 31.38 46.91 25.51 48.48
  Q 25.07 48.60 24.94 49.03
  Q 23.74 52.82 19.68 53.04
  Q 19.47 53.05 19.36 53.22
  Q 19.26 53.37 19.16 53.53
  Q 18.91 53.92 19.38 53.91
  L 28.76 53.71
  Z
  M 36.15 53.33
  L 36.09 52.49
  A 0.56 0.55 85.0 0 0 35.48 51.97
  L 34.34 52.10
  A 0.85 0.85 0.0 0 0 34.28 53.78
  L 35.42 53.98
  Q 36.20 54.13 36.15 53.33
  Z
  M 24.15 57.87
  L 50.30 57.94
  Q 50.96 57.94 50.99 57.28
  L 51.03 56.55
  Q 51.06 56.05 50.56 56.05
  L 26.30 56.13
  L 19.62 56.04
  Q 19.16 56.03 19.02 56.47
  Q 18.61 57.75 19.74 57.96
  Q 21.08 58.22 24.15 57.87
  Z"
/>
<path fill="#ffbe46" d="
  M 19.58 28.31
  Q 22.22 35.16 22.10 42.78
  Q 22.09 43.37 21.52 43.23
  Q 19.00 42.58 16.94 44.11
  Q 16.43 44.49 16.24 43.89
  L 11.29 28.74
  Q 15.30 27.52 19.58 28.31
  Z"
/>
<path fill="#ffbe46" d="
  M 22.11 29.25
  Q 31.52 33.48 32.08 44.31
  Q 30.10 46.68 25.01 46.19
  A 0.94 0.94 0.0 0 1 24.16 45.22
  Q 24.41 37.24 22.11 29.25
  Z"
/>
<path fill="#ffbe46" d="
  M 9.29 29.45
  Q 11.81 37.16 14.29 44.57
  C 15.03 46.80 14.69 49.84 17.07 52.17
  Q 17.44 52.52 17.31 53.01
  Q 16.35 56.79 18.23 60.00
  L 14.00 60.00
  Q 2.32 57.63 0.00 45.87
  L 0.00 42.07
  Q 1.48 33.49 9.29 29.45
  Z"
/>
<circle fill="#ffbe46" cx="20.00" cy="48.00" r="2.97"/>
<path fill="#ffbe46" d="
  M 31.02 49.58
  L 28.76 53.71
  L 19.38 53.91
  Q 18.91 53.92 19.16 53.53
  Q 19.26 53.37 19.36 53.22
  Q 19.47 53.05 19.68 53.04
  Q 23.74 52.82 24.94 49.03
  Q 25.07 48.60 25.51 48.48
  Q 31.38 46.91 31.02 49.58
  Z"
/>
<path fill="#ffbe46" d="
  M 26.30 56.13
  L 24.15 57.87
  Q 21.08 58.22 19.74 57.96
  Q 18.61 57.75 19.02 56.47
  Q 19.16 56.03 19.62 56.04
  L 26.30 56.13
  Z"
/>
</svg>
