<?xml version="1.0" encoding="UTF-8" standalone="no"?>
<!DOCTYPE svg PUBLIC "-//W3C//DTD SVG 1.1//EN" "http://www.w3.org/Graphics/SVG/1.1/DTD/svg11.dtd">
<svg xmlns="http://www.w3.org/2000/svg" version="1.1" viewBox="0.00 0.00 60.00 60.00">
<g stroke-width="2.00" fill="none" stroke-linecap="butt">
<path stroke="#9b7c9a" vector-effect="non-scaling-stroke" d="
  M 0.61 48.76
  Q 1.04 49.08 1.40 48.90
  Q 1.65 48.77 1.77 48.34
  Q 2.93 44.33 0.38 40.57"
/>
<path stroke="#9b7c9a" vector-effect="non-scaling-stroke" d="
  M 20.49 28.51
  Q 20.00 28.60 19.77 28.94
  Q 19.46 29.40 19.96 29.65
  Q 23.95 31.61 24.47 36.05
  A 0.52 0.51 -6.6 0 1 24.01 36.62
  L 23.26 36.70
  Q 22.74 36.75 22.67 36.24
  C 21.56 29.13 11.87 29.23 6.85 30.67"
/>
<path stroke="#9b7c9a" vector-effect="non-scaling-stroke" d="
  M 1.88 36.21
  Q 1.84 39.40 3.28 42.24
  Q 3.51 42.72 3.87 42.32
  Q 6.24 39.68 9.82 39.36
  Q 10.36 39.31 10.55 38.80
  Q 11.36 36.55 13.47 35.94
  Q 19.36 34.21 21.60 39.22
  A 0.71 0.71 0.0 0 0 22.80 39.38
  Q 25.38 36.24 29.56 35.46"
/>
<path stroke="#9b7c9a" vector-effect="non-scaling-stroke" d="
  M 30.76 37.57
  Q 27.34 37.12 25.32 39.56
  Q 24.98 39.97 25.43 40.25
  Q 29.71 42.90 30.60 49.06"
/>
<path stroke="#9b7c9a" vector-effect="non-scaling-stroke" d="
  M 12.67 39.39
  L 19.27 39.37
  A 0.12 0.12 0.0 0 0 19.39 39.25
  L 19.39 39.18
  A 3.32 1.73 -0.1 0 0 16.07 37.46
  L 15.87 37.46
  A 3.32 1.73 -0.1 0 0 12.55 39.20
  L 12.55 39.27
  A 0.12 0.12 0.0 0 0 12.67 39.39"
/>
<path stroke="#9b7c9a" vector-effect="non-scaling-stroke" d="
  M 7.52 46.44
  Q 7.77 43.88 9.36 41.83
  A 0.31 0.31 0.0 0 0 9.04 41.34
  Q 4.00 42.78 3.67 48.08
  A 0.63 0.63 0.0 0 0 4.30 48.75
  L 27.51 48.76
  Q 28.04 48.76 28.08 48.23
  C 28.53 42.36 20.77 37.58 18.75 46.36
  Q 18.61 46.97 17.99 46.96
  L 17.49 46.95
  Q 16.84 46.94 16.90 46.29
  Q 17.13 43.78 18.68 41.82
  Q 19.08 41.31 18.46 41.45
  Q 14.60 42.33 14.14 46.37
  Q 14.06 46.99 13.44 46.98
  L 12.81 46.97
  Q 12.08 46.96 12.18 46.23
  Q 12.53 43.66 14.18 41.70
  Q 14.65 41.15 13.95 41.30
  Q 10.16 42.15 9.47 45.94
  Q 9.36 46.52 9.07 46.75
  Q 8.62 47.09 7.90 46.95
  Q 7.48 46.87 7.52 46.44"
/>
<path stroke="#9b7c9a" vector-effect="non-scaling-stroke" d="
  M 30.49 50.65
  L 3.64 50.62
  Q 2.73 50.62 3.31 51.33
  L 3.98 52.15
  A 0.91 0.90 -18.9 0 0 4.69 52.49
  L 29.94 52.50"
/>
<path stroke="#9b7c9a" vector-effect="non-scaling-stroke" d="
  M 8.32 58.12
  L 23.74 58.11"
/>
<path stroke="#9b7c9a" vector-effect="non-scaling-stroke" d="
  M 28.00 54.39
  L 3.96 54.44"
/>
<path stroke="#9b7c9a" vector-effect="non-scaling-stroke" d="
  M 31.03 38.54
  Q 30.63 39.57 31.56 40.62"
/>
<path stroke="#9b7c9a" vector-effect="non-scaling-stroke" d="
  M 28.90 38.78
  A 0.71 0.70 -19.1 0 0 27.79 38.25
  Q 26.74 38.97 27.35 40.15
  A 0.85 0.85 0.0 0 0 28.96 39.70
  L 28.90 38.78"
/>
</g>
<path fill="#363aee" d="
  M 40.22 1.79
  Q 42.32 -0.67 42.05 2.37
  Q 41.98 3.07 40.75 4.22
  A 1.31 1.24 -18.0 0 0 40.36 4.94
  Q 39.99 7.16 41.62 8.62
  A 1.24 1.23 18.8 0 1 42.03 9.44
  Q 42.40 13.15 39.72 15.86
  A 0.79 0.79 0.0 0 1 38.46 14.92
  L 39.94 12.22
  A 2.73 2.72 -48.1 0 0 39.79 9.36
  Q 37.07 5.49 40.22 1.79
  Z"
/>
<path fill="#363aee" d="
  M 47.88 1.88
  C 46.41 4.58 44.79 6.09 47.42 9.03
  A 1.49 1.45 24.9 0 1 47.79 10.00
  Q 47.78 13.37 45.43 15.87
  A 0.69 0.69 0.0 0 1 44.30 15.68
  Q 44.09 15.21 44.21 14.58
  C 44.50 13.07 45.88 12.61 45.97 10.55
  A 1.31 1.29 -65.2 0 0 45.64 9.63
  C 42.72 6.33 44.54 4.51 46.02 1.32
  Q 46.19 0.96 46.59 0.99
  L 47.45 1.07
  A 0.55 0.55 0.0 0 1 47.88 1.88
  Z"
/>
<path fill="#363aee" d="
  M 60.00 29.14
  L 60.00 44.02
  Q 58.80 47.78 54.84 47.78
  Q 54.23 47.79 54.33 48.39
  Q 54.61 50.23 53.76 51.88
  Q 53.44 52.49 54.13 52.51
  L 60.00 52.70
  L 60.00 54.68
  Q 58.65 58.86 54.62 60.00
  L 5.28 60.00
  Q 1.09 58.51 0.00 54.64
  L 0.00 52.68
  L 1.18 52.58
  Q 1.77 52.53 1.44 52.04
  L 0.00 49.86
  L 0.00 49.50
  L 0.61 48.76
  Q 1.04 49.08 1.40 48.90
  Q 1.65 48.77 1.77 48.34
  Q 2.93 44.33 0.38 40.57
  Q 0.58 39.34 0.00 38.11
  L 0.00 34.69
  Q 2.94 28.21 10.64 28.10
  Q 10.83 28.09 10.91 27.85
  A 0.37 0.37 0.0 0 0 10.55 27.37
  Q 9.26 27.37 8.31 26.58
  A 0.73 0.72 66.1 0 1 8.80 25.30
  L 10.88 25.38
  Q 11.51 25.40 12.00 25.01
  Q 17.36 20.68 23.88 23.67
  A 0.75 0.74 -67.1 0 1 24.26 24.62
  Q 23.34 26.95 20.49 28.51
  Q 20.00 28.60 19.77 28.94
  Q 19.46 29.40 19.96 29.65
  Q 23.95 31.61 24.47 36.05
  A 0.52 0.51 -6.6 0 1 24.01 36.62
  L 23.26 36.70
  Q 22.74 36.75 22.67 36.24
  C 21.56 29.13 11.87 29.23 6.85 30.67
  Q 1.92 32.26 1.88 36.21
  Q 1.84 39.40 3.28 42.24
  Q 3.51 42.72 3.87 42.32
  Q 6.24 39.68 9.82 39.36
  Q 10.36 39.31 10.55 38.80
  Q 11.36 36.55 13.47 35.94
  Q 19.36 34.21 21.60 39.22
  A 0.71 0.71 0.0 0 0 22.80 39.38
  Q 25.38 36.24 29.56 35.46
  Q 39.72 36.68 38.21 47.32
  Q 38.13 47.88 37.57 47.88
  L 37.06 47.88
  Q 36.54 47.88 36.54 47.36
  C 36.56 42.83 36.33 38.22 30.76 37.57
  Q 27.34 37.12 25.32 39.56
  Q 24.98 39.97 25.43 40.25
  Q 29.71 42.90 30.60 49.06
  L 39.77 48.85
  A 0.59 0.58 11.2 0 1 40.32 49.67
  L 39.34 51.84
  A 0.47 0.47 0.0 0 0 39.77 52.50
  L 50.00 52.50
  A 2.50 2.50 0.0 0 0 52.50 50.00
  L 52.50 23.00
  Q 52.50 22.50 52.00 22.50
  L 32.29 22.50
  A 0.47 0.46 0.0 0 0 31.82 22.96
  L 31.84 33.01
  Q 31.84 33.60 31.28 33.79
  Q 30.67 34.00 30.31 33.64
  Q 30.06 33.39 30.04 32.79
  Q 29.91 26.97 30.04 21.15
  Q 30.05 20.69 30.51 20.69
  L 53.26 20.66
  A 1.10 1.10 0.0 0 1 54.36 21.76
  L 54.35 24.71
  Q 54.35 25.28 54.92 25.28
  Q 58.83 25.32 60.00 29.14
  Z
  M 13.61 26.62
  L 16.87 24.85
  A 0.17 0.17 0.0 0 0 16.75 24.53
  Q 14.76 24.92 13.41 26.37
  A 0.16 0.16 0.0 0 0 13.61 26.62
  Z
  M 20.79 25.53
  C 19.67 25.78 16.73 26.72 15.88 27.37
  A 0.39 0.39 0.0 0 0 16.26 28.05
  L 21.00 26.22
  A 0.36 0.36 0.0 0 0 20.79 25.53
  Z
  M 54.36 27.48
  L 54.32 45.64
  A 0.33 0.33 0.0 0 0 54.65 45.97
  L 55.25 45.97
  A 3.21 2.93 -89.9 0 0 58.19 42.76
  L 58.21 30.36
  A 3.21 2.93 -89.9 0 0 55.29 27.15
  L 54.69 27.15
  A 0.33 0.33 0.0 0 0 54.36 27.48
  Z
  M 12.67 39.39
  L 19.27 39.37
  A 0.12 0.12 0.0 0 0 19.39 39.25
  L 19.39 39.18
  A 3.32 1.73 -0.1 0 0 16.07 37.46
  L 15.87 37.46
  A 3.32 1.73 -0.1 0 0 12.55 39.20
  L 12.55 39.27
  A 0.12 0.12 0.0 0 0 12.67 39.39
  Z
  M 7.52 46.44
  Q 7.77 43.88 9.36 41.83
  A 0.31 0.31 0.0 0 0 9.04 41.34
  Q 4.00 42.78 3.67 48.08
  A 0.63 0.63 0.0 0 0 4.30 48.75
  L 27.51 48.76
  Q 28.04 48.76 28.08 48.23
  C 28.53 42.36 20.77 37.58 18.75 46.36
  Q 18.61 46.97 17.99 46.96
  L 17.49 46.95
  Q 16.84 46.94 16.90 46.29
  Q 17.13 43.78 18.68 41.82
  Q 19.08 41.31 18.46 41.45
  Q 14.60 42.33 14.14 46.37
  Q 14.06 46.99 13.44 46.98
  L 12.81 46.97
  Q 12.08 46.96 12.18 46.23
  Q 12.53 43.66 14.18 41.70
  Q 14.65 41.15 13.95 41.30
  Q 10.16 42.15 9.47 45.94
  Q 9.36 46.52 9.07 46.75
  Q 8.62 47.09 7.90 46.95
  Q 7.48 46.87 7.52 46.44
  Z
  M 29.94 52.50
  L 36.44 52.49
  Q 37.01 52.48 37.23 51.96
  L 37.52 51.23
  Q 37.77 50.62 37.11 50.62
  L 30.49 50.65
  L 3.64 50.62
  Q 2.73 50.62 3.31 51.33
  L 3.98 52.15
  A 0.91 0.90 -18.9 0 0 4.69 52.49
  L 29.94 52.50
  Z
  M 8.32 58.12
  L 23.74 58.11
  Q 38.25 58.25 52.64 58.13
  C 55.18 58.11 57.13 57.37 57.87 54.93
  Q 58.04 54.37 57.46 54.37
  L 28.00 54.39
  L 3.96 54.44
  Q 3.01 54.07 2.53 54.30
  Q 2.00 54.55 2.20 55.11
  Q 3.50 58.71 8.32 58.12
  Z"
/>
<path fill="#363aee" d="
  M 48.73 24.71
  A 0.31 0.31 0.0 0 1 49.03 24.39
  L 49.89 24.37
  Q 50.42 24.36 50.57 24.87
  Q 50.96 26.15 49.61 26.39
  A 0.72 0.72 0.0 0 1 48.76 25.70
  L 48.73 24.71
  Z"
/>
<path fill="#363aee" d="
  M 48.65 28.81
  A 0.58 0.57 78.2 0 1 48.97 28.31
  Q 50.28 27.67 50.65 28.60
  A 1.18 0.97 -74.7 0 1 48.89 29.85
  Q 48.65 29.34 48.65 28.81
  Z"
/>
<path fill="#ffbe46" d="
  M 20.49 28.51
  Q 26.25 30.60 29.56 35.46
  Q 25.38 36.24 22.80 39.38
  A 0.71 0.71 0.0 0 1 21.60 39.22
  Q 19.36 34.21 13.47 35.94
  Q 11.36 36.55 10.55 38.80
  Q 10.36 39.31 9.82 39.36
  Q 6.24 39.68 3.87 42.32
  Q 3.51 42.72 3.28 42.24
  Q 1.84 39.40 1.88 36.21
  L 6.85 30.67
  C 11.87 29.23 21.56 29.13 22.67 36.24
  Q 22.74 36.75 23.26 36.70
  L 24.01 36.62
  A 0.52 0.51 -6.6 0 0 24.47 36.05
  Q 23.95 31.61 19.96 29.65
  Q 19.46 29.40 19.77 28.94
  Q 20.00 28.60 20.49 28.51
  Z"
/>
<path fill="#ffbe46" d="
  M 12.67 39.39
  A 0.12 0.12 0.0 0 1 12.55 39.27
  L 12.55 39.20
  A 3.32 1.73 -0.1 0 1 15.87 37.46
  L 16.07 37.46
  A 3.32 1.73 -0.1 0 1 19.39 39.18
  L 19.39 39.25
  A 0.12 0.12 0.0 0 1 19.27 39.37
  L 12.67 39.39
  Z"
/>
<path fill="#ffbe46" d="
  M 30.76 37.57
  Q 30.68 38.15 31.03 38.54
  Q 30.63 39.57 31.56 40.62
  Q 32.99 45.50 30.60 49.06
  Q 29.71 42.90 25.43 40.25
  Q 24.98 39.97 25.32 39.56
  Q 27.34 37.12 30.76 37.57
  Z
  M 28.90 38.78
  A 0.71 0.70 -19.1 0 0 27.79 38.25
  Q 26.74 38.97 27.35 40.15
  A 0.85 0.85 0.0 0 0 28.96 39.70
  L 28.90 38.78
  Z"
/>
<path fill="#363aee" d="
  M 28.90 38.78
  L 28.96 39.70
  A 0.85 0.85 0.0 0 1 27.35 40.15
  Q 26.74 38.97 27.79 38.25
  A 0.71 0.70 -19.1 0 1 28.90 38.78
  Z"
/>
<path fill="#363aee" d="
  M 31.56 40.62
  Q 30.63 39.57 31.03 38.54
  Q 31.60 38.25 32.14 38.40
  Q 32.71 38.55 32.82 39.12
  Q 33.00 40.05 31.56 40.62
  Z"
/>
<path fill="#ffbe46" d="
  M 0.38 40.57
  Q 2.93 44.33 1.77 48.34
  Q 1.65 48.77 1.40 48.90
  Q 1.04 49.08 0.61 48.76
  L 0.00 45.86
  L 0.00 41.52
  Q 0.32 41.35 0.38 40.57
  Z"
/>
<path fill="#ffbe46" d="
  M 7.90 46.95
  Q 8.62 47.09 9.07 46.75
  Q 9.36 46.52 9.47 45.94
  Q 10.16 42.15 13.95 41.30
  Q 14.65 41.15 14.18 41.70
  Q 12.53 43.66 12.18 46.23
  Q 12.08 46.96 12.81 46.97
  L 13.44 46.98
  Q 14.06 46.99 14.14 46.37
  Q 14.60 42.33 18.46 41.45
  Q 19.08 41.31 18.68 41.82
  Q 17.13 43.78 16.90 46.29
  Q 16.84 46.94 17.49 46.95
  L 17.99 46.96
  Q 18.61 46.97 18.75 46.36
  C 20.77 37.58 28.53 42.36 28.08 48.23
  Q 28.04 48.76 27.51 48.76
  L 4.30 48.75
  A 0.63 0.63 0.0 0 1 3.67 48.08
  Q 4.00 42.78 9.04 41.34
  A 0.31 0.31 0.0 0 1 9.36 41.83
  Q 7.77 43.88 7.52 46.44
  Q 7.48 46.87 7.90 46.95
  Z"
/>
<path fill="#ffbe46" d="
  M 30.49 50.65
  Q 29.83 51.68 29.94 52.50
  L 4.69 52.49
  A 0.91 0.90 -18.9 0 1 3.98 52.15
  L 3.31 51.33
  Q 2.73 50.62 3.64 50.62
  L 30.49 50.65
  Z"
/>
<path fill="#ffbe46" d="
  M 28.00 54.39
  L 23.74 58.11
  L 8.32 58.12
  L 3.96 54.44
  L 28.00 54.39
  Z"
/>
</svg>
