<?xml version="1.0" encoding="UTF-8" standalone="no"?>
<!DOCTYPE svg PUBLIC "-//W3C//DTD SVG 1.1//EN" "http://www.w3.org/Graphics/SVG/1.1/DTD/svg11.dtd">
<svg xmlns="http://www.w3.org/2000/svg" version="1.1" viewBox="0.00 0.00 60.00 60.00">
<g stroke-width="2.00" fill="none" stroke-linecap="butt">
<path stroke="#9b7c9a" vector-effect="non-scaling-stroke" d="
  M 2.54 35.01
  Q 4.11 44.62 11.72 49.89
  Q 13.35 51.02 15.61 51.06
  Q 22.88 51.20 30.44 51.06"
/>
<path stroke="#9b7c9a" vector-effect="non-scaling-stroke" d="
  M 1.60 50.92
  L 8.25 51.03
  Q 8.95 51.04 8.45 50.55
  Q 3.22 45.52 0.89 38.78"
/>
<path stroke="#9b7c9a" vector-effect="non-scaling-stroke" d="
  M 7.28 57.66
  L 24.69 57.63"
/>
<path stroke="#9b7c9a" vector-effect="non-scaling-stroke" d="
  M 28.99 53.38
  L 2.62 53.35"
/>
</g>
<path fill="#363aee" d="
  M 23.58 0.00
  L 24.50 0.00
  Q 25.06 0.31 25.31 0.74
  A 0.75 0.74 48.7 0 1 25.26 1.58
  C 22.12 5.65 30.79 8.63 24.92 15.39
  A 0.70 0.69 -55.1 0 1 24.06 15.55
  L 23.17 15.06
  A 0.63 0.62 -53.1 0 1 23.03 14.07
  C 28.49 8.67 18.71 6.47 23.58 0.00
  Z"
/>
<path fill="#363aee" d="
  M 16.62 16.50
  C 18.81 14.33 18.88 11.48 16.51 9.21
  A 1.97 1.87 -80.3 0 1 16.03 8.49
  Q 14.83 5.31 17.11 2.79
  A 1.06 1.06 0.0 0 1 18.78 4.09
  Q 17.90 5.42 17.98 6.98
  A 1.45 1.40 -64.1 0 0 18.21 7.69
  C 20.68 11.44 22.05 14.65 18.21 18.16
  A 0.70 0.69 45.9 0 1 17.24 18.14
  L 16.61 17.51
  Q 16.11 17.00 16.62 16.50
  Z"
/>
<path fill="#363aee" d="
  M 30.89 6.31
  Q 31.54 8.73 33.18 10.68
  A 1.23 1.12 -72.7 0 1 33.42 11.19
  Q 34.24 15.31 31.24 18.16
  A 0.71 0.70 45.9 0 1 30.25 18.14
  L 29.60 17.49
  Q 29.11 17.00 29.62 16.53
  C 33.58 12.88 29.74 10.98 28.78 7.77
  Q 27.79 4.46 30.51 2.68
  A 0.62 0.61 -35.2 0 1 31.33 2.81
  Q 32.26 4.02 31.14 5.25
  A 1.12 1.12 0.0 0 0 30.89 6.31
  Z"
/>
<path fill="#363aee" d="
  M 2.54 35.01
  Q 4.11 44.62 11.72 49.89
  Q 13.35 51.02 15.61 51.06
  Q 22.88 51.20 30.44 51.06
  C 32.94 51.27 35.39 51.62 37.58 50.01
  C 46.80 43.26 47.32 34.48 46.82 23.38
  Q 46.79 22.84 46.25 22.84
  L 22.25 22.82
  A 0.60 0.59 -84.1 0 1 21.67 22.10
  L 21.90 21.01
  Q 22.01 20.50 22.53 20.50
  L 48.43 20.50
  A 0.69 0.69 0.0 0 1 49.12 21.15
  L 49.30 23.82
  Q 49.34 24.32 49.84 24.33
  L 60.00 24.56
  L 60.00 35.28
  Q 57.34 45.85 46.20 44.98
  Q 45.75 44.95 45.46 45.28
  L 40.57 50.80
  Q 40.23 51.19 40.75 51.18
  L 50.73 51.15
  A 1.19 1.19 0.0 0 1 51.92 52.33
  Q 51.95 58.41 45.35 60.00
  L 6.25 60.00
  Q 1.09 58.44 0.00 53.37
  L 0.00 51.71
  L 1.60 50.92
  L 8.25 51.03
  Q 8.95 51.04 8.45 50.55
  Q 3.22 45.52 0.89 38.78
  L 0.00 34.35
  L 0.00 21.03
  Q 4.86 20.09 10.15 20.61
  A 1.32 1.30 0.6 0 1 11.33 21.80
  Q 11.42 22.72 10.25 22.73
  Q 6.60 22.75 2.94 22.88
  Q 2.41 22.90 2.42 23.43
  L 2.54 35.01
  Z
  M 54.86 29.26
  Q 57.37 39.16 48.07 40.57
  Q 47.51 40.65 47.32 41.20
  L 46.97 42.22
  Q 46.78 42.77 47.37 42.79
  Q 54.21 42.96 56.81 37.50
  C 58.19 34.59 57.67 30.35 57.66 26.94
  Q 57.65 26.50 57.21 26.50
  L 49.90 26.50
  Q 49.30 26.50 49.26 27.10
  L 49.20 28.27
  A 0.58 0.57 2.4 0 0 49.77 28.88
  L 54.46 28.94
  Q 54.78 28.95 54.86 29.26
  Z
  M 48.59 37.60
  A 0.41 0.40 87.1 0 0 49.08 38.05
  Q 53.91 36.88 52.88 31.76
  Q 52.78 31.25 52.26 31.25
  L 49.87 31.24
  Q 49.45 31.23 49.39 31.65
  L 48.59 37.60
  Z
  M 2.62 53.35
  Q 2.92 56.74 7.28 57.66
  L 24.69 57.63
  Q 34.24 57.67 43.72 57.61
  C 46.65 57.60 48.47 56.65 49.38 53.92
  Q 49.56 53.38 48.99 53.38
  L 28.99 53.38
  L 2.62 53.35
  Z"
/>
<circle fill="#363aee" cx="16.79" cy="21.72" r="1.13"/>
<path fill="#ffbe46" d="
  M 30.44 51.06
  Q 22.88 51.20 15.61 51.06
  Q 13.35 51.02 11.72 49.89
  Q 4.11 44.62 2.54 35.01
  Q 10.68 25.67 20.20 28.66
  C 30.20 31.80 34.39 41.18 30.44 51.06
  Z"
/>
<path fill="#363aee" d="
  M 43.64 31.79
  C 43.64 36.51 41.39 42.35 37.72 45.54
  A 0.67 0.67 0.0 0 1 36.82 45.52
  L 36.24 44.97
  A 0.79 0.79 0.0 0 1 36.23 43.84
  Q 41.30 38.69 41.33 31.40
  A 0.71 0.70 -80.6 0 1 42.26 30.73
  L 43.09 31.01
  Q 43.64 31.21 43.64 31.79
  Z"
/>
<path fill="#ffbe46" d="
  M 0.89 38.78
  Q 3.22 45.52 8.45 50.55
  Q 8.95 51.04 8.25 51.03
  L 1.60 50.92
  L 0.00 45.85
  L 0.00 42.04
  L 0.89 38.78
  Z"
/>
<circle fill="#363aee" cx="33.43" cy="47.37" r="1.13"/>
<path fill="#ffbe46" d="
  M 28.99 53.38
  L 24.69 57.63
  L 7.28 57.66
  L 2.62 53.35
  L 28.99 53.38
  Z"
/>
</svg>
