<?xml version="1.0" encoding="UTF-8" standalone="no"?>
<!DOCTYPE svg PUBLIC "-//W3C//DTD SVG 1.1//EN" "http://www.w3.org/Graphics/SVG/1.1/DTD/svg11.dtd">
<svg xmlns="http://www.w3.org/2000/svg" version="1.1" viewBox="0.00 0.00 60.00 60.00">
<g stroke-width="2.00" fill="none" stroke-linecap="butt">
<path stroke="#9a7c9a" vector-effect="non-scaling-stroke" d="
  M 11.14 28.70
  L 11.04 45.09
  A 0.97 0.97 0.0 0 1 10.25 46.03
  Q 5.15 47.02 4.72 42.06
  Q 4.68 41.59 4.22 41.59
  Q 1.71 41.54 0.92 38.87"
/>
<path stroke="#9a7c9a" vector-effect="non-scaling-stroke" d="
  M 6.61 30.87
  L 6.56 43.53
  Q 6.56 44.18 7.20 44.30
  L 8.61 44.56
  Q 9.35 44.69 9.35 43.94
  L 9.37 29.47"
/>
<path stroke="#9a7c9a" vector-effect="non-scaling-stroke" d="
  M 2.99 34.55
  L 2.97 39.30
  A 0.92 0.92 0.0 0 0 4.81 39.36
  Q 5.00 36.40 4.81 32.70"
/>
<path stroke="#9a7c9a" vector-effect="non-scaling-stroke" d="
  M 32.16 44.34
  C 22.49 45.92 15.39 37.32 17.97 28.05"
/>
<path stroke="#9a7c9a" vector-effect="non-scaling-stroke" d="
  M 19.86 28.38
  Q 18.84 29.84 18.91 31.02
  Q 19.65 43.34 31.93 42.87"
/>
<path stroke="#9a7c9a" vector-effect="non-scaling-stroke" d="
  M 27.60 32.95
  L 25.31 35.43
  Q 24.88 35.89 25.49 36.07
  Q 27.80 36.74 28.58 34.22"
/>
<path stroke="#9a7c9a" vector-effect="non-scaling-stroke" d="
  M 29.71 35.95
  L 29.41 37.24
  A 0.68 0.67 6.8 0 1 28.74 37.76
  L 22.78 37.74
  A 0.85 0.85 0.0 0 1 22.15 36.33
  L 26.20 31.79"
/>
<path stroke="#9a7c9a" vector-effect="non-scaling-stroke" d="
  M 23.99 30.26
  Q 23.49 30.60 23.03 30.63
  Q 22.52 30.68 22.33 30.20
  L 21.87 29.00"
/>
</g>
<path fill="#353aee" d="
  M 11.14 28.70
  L 11.04 45.09
  A 0.97 0.97 0.0 0 1 10.25 46.03
  Q 5.15 47.02 4.72 42.06
  Q 4.68 41.59 4.22 41.59
  Q 1.71 41.54 0.92 38.87
  C 1.46 36.47 0.41 32.23 2.48 30.69
  Q 2.91 30.38 2.91 29.84
  Q 2.80 15.59 12.02 7.49
  C 30.28 -8.54 58.03 5.07 56.90 29.49
  Q 56.87 30.09 57.31 30.50
  L 58.34 31.46
  A 1.06 1.03 -70.8 0 1 58.68 32.19
  C 58.81 34.84 60.10 41.86 55.69 41.63
  Q 55.08 41.60 55.09 42.22
  Q 55.17 46.18 51.23 46.13
  Q 50.64 46.12 50.64 46.71
  C 50.64 48.70 49.96 49.92 48.06 50.75
  Q 43.56 52.72 39.07 54.62
  Q 38.61 54.81 38.56 55.29
  Q 38.20 58.47 35.59 59.19
  C 30.49 60.60 28.18 53.29 33.23 51.50
  Q 35.58 50.67 37.73 52.86
  Q 38.16 53.29 38.72 53.05
  L 48.00 49.06
  A 1.66 1.65 78.4 0 0 49.00 47.54
  L 49.00 26.77
  Q 49.00 26.33 49.42 26.19
  Q 53.96 24.68 55.39 29.20
  Q 55.42 29.30 55.43 29.19
  Q 55.58 23.00 53.07 16.92
  A 0.79 0.78 66.5 0 0 52.01 16.50
  L 49.77 17.53
  A 0.76 0.76 0.0 0 1 48.80 17.24
  C 39.88 2.61 20.12 2.45 11.18 17.15
  Q 10.85 17.69 10.26 17.45
  L 7.74 16.46
  Q 7.25 16.27 7.04 16.74
  Q 4.43 22.45 4.59 28.73
  Q 4.61 29.59 4.88 28.77
  L 5.26 27.60
  A 1.17 1.12 -8.9 0 1 5.70 27.02
  Q 10.94 23.43 11.14 28.70
  Z
  M 51.58 14.36
  C 41.10 -1.67 18.59 -2.08 8.36 14.47
  Q 8.10 14.89 8.52 15.15
  Q 9.10 15.50 9.69 15.43
  Q 10.30 15.36 10.88 14.55
  C 20.81 0.73 39.81 1.63 49.55 15.25
  Q 49.87 15.70 50.39 15.50
  L 51.32 15.15
  Q 51.94 14.91 51.58 14.36
  Z
  M 6.61 30.87
  L 6.56 43.53
  Q 6.56 44.18 7.20 44.30
  L 8.61 44.56
  Q 9.35 44.69 9.35 43.94
  L 9.37 29.47
  Q 9.52 28.50 9.49 28.40
  A 1.56 1.42 38.1 0 0 6.54 28.62
  L 6.61 30.87
  Z
  M 53.4567 28.3875
  A 0.86 0.86 0.0 0 0 52.5952 27.5290
  L 51.4152 27.5310
  A 0.86 0.86 0.0 0 0 50.5567 28.3925
  L 50.5833 43.6125
  A 0.86 0.86 0.0 0 0 51.4448 44.4710
  L 52.6248 44.4690
  A 0.86 0.86 0.0 0 0 53.4833 43.6075
  L 53.4567 28.3875
  Z
  M 2.99 34.55
  L 2.97 39.30
  A 0.92 0.92 0.0 0 0 4.81 39.36
  Q 5.00 36.40 4.81 32.70
  Q 4.65 30.98 3.28 32.18
  A 1.10 1.07 74.4 0 0 2.92 32.84
  Q 2.77 33.72 2.99 34.55
  Z
  M 57.1773 32.6255
  A 0.80 0.80 0.0 0 0 56.3815 31.8213
  L 55.9015 31.8188
  A 0.80 0.80 0.0 0 0 55.0973 32.6146
  L 55.0627 39.2145
  A 0.80 0.80 0.0 0 0 55.8585 40.0187
  L 56.3385 40.0212
  A 0.80 0.80 0.0 0 0 57.1427 39.2254
  L 57.1773 32.6255
  Z
  M 36.91 55.34
  A 2.47 2.47 0.0 0 0 34.44 52.87
  A 2.47 2.47 0.0 0 0 31.97 55.34
  A 2.47 2.47 0.0 0 0 34.44 57.81
  A 2.47 2.47 0.0 0 0 36.91 55.34
  Z"
/>
<path fill="#353aee" d="
  M 32.16 44.34
  C 22.49 45.92 15.39 37.32 17.97 28.05
  Q 21.38 19.52 30.00 19.37
  C 41.06 19.18 46.25 32.25 39.31 40.50
  Q 38.93 40.95 39.20 41.48
  L 40.65 44.36
  A 0.96 0.95 -89.7 0 1 39.36 45.64
  Q 35.62 43.70 32.16 44.34
  Z
  M 19.86 28.38
  Q 18.84 29.84 18.91 31.02
  Q 19.65 43.34 31.93 42.87
  Q 34.60 41.95 37.70 43.34
  Q 38.47 43.69 38.10 42.93
  L 37.19 41.06
  Q 36.96 40.59 37.34 40.23
  C 49.57 28.43 29.40 12.05 20.45 26.46
  Q 19.66 27.74 19.86 28.38
  Z"
/>
<path fill="#353aee" d="
  M 27.60 32.95
  L 25.31 35.43
  Q 24.88 35.89 25.49 36.07
  Q 27.80 36.74 28.58 34.22
  Q 29.55 34.77 29.71 35.95
  L 29.41 37.24
  A 0.68 0.67 6.8 0 1 28.74 37.76
  L 22.78 37.74
  A 0.85 0.85 0.0 0 1 22.15 36.33
  L 26.20 31.79
  Q 27.25 31.09 27.73 29.84
  A 2.13 2.13 0.0 0 0 26.48 27.09
  C 24.74 26.44 22.66 28.51 23.99 30.26
  Q 23.49 30.60 23.03 30.63
  Q 22.52 30.68 22.33 30.20
  L 21.87 29.00
  C 23.13 21.63 33.73 26.85 27.60 32.95
  Z"
/>
<path fill="#353aee" d="
  M 36.53 36.15
  L 37.51 36.59
  A 0.54 0.54 0.0 0 1 37.31 37.63
  L 33.63 37.72
  A 0.73 0.73 0.0 0 1 33.45 36.28
  Q 34.64 36.01 34.66 34.81
  A 0.68 0.68 0.0 0 0 33.98 34.12
  L 29.98 34.09
  A 0.78 0.78 0.0 0 1 29.36 32.84
  L 34.68 25.71
  A 0.78 0.77 -26.7 0 1 36.08 26.17
  L 36.09 31.80
  Q 36.10 32.44 36.70 32.63
  L 37.41 32.86
  A 0.41 0.41 0.0 0 1 37.40 33.64
  Q 36.21 33.99 36.00 35.15
  A 0.93 0.91 17.6 0 0 36.53 36.15
  Z
  M 31.82 32.25
  A 0.20 0.20 0.0 0 0 31.99 32.57
  L 34.02 32.49
  Q 34.51 32.47 34.51 31.98
  L 34.50 29.44
  Q 34.49 28.59 33.99 29.28
  L 31.82 32.25
  Z"
/>
<path fill="#ffbe46" d="
  M 17.97 28.05
  C 15.39 37.32 22.49 45.92 32.16 44.34
  Q 30.63 57.42 17.86 60.00
  L 14.00 60.00
  Q 2.32 57.62 0.00 45.87
  L 0.00 42.02
  L 0.92 38.87
  Q 1.71 41.54 4.22 41.59
  Q 4.68 41.59 4.72 42.06
  Q 5.15 47.02 10.25 46.03
  A 0.97 0.97 0.0 0 0 11.04 45.09
  L 11.14 28.70
  L 17.97 28.05
  Z"
/>
<path fill="#ffbe46" d="
  M 19.86 28.38
  Q 20.86 28.93 21.87 29.00
  L 22.33 30.20
  Q 22.52 30.68 23.03 30.63
  Q 23.49 30.60 23.99 30.26
  Q 25.26 30.70 26.20 31.79
  L 22.15 36.33
  A 0.85 0.85 0.0 0 0 22.78 37.74
  L 28.74 37.76
  A 0.68 0.67 6.8 0 0 29.41 37.24
  L 29.71 35.95
  Q 31.63 38.89 31.93 42.87
  Q 19.65 43.34 18.91 31.02
  Q 18.84 29.84 19.86 28.38
  Z"
/>
<path fill="#ffbe46" d="
  M 9.37 29.47
  L 9.35 43.94
  Q 9.35 44.69 8.61 44.56
  L 7.20 44.30
  Q 6.56 44.18 6.56 43.53
  L 6.61 30.87
  L 9.37 29.47
  Z"
/>
<path fill="#ffbe46" d="
  M 4.81 32.70
  Q 5.00 36.40 4.81 39.36
  A 0.92 0.92 0.0 0 1 2.97 39.30
  L 2.99 34.55
  L 4.81 32.70
  Z"
/>
<path fill="#ffbe46" d="
  M 27.60 32.95
  L 28.58 34.22
  Q 27.80 36.74 25.49 36.07
  Q 24.88 35.89 25.31 35.43
  L 27.60 32.95
  Z"
/>
</svg>
