<svg width="372" height="411" viewBox="0 0 372 411" fill="none" xmlns="http://www.w3.org/2000/svg">
<path d="M286 122C271 80.0003 270 102 216 91.0003C194.167 87.0003 147.8 83.6003 137 102C123.5 125 84.5005 153 67.0005 162.5C49.5005 172 40.0005 211 67.0005 234C94.0005 257 91.0005 277 107 303.5C123 330 267.5 247 313 211C358.5 175 301 164 286 122Z" fill="#5438CD"/>
<path d="M137 58.9998C126.2 64.5998 107.166 90.9998 98.9997 103.5C87.8331 120.833 59.7997 157.2 36.9997 164C8.49974 172.5 20.9997 201.5 24.9997 232.5C28.9997 263.5 61.4997 269 76.4997 281C91.4997 293 86.9997 322.5 108.5 329.5C130 336.5 161 309 170.5 308C180 307 302.5 223 322.5 189.5C342.5 156 313 111.5 302.5 86C292 60.5 256.5 68.4998 235 68.4998C213.5 68.4998 150.5 51.9998 137 58.9998Z" stroke="#5438CD" stroke-width="3"/>
<path d="M128.5 19.9999L84.5 62.9999C69.1666 75.4999 33.8997 108.6 15.4997 141C-7.50025 181.5 -0.500255 229.5 15.4997 281C31.4997 332.5 41.5 320 64 341.5C86.5 363 59 394 64 408.5C69 423 208 349.5 286 305C364 260.5 368.5 157 371 119.5C373.5 82 352 62.9999 286 19.9999C233.2 -14.4001 159 5.66654 128.5 19.9999Z" stroke="#5438CD"/>
</svg>
